{"glyphs":{"0":{"ha":524,"x_min":13,"x_max":531,"o":"m 406 735 q 481 696 453 731 q 519 608 508 661 q 526 488 531 554 q 502 353 521 421 q 452 219 483 285 q 378 105 421 154 q 281 26 335 56 q 167 0 228 -3 q 70 46 106 3 q 24 155 35 89 q 22 301 13 221 q 61 461 32 382 q 137 610 90 540 q 244 722 183 679 q 291 749 263 735 q 340 767 319 764 q 365 758 354 768 l 363 758 q 325 738 343 751 q 290 708 307 725 q 218 601 249 665 q 168 464 188 536 q 140 319 149 392 q 136 188 132 246 q 156 92 140 129 q 201 53 172 54 q 280 98 243 51 q 345 215 317 144 q 392 369 374 286 q 417 523 411 451 q 415 642 424 594 q 379 690 406 689 q 351 678 364 692 q 331 635 338 664 q 331 615 328 622 q 338 599 333 607 q 345 584 342 592 q 344 564 349 576 q 326 540 342 549 q 294 533 310 531 q 265 559 275 536 q 265 621 256 582 q 321 707 281 676 q 406 735 361 738 z "},"1":{"ha":360,"x_min":76,"x_max":432,"o":"m 274 700 q 313 744 299 731 q 342 761 328 757 q 376 766 357 765 q 432 774 396 767 q 372 629 403 718 q 313 440 342 540 q 258 241 283 340 q 218 65 233 142 q 204 30 214 42 q 178 12 194 18 q 136 5 161 6 q 76 4 111 4 q 109 133 90 60 q 151 284 128 206 q 201 442 174 363 q 257 592 228 522 q 176 506 217 550 q 106 422 136 461 q 93 447 97 439 q 89 460 89 454 q 93 472 89 465 q 108 494 97 479 q 190 600 144 547 q 274 700 235 653 z "},"2":{"ha":503,"x_min":-57,"x_max":533,"o":"m 122 122 q 196 124 161 129 q 263 110 231 118 q 324 97 294 103 q 381 94 353 90 q 435 115 408 97 q 488 175 461 133 q 492 147 489 157 q 494 128 494 136 q 488 111 493 119 q 468 89 482 103 q 377 24 419 43 q 295 1 335 4 q 217 6 256 -1 q 140 19 179 13 q 58 23 100 25 q -31 0 17 21 l -57 0 q -13 69 -51 29 q 81 157 25 108 q 193 258 133 204 q 302 371 253 313 q 383 490 351 429 q 413 613 415 550 q 385 684 410 663 q 322 704 360 706 q 230 678 265 701 q 196 622 194 654 q 210 589 196 604 q 226 556 225 568 q 219 531 229 546 q 189 514 208 517 q 148 527 161 510 q 131 564 135 544 q 132 622 126 597 q 212 733 150 699 q 357 767 274 768 q 424 758 392 767 q 480 731 456 749 q 519 685 504 713 q 533 618 533 657 q 492 483 533 549 q 390 356 451 418 q 257 236 329 294 q 122 122 185 178 z "},"3":{"ha":517,"x_min":8,"x_max":543,"o":"m 382 389 q 469 307 443 353 q 492 214 494 261 q 458 113 489 156 q 381 44 428 71 q 281 6 335 17 q 176 3 226 -4 q 85 33 125 10 q 28 100 44 57 q 26 213 8 147 q 40 242 31 226 q 60 272 49 258 q 86 293 72 285 q 114 301 100 301 q 90 185 85 236 q 122 104 96 135 q 188 64 149 74 q 265 68 226 54 q 336 122 304 82 q 378 229 368 161 q 376 299 383 265 q 347 357 368 332 q 322 347 340 353 q 285 342 304 342 q 253 351 267 342 q 242 385 239 360 q 254 418 243 407 q 281 432 265 429 q 313 431 297 435 q 342 421 329 428 q 391 493 368 447 q 419 584 414 539 q 406 664 425 629 q 329 701 388 699 q 271 694 300 703 q 222 669 242 685 q 197 632 203 653 q 208 589 190 611 q 219 569 215 578 q 224 554 222 561 q 215 530 225 544 q 186 513 206 515 q 146 526 158 508 q 131 563 133 543 q 142 646 124 608 q 194 710 161 683 q 269 752 226 738 q 356 767 313 767 q 454 747 414 767 q 516 695 494 728 q 540 621 538 663 q 526 537 543 579 q 474 456 510 494 q 382 389 438 417 z "},"4":{"ha":560,"x_min":0,"x_max":575,"o":"m 435 325 q 508 328 475 324 q 564 349 542 333 q 551 299 564 317 q 518 270 539 281 q 471 256 497 260 q 417 250 444 251 q 376 61 392 144 q 363 26 372 38 q 338 8 354 14 q 296 1 321 1 q 236 0 271 0 q 263 115 247 51 q 296 250 278 179 q 215 253 256 251 q 136 256 175 256 q 63 255 97 257 q 0 244 28 253 q 9 263 4 247 q 28 293 14 278 q 232 510 132 404 q 440 721 332 615 q 469 745 454 738 q 501 756 485 753 q 535 761 517 760 q 575 767 553 763 q 539 681 557 731 q 503 574 521 632 q 467 452 485 515 q 435 325 450 389 m 321 336 q 363 472 339 401 q 411 600 388 542 q 337 530 376 567 q 258 457 297 493 q 181 387 218 421 q 114 322 144 353 q 149 330 125 326 q 201 336 172 333 q 263 339 231 339 q 321 336 294 339 z "},"5":{"ha":517,"x_min":14,"x_max":531,"o":"m 286 697 l 208 485 q 366 454 303 489 q 461 365 429 419 q 494 247 493 311 q 465 126 494 182 q 373 35 435 71 q 218 0 311 -1 q 140 11 178 0 q 75 44 103 22 q 31 99 47 67 q 14 172 14 131 q 44 276 14 232 q 82 302 60 300 q 119 293 104 304 q 134 263 135 282 q 103 224 133 243 q 69 169 69 200 q 81 128 68 149 q 115 92 93 107 q 166 67 138 76 q 225 57 194 57 q 331 88 293 56 q 379 167 368 119 q 376 266 390 214 q 328 358 363 318 q 242 415 294 397 q 125 410 190 432 q 133 445 126 418 q 149 508 140 472 q 167 583 157 543 q 187 656 178 622 q 202 713 196 689 q 211 739 208 736 q 233 751 218 747 q 279 767 247 756 q 342 753 313 760 q 401 745 372 747 q 462 748 431 743 q 531 767 493 753 q 501 679 529 700 q 407 671 474 658 l 286 697 z "},"6":{"ha":489,"x_min":14,"x_max":492,"o":"m 438 571 q 408 581 417 571 q 397 606 399 592 q 402 636 396 621 q 419 663 408 651 q 420 693 433 675 q 378 711 407 711 q 299 683 336 711 q 233 608 263 654 q 181 503 203 563 q 144 383 158 444 q 127 262 131 321 q 131 156 124 203 q 156 82 138 110 q 206 54 174 54 q 286 79 251 54 q 343 141 321 104 q 374 221 365 178 q 374 301 382 264 q 342 363 367 339 q 275 388 318 388 q 213 367 243 388 q 154 321 182 347 q 169 374 156 349 q 206 418 183 399 q 256 449 228 438 q 317 461 285 461 q 417 428 381 463 q 463 344 453 394 q 460 234 474 293 q 413 124 447 175 q 326 37 379 72 q 204 0 272 1 q 98 31 139 -1 q 37 117 57 63 q 15 240 17 171 q 28 382 14 310 q 74 524 43 454 q 146 648 104 593 q 240 735 188 703 q 354 767 293 768 q 448 730 407 765 q 490 636 489 694 q 474 588 492 606 q 438 571 457 571 z "},"7":{"ha":503,"x_min":46,"x_max":574,"o":"m 574 736 q 488 602 536 682 q 389 432 439 522 l 460 432 q 452 408 454 415 q 446 397 450 400 q 434 394 442 393 q 410 394 426 394 l 368 394 q 272 213 318 303 q 196 51 226 124 q 172 19 185 28 q 140 10 158 11 q 99 9 122 8 q 46 4 76 10 q 137 186 79 83 q 261 394 194 289 l 193 394 q 201 419 199 411 q 206 429 203 426 q 217 432 210 432 q 239 432 224 432 l 285 432 q 368 561 326 499 q 446 676 410 624 q 395 678 425 674 q 333 690 365 683 q 269 704 300 697 q 212 712 238 711 q 171 705 186 713 q 157 675 156 697 q 160 665 157 671 q 165 651 163 658 q 173 632 171 640 q 176 617 175 624 q 169 594 176 607 q 143 582 163 582 q 105 599 115 582 q 94 636 94 617 q 97 656 94 644 q 104 682 99 668 q 148 745 121 726 q 215 769 175 764 q 276 767 246 774 q 339 755 307 761 q 406 746 371 749 q 479 751 440 743 q 513 762 503 757 q 530 767 524 767 q 544 761 536 768 q 574 736 553 754 z "},"8":{"ha":506,"x_min":6,"x_max":496,"o":"m 349 439 q 463 292 436 368 q 471 151 490 215 q 392 44 451 86 q 250 0 333 1 q 144 18 193 -1 q 64 72 96 38 q 19 149 32 106 q 19 240 6 193 q 75 335 32 288 q 197 421 118 382 q 127 516 144 472 q 111 604 110 560 q 141 697 113 661 q 211 751 169 733 q 301 767 253 768 q 390 749 349 767 q 461 697 432 731 q 493 613 490 663 q 463 520 496 567 q 349 439 429 474 m 190 663 q 216 576 185 624 q 310 475 247 528 q 421 600 411 526 q 410 665 425 639 q 371 705 396 690 q 316 723 346 719 q 259 720 286 726 q 213 699 232 714 q 190 663 193 685 m 242 56 q 367 87 335 54 q 389 169 399 119 q 337 276 379 218 q 238 385 294 335 q 122 281 154 338 q 97 174 90 224 q 142 90 103 124 q 242 56 182 56 z "},"9":{"ha":496,"x_min":15,"x_max":496,"o":"m 308 767 q 413 736 372 768 q 474 650 454 704 q 495 526 494 596 q 480 385 496 457 q 433 243 464 313 q 360 119 403 174 q 265 31 318 64 q 151 0 211 -1 q 100 10 125 0 q 56 37 75 19 q 26 78 38 54 q 15 131 15 101 q 33 178 15 161 q 69 196 50 196 q 99 185 90 196 q 109 160 108 175 q 103 130 110 146 q 86 104 97 114 q 85 74 72 92 q 126 56 99 56 q 206 84 168 56 q 273 158 243 113 q 326 263 303 204 q 364 384 350 322 q 383 505 378 446 q 381 610 388 564 q 356 685 375 657 q 307 713 338 713 q 226 688 261 713 q 169 626 192 663 q 137 546 146 589 q 135 465 128 503 q 166 403 142 428 q 233 379 190 379 q 297 399 265 379 q 356 446 328 419 q 339 393 353 418 q 303 349 325 368 q 251 317 281 329 q 192 306 222 306 q 92 338 128 304 q 46 423 56 372 q 50 533 36 474 q 99 643 64 592 q 186 730 133 694 q 308 767 239 765 z "},"\u0000":{"ha":0,"x_min":0,"x_max":0,"o":""},"\r":{"ha":208,"x_min":0,"x_max":0,"o":""}," ":{"ha":208,"x_min":0,"x_max":0,"o":""},"b":{"ha":478,"x_min":0,"x_max":464,"o":"m 324 568 q 419 526 386 568 q 458 422 453 485 q 444 285 464 358 q 383 148 424 211 q 280 42 342 85 q 140 0 218 0 q 58 19 88 0 q 14 67 28 38 q 0 137 0 97 q 7 217 0 176 q 24 299 14 258 q 44 372 35 339 q 71 465 57 417 q 98 559 85 513 q 124 647 111 606 q 146 719 136 688 q 163 758 154 747 q 187 773 172 769 q 224 776 201 776 q 286 779 247 775 q 281 765 283 772 q 275 750 278 757 q 244 652 264 717 q 200 514 224 588 q 259 553 228 539 q 324 568 290 568 m 144 51 q 213 86 178 51 q 276 173 247 121 q 326 286 306 225 q 353 399 347 347 q 347 486 358 451 q 301 521 336 521 q 224 476 261 521 q 163 369 188 432 q 149 331 158 358 q 131 269 140 304 q 116 195 122 233 q 109 125 110 157 q 116 72 108 93 q 144 51 124 51 z "},"d":{"ha":524,"x_min":-3,"x_max":590,"o":"m 581 750 q 558 683 572 725 q 529 592 544 642 q 497 487 514 542 q 465 381 479 432 q 452 334 461 365 q 435 266 443 303 q 419 190 426 229 q 413 119 413 151 q 420 67 413 88 q 449 47 428 47 q 479 56 465 47 q 504 79 493 65 q 524 109 515 93 q 538 139 532 125 q 554 147 542 149 q 576 146 567 146 q 553 92 567 119 q 519 44 539 65 q 475 11 500 24 q 418 0 450 -1 q 338 33 363 3 q 307 110 313 64 q 228 31 272 61 q 136 0 185 0 q 38 42 69 0 q 1 147 6 83 q 17 283 -3 210 q 75 420 38 357 q 164 526 113 483 q 274 568 215 568 q 342 550 315 568 q 385 500 369 532 q 420 620 403 563 q 450 718 438 678 q 467 758 458 747 q 491 772 476 769 q 528 774 506 775 q 590 778 551 774 q 585 764 588 771 q 581 750 583 757 m 158 47 q 225 82 193 47 q 283 169 257 117 q 326 283 308 222 q 347 397 343 344 q 339 485 350 450 q 297 519 328 519 q 235 485 267 519 q 178 397 204 450 q 132 283 151 344 q 108 169 113 222 q 114 82 103 117 q 158 47 125 47 z "},"R":{"ha":908,"x_min":8,"x_max":1172,"o":"m 1132 -39 q 1172 -82 1172 -39 q 1163 -118 1172 -99 q 1133 -153 1153 -137 q 1084 -180 1114 -169 q 1014 -189 1054 -190 q 910 -163 957 -187 q 822 -98 863 -139 q 748 -4 782 -57 q 685 106 714 49 q 633 222 657 164 q 590 332 610 281 l 579 361 q 631 369 608 364 q 750 442 706 388 q 801 526 782 479 q 815 617 819 574 q 778 694 811 661 q 678 736 746 726 q 667 738 674 738 q 624 592 643 660 q 582 447 604 524 q 551 338 568 400 q 515 215 535 276 q 471 97 494 153 q 421 6 447 42 q 351 -58 392 -33 q 251 -83 310 -82 q 105 -48 158 -86 q 30 49 51 -10 q 17 178 8 108 q 56 308 25 247 q 135 410 86 368 q 246 453 185 451 q 308 433 286 454 q 346 378 331 413 q 297 381 321 382 q 253 376 274 381 q 144 327 188 364 q 81 244 101 290 q 59 147 60 197 q 76 54 58 96 q 129 -14 93 13 q 217 -37 165 -40 q 283 -9 256 -35 q 332 56 311 17 q 369 140 350 90 q 404 245 388 190 q 435 353 421 300 q 463 449 450 407 q 481 511 472 482 q 497 569 489 540 q 515 629 506 599 q 535 694 524 660 q 564 742 544 729 q 506 741 533 742 q 454 742 478 740 q 460 768 460 760 q 465 778 461 776 q 485 779 468 779 q 528 779 501 779 q 628 780 576 779 q 728 776 679 781 q 867 730 817 768 q 931 640 917 692 q 923 531 944 589 q 849 424 901 474 q 706 346 790 369 q 749 246 725 300 q 801 136 774 192 q 858 28 829 81 q 919 -64 888 -24 q 982 -128 950 -104 q 1044 -153 1014 -153 q 1091 -133 1071 -153 q 1107 -90 1111 -112 q 1110 -55 1103 -71 q 1132 -39 1117 -39 z "},"l":{"ha":218,"x_min":0,"x_max":285,"o":"m 275 750 q 253 683 267 725 q 224 591 240 642 q 192 485 208 540 q 160 381 175 431 q 147 334 156 365 q 129 266 138 303 q 115 190 121 229 q 108 119 108 151 q 115 67 107 88 q 143 47 122 47 q 174 56 160 47 q 199 79 188 65 q 218 109 210 93 q 233 139 226 125 q 249 147 236 149 q 271 146 261 146 q 249 92 263 119 q 215 44 235 65 q 169 11 194 24 q 113 0 144 -1 q 45 22 69 1 q 10 75 21 43 q 1 147 0 107 q 10 226 3 186 q 26 305 17 267 q 44 372 36 343 q 70 464 57 415 q 97 558 83 513 q 124 646 111 604 q 146 718 136 688 q 163 757 154 746 q 186 772 172 768 q 224 774 200 775 q 285 778 247 774 q 280 764 282 771 q 275 750 278 757 z "},"I":{"ha":596,"x_min":8,"x_max":679,"o":"m 672 756 q 648 676 660 714 q 626 601 636 638 q 605 526 615 564 q 582 447 594 489 q 551 339 568 400 q 515 216 535 278 q 471 99 494 154 q 421 7 447 43 q 351 -56 392 -32 q 251 -82 310 -81 q 105 -47 158 -85 q 30 51 51 -8 q 17 179 8 110 q 56 309 25 249 q 135 411 86 369 q 246 454 185 453 q 308 435 286 456 q 346 379 331 414 q 298 383 321 383 q 253 378 275 382 q 144 328 188 365 q 81 245 101 292 q 59 148 60 199 q 76 55 58 97 q 129 -13 93 13 q 217 -36 165 -39 q 283 -8 256 -33 q 332 57 311 17 q 369 142 350 92 q 404 247 388 192 q 435 354 421 301 q 463 449 450 407 q 497 571 481 515 q 535 696 514 626 q 564 742 544 731 l 456 742 q 461 766 460 758 q 465 776 463 774 q 474 779 468 779 q 492 779 479 779 l 679 779 l 672 756 z "},"D":{"ha":972,"x_min":8,"x_max":949,"o":"m 642 779 q 788 747 728 779 q 885 660 849 714 q 935 538 922 607 q 941 397 949 469 q 905 254 933 324 q 829 129 876 185 q 717 38 782 74 q 569 0 651 3 q 509 -1 546 -1 q 450 1 472 -1 q 468 33 463 24 q 480 47 474 43 q 498 49 486 50 q 535 50 510 49 q 675 102 615 56 q 772 217 735 149 q 824 365 810 285 q 825 519 838 446 q 773 650 813 593 q 664 729 733 707 q 622 588 640 654 q 581 446 603 522 q 550 338 567 399 q 514 215 533 276 q 471 97 494 153 q 421 6 447 42 q 350 -58 390 -33 q 251 -85 310 -82 q 105 -49 158 -87 q 30 49 51 -10 q 17 178 8 108 q 56 308 25 247 q 135 410 86 368 q 246 453 185 451 q 308 433 286 454 q 346 376 331 413 q 297 381 321 382 q 253 376 274 381 q 144 327 188 364 q 80 244 101 290 q 58 147 58 197 q 75 53 57 96 q 129 -15 93 11 q 217 -37 165 -40 q 283 -10 254 -35 q 331 56 311 15 q 367 140 349 90 q 403 245 386 190 q 435 353 421 300 q 463 447 450 406 q 497 569 481 514 q 533 694 514 625 q 564 740 544 729 l 456 740 q 461 767 460 758 q 467 778 463 776 q 504 778 469 779 q 583 778 539 778 q 613 778 599 778 q 642 779 628 778 z "},"c":{"ha":406,"x_min":-7,"x_max":458,"o":"m 418 139 q 435 147 424 149 q 458 146 447 146 q 363 37 431 75 q 210 0 294 -1 q 71 42 119 0 q 8 147 22 85 q 10 283 -7 210 q 66 419 26 356 q 165 524 106 482 q 294 568 224 567 q 368 551 333 569 q 413 489 403 533 q 414 465 415 475 q 408 431 414 449 q 391 400 401 413 q 366 383 381 388 q 333 386 351 378 q 313 424 313 397 q 326 469 311 444 q 340 503 343 492 q 322 518 336 515 q 290 517 308 521 q 257 504 271 513 q 193 442 224 483 q 142 349 163 400 q 114 244 122 299 q 116 147 106 190 q 158 74 126 103 q 247 47 189 46 q 295 53 269 47 q 344 71 321 60 q 386 99 367 82 q 418 139 406 117 z "},"e":{"ha":407,"x_min":-7,"x_max":460,"o":"m 419 140 q 437 148 425 149 q 460 147 449 147 q 364 38 432 76 q 211 0 296 0 q 72 42 121 0 q 8 148 22 85 q 10 284 -7 211 q 66 420 26 357 q 165 526 106 483 q 294 569 224 568 q 379 548 349 569 q 417 493 410 526 q 410 419 425 460 q 357 344 394 379 q 259 285 319 310 q 118 257 199 260 q 113 178 111 217 q 131 111 115 140 q 174 65 146 82 q 247 49 203 49 q 296 54 271 49 q 344 72 321 60 q 388 100 368 83 q 419 140 407 117 m 263 508 q 183 422 219 481 q 126 294 146 363 q 238 324 194 299 q 306 383 282 350 q 333 449 329 417 q 326 501 338 482 q 302 520 318 517 q 263 508 286 524 z "},"p":{"ha":533,"x_min":-99,"x_max":585,"o":"m 546 139 q 563 147 550 149 q 585 146 575 146 q 560 92 574 114 q 483 15 531 42 q 382 -20 435 -11 q 277 -23 329 -29 q 186 -1 225 -17 q 158 15 171 4 q 138 36 144 25 q 133 59 132 47 q 150 82 135 71 q 192 47 161 47 q 254 82 222 47 q 314 169 286 117 q 361 283 342 222 q 387 397 381 344 q 382 485 393 450 q 338 519 371 519 q 265 483 301 519 q 203 394 229 447 q 124 124 163 258 q 44 -153 85 -11 q 28 -201 35 -186 q 8 -220 21 -215 q -30 -225 -6 -225 q -99 -229 -54 -225 q 8 134 -43 -44 q 114 499 58 313 q 133 537 122 525 q 161 552 144 549 q 200 556 178 556 q 253 560 222 556 q 247 539 250 549 q 240 519 243 529 q 298 555 268 542 q 358 568 328 568 q 449 534 417 568 q 490 448 481 500 q 488 331 499 396 q 450 206 476 267 q 384 95 424 146 q 297 19 344 44 q 358 17 326 15 q 420 28 390 19 q 476 53 450 36 q 522 96 503 69 q 535 116 529 106 q 546 139 540 126 z "},"q":{"ha":518,"x_min":-3,"x_max":571,"o":"m 532 138 q 548 147 536 147 q 571 146 560 146 q 546 92 560 114 q 463 12 514 39 q 356 -22 413 -15 q 337 -87 346 -54 q 318 -153 328 -121 q 301 -201 308 -186 q 281 -220 294 -215 q 244 -225 268 -225 q 175 -229 219 -225 q 218 -87 197 -157 q 260 54 239 -17 q 201 15 232 29 q 136 0 169 0 q 38 42 69 0 q 1 147 6 85 q 17 284 -3 210 q 75 421 38 358 q 164 526 113 483 q 274 568 215 568 q 345 548 318 568 q 388 494 372 528 l 388 499 q 407 537 396 525 q 435 552 418 549 q 474 556 451 556 q 526 560 496 556 q 517 530 522 544 q 508 500 513 515 q 438 260 472 378 q 368 19 404 142 q 446 42 408 25 q 508 96 483 60 q 521 116 515 106 q 532 138 526 126 m 157 49 q 224 83 192 49 q 281 171 256 118 q 324 284 307 224 q 346 397 342 344 q 339 485 350 450 q 297 519 328 519 q 235 485 267 519 q 177 397 204 450 q 131 284 150 344 q 107 171 113 224 q 113 83 101 118 q 157 49 124 49 z "},"m":{"ha":839,"x_min":-31,"x_max":892,"o":"m 853 139 q 869 147 857 149 q 892 146 882 146 q 868 92 882 119 q 835 44 854 65 q 790 11 815 24 q 733 0 764 -1 q 658 28 683 3 q 626 94 633 54 q 624 182 618 133 q 640 278 629 231 q 663 368 651 326 q 681 438 675 410 q 678 476 685 461 q 656 492 672 492 q 606 468 632 492 q 553 410 579 444 q 503 337 526 376 q 464 267 481 297 q 458 246 461 256 q 453 226 456 236 l 411 71 q 394 33 404 44 q 367 19 383 22 q 330 15 351 15 q 279 11 308 15 l 342 231 q 365 318 353 274 q 386 407 376 363 q 390 431 388 417 q 392 459 393 446 q 385 482 392 472 q 363 492 379 492 q 309 465 338 492 q 253 401 281 439 q 201 321 225 363 q 163 250 178 279 q 135 159 149 204 q 108 65 122 114 q 89 27 100 39 q 61 12 78 15 q 22 8 44 8 q -31 4 0 8 q 43 253 8 133 q 114 499 78 374 q 133 536 122 525 q 160 551 143 547 q 199 556 176 556 q 251 560 221 556 q 244 531 249 547 q 235 503 239 515 q 220 450 228 476 q 204 397 213 424 q 247 460 224 429 q 297 515 271 490 q 352 553 324 539 q 410 568 381 568 q 465 553 444 568 q 493 514 485 538 q 501 461 501 490 q 496 406 501 432 q 495 399 496 403 q 494 392 494 396 q 538 456 514 424 q 588 513 561 488 q 643 553 614 538 q 703 568 672 568 q 741 560 724 568 q 771 535 758 551 q 789 492 783 518 q 789 432 794 467 q 778 386 788 419 q 759 310 769 353 q 740 222 749 268 q 728 137 731 175 q 734 74 726 99 q 764 49 742 49 q 794 57 781 49 q 819 79 808 65 q 839 108 831 93 q 853 139 847 124 z "},"o":{"ha":435,"x_min":-3,"x_max":432,"o":"m 274 568 q 383 526 346 568 q 426 422 419 485 q 413 286 432 360 q 353 149 393 213 q 258 43 314 86 q 135 0 201 0 q 36 42 68 0 q 1 146 4 83 q 17 282 -3 208 q 74 419 36 356 q 164 524 113 482 q 274 568 215 567 m 157 49 q 223 83 190 49 q 281 170 256 118 q 324 283 307 222 q 344 397 340 344 q 338 483 349 449 q 297 518 328 518 q 235 483 267 518 q 177 397 204 449 q 131 283 150 344 q 107 170 113 222 q 113 83 101 118 q 157 49 124 49 z "},"g":{"ha":506,"x_min":-3,"x_max":557,"o":"m 518 138 q 535 147 522 149 q 557 146 547 146 q 481 31 531 71 q 356 -26 431 -8 q 315 -112 339 -69 q 260 -191 292 -156 q 188 -249 229 -226 q 94 -271 147 -271 q 17 -237 38 -271 q 10 -164 -3 -203 q 48 -103 22 -129 q 106 -57 74 -76 q 175 -24 139 -37 q 244 -1 211 -11 l 261 57 q 201 15 233 29 q 136 0 169 0 q 38 42 69 0 q 1 147 6 85 q 17 284 -3 210 q 75 421 38 358 q 164 526 113 483 q 274 568 215 568 q 341 550 314 568 q 383 501 368 532 q 399 540 392 529 q 421 553 407 550 q 458 556 435 557 q 519 560 482 556 q 515 544 517 553 q 511 529 514 535 q 441 270 475 392 q 372 22 407 149 q 462 61 428 35 q 518 138 496 88 m 93 -224 q 143 -203 121 -222 q 181 -159 165 -185 q 209 -105 197 -133 q 228 -53 221 -76 q 176 -70 203 -60 q 126 -97 150 -81 q 83 -133 101 -112 q 54 -178 64 -153 q 56 -210 47 -194 q 93 -224 65 -226 m 157 49 q 224 83 192 49 q 281 170 256 118 q 324 283 307 222 q 346 397 342 344 q 339 483 350 449 q 297 518 328 518 q 235 483 267 518 q 177 397 204 449 q 131 283 150 344 q 107 170 113 222 q 113 83 101 118 q 157 49 124 49 z "},"f":{"ha":314,"x_min":-274,"x_max":563,"o":"m 561 740 q 563 726 563 733 q 563 713 563 719 q 553 676 560 694 q 535 645 546 658 q 509 628 524 632 q 476 632 494 624 q 458 648 465 638 q 451 671 451 658 q 458 697 451 686 q 472 717 465 708 q 488 743 486 731 q 482 764 489 756 q 463 776 475 772 q 436 779 450 781 q 379 757 411 778 q 318 692 344 733 q 272 610 292 651 q 251 560 260 582 l 344 560 q 337 535 339 543 q 331 524 335 528 q 318 522 326 521 q 292 522 310 522 l 239 522 l 239 521 q 208 410 224 465 q 176 301 192 356 q 137 162 157 231 q 96 24 117 93 q 158 39 124 29 q 226 63 193 49 q 288 96 260 76 q 328 140 315 115 q 345 147 333 149 q 367 146 357 146 q 322 81 354 108 q 248 32 289 53 q 162 -3 207 11 q 79 -26 117 -17 q 40 -112 63 -69 q -15 -190 17 -156 q -87 -247 -46 -225 q -181 -269 -128 -269 q -229 -260 -210 -269 q -259 -235 -249 -250 q -272 -201 -269 -219 q -267 -162 -274 -182 q -228 -101 -254 -128 q -170 -56 -203 -75 q -101 -23 -137 -36 q -32 0 -65 -10 q 14 154 -8 78 q 58 308 36 231 q 89 415 74 361 q 119 522 104 469 l 57 522 q 65 547 63 539 q 70 557 67 554 q 81 560 74 560 q 104 560 88 560 l 132 560 q 141 587 136 574 q 151 613 146 600 q 198 697 171 657 q 260 767 225 738 q 340 815 296 797 q 438 833 383 833 q 518 811 482 833 q 561 740 554 789 m -182 -224 q -133 -203 -154 -221 q -94 -158 -111 -185 q -67 -103 -78 -132 q -47 -51 -56 -75 q -99 -69 -72 -58 q -150 -95 -126 -79 q -193 -131 -174 -111 q -222 -176 -212 -151 q -220 -210 -229 -194 q -182 -224 -211 -226 z "},"k":{"ha":472,"x_min":-31,"x_max":525,"o":"m 486 139 q 503 147 490 149 q 525 146 515 146 q 501 93 515 119 q 467 46 488 67 q 422 13 447 25 q 365 0 397 0 q 226 57 275 -3 q 181 222 178 117 q 252 261 219 236 q 309 316 285 286 q 349 378 333 346 q 369 435 364 410 q 370 478 375 461 q 349 494 365 494 q 303 471 328 494 q 253 413 278 447 q 206 340 228 379 q 168 269 183 300 q 138 167 153 218 q 108 63 124 115 q 89 26 100 38 q 61 11 78 15 q 22 7 44 7 q -31 4 -1 7 q 74 360 25 186 q 179 718 124 533 q 197 756 186 744 q 225 770 208 767 q 265 774 242 774 q 317 778 288 774 q 263 597 289 686 q 211 417 236 508 q 250 473 229 446 q 294 522 271 500 q 342 556 317 543 q 393 568 367 568 q 460 543 438 567 q 485 484 482 519 q 474 406 488 449 q 435 326 461 364 q 374 260 410 289 q 299 225 339 232 q 330 94 299 142 q 396 47 361 47 q 426 56 413 47 q 451 79 440 65 q 471 109 463 93 q 486 139 479 125 z "},"j":{"ha":229,"x_min":-279,"x_max":282,"o":"m 243 139 q 260 147 247 149 q 282 146 272 146 q 206 31 256 71 q 79 -26 156 -8 q 40 -112 63 -69 q -15 -190 17 -156 q -87 -247 -46 -225 q -181 -269 -128 -269 q -258 -235 -237 -269 q -265 -164 -279 -201 q -227 -103 -253 -129 q -169 -57 -201 -76 q -100 -24 -136 -37 q -31 -1 -64 -11 q 39 242 6 119 q 108 500 72 365 q 124 539 115 528 q 147 553 132 550 q 184 556 161 557 q 243 560 207 556 l 244 560 q 240 542 242 553 q 235 525 238 532 q 165 268 199 389 q 97 22 132 147 q 187 62 153 36 q 243 139 221 88 m -182 -224 q -132 -203 -154 -222 q -94 -159 -110 -185 q -66 -105 -78 -133 q -47 -53 -54 -76 q -99 -70 -72 -60 q -150 -96 -126 -81 q -192 -131 -174 -111 q -221 -176 -211 -151 q -219 -210 -228 -194 q -182 -224 -210 -226 m 207 611 q 165 629 182 611 q 151 674 149 647 q 174 718 154 700 q 218 736 193 736 q 260 718 244 736 q 274 674 276 700 q 251 629 271 647 q 207 611 232 611 z "},"s":{"ha":428,"x_min":-12,"x_max":394,"o":"m 292 569 q 256 533 257 558 q 269 473 254 508 q 310 394 285 438 q 357 304 336 351 q 386 209 378 257 q 375 115 394 161 q 299 31 351 63 q 171 0 247 0 q 113 7 142 0 q 60 27 83 14 q 19 61 36 40 q -4 111 1 82 q 4 193 -12 158 q 26 218 13 210 q 53 228 39 226 q 77 294 64 258 q 103 364 90 329 q 128 431 117 399 q 149 486 140 463 q 156 538 147 514 q 182 582 164 563 q 209 601 197 597 q 233 601 221 604 q 258 588 244 597 q 292 569 272 579 m 265 151 q 266 212 272 182 q 246 271 260 242 q 215 328 232 300 q 185 385 199 357 l 168 418 q 127 315 149 369 q 88 218 106 261 q 101 192 99 208 q 90 156 104 176 q 74 135 83 144 q 61 115 65 125 q 61 92 57 104 q 86 64 65 79 q 136 49 106 49 q 221 78 188 49 q 265 151 254 107 z "},"t":{"ha":274,"x_min":-3,"x_max":326,"o":"m 288 139 q 304 148 292 149 q 326 147 317 147 q 297 84 317 111 q 251 38 276 57 q 195 10 225 19 q 136 0 165 0 q 45 31 85 0 q 1 128 6 61 q 14 258 -3 190 q 44 374 31 325 q 65 447 54 408 q 86 522 75 485 l 25 522 q 33 547 31 539 q 38 557 35 554 q 48 560 40 560 q 71 560 56 560 l 97 560 q 111 608 104 585 q 125 653 118 631 q 144 691 133 679 q 171 706 154 703 q 210 710 188 710 q 263 714 232 710 q 240 644 253 683 q 214 560 228 604 l 301 560 q 294 535 296 543 q 288 524 292 528 q 275 522 283 521 q 250 522 267 522 l 203 522 q 181 451 192 486 q 160 381 171 415 q 146 331 156 364 q 127 260 136 299 q 112 182 118 222 q 108 111 106 142 q 128 64 111 79 q 168 49 144 49 q 235 72 200 47 q 288 139 269 96 z "},"v":{"ha":456,"x_min":-1,"x_max":486,"o":"m 485 567 q 472 494 486 544 q 433 381 458 444 q 372 251 407 318 q 294 128 336 183 q 203 36 251 72 q 104 0 154 0 q 40 21 63 0 q 8 76 17 42 q 1 151 -1 110 q 10 235 3 193 q 26 313 17 276 q 43 372 36 349 q 59 435 50 403 q 78 500 68 468 q 93 540 86 529 q 113 554 100 551 q 149 556 126 557 q 211 560 171 556 l 213 560 q 208 547 210 556 q 204 532 206 538 q 181 456 192 494 q 158 381 169 417 q 147 341 156 369 q 131 276 139 313 q 115 199 122 239 q 106 124 107 158 q 110 69 104 90 q 135 47 117 47 q 180 71 157 47 q 225 133 203 94 q 267 221 247 172 q 305 320 288 269 q 334 418 322 371 q 353 500 346 465 q 359 545 358 533 q 369 560 360 557 q 404 561 379 563 q 485 567 429 560 z "},"u":{"ha":490,"x_min":0,"x_max":543,"o":"m 504 140 q 521 149 508 150 q 543 147 533 147 q 519 94 533 121 q 486 45 506 67 q 442 11 467 24 q 385 0 417 -1 q 305 34 329 3 q 275 110 281 65 q 246 67 263 88 q 209 32 229 47 q 165 8 189 17 q 113 0 142 -1 q 45 23 69 3 q 10 75 21 43 q 1 147 0 107 q 10 228 3 188 q 26 306 17 268 q 44 374 36 344 q 62 436 53 404 q 81 501 71 468 q 96 540 89 529 q 116 553 103 551 q 152 555 129 556 q 214 560 175 554 q 188 470 201 515 q 160 381 174 425 q 147 335 156 365 q 129 267 138 304 q 115 192 121 231 q 108 121 108 153 q 115 69 107 89 q 143 49 122 49 q 189 64 168 49 q 226 101 210 79 q 256 148 243 124 q 275 190 268 172 q 292 275 283 236 q 310 350 300 314 q 329 422 319 386 q 351 499 339 457 q 367 539 360 528 q 389 553 375 550 q 426 556 403 556 q 486 560 449 556 q 458 469 472 515 q 432 381 444 424 q 419 335 428 365 q 401 267 410 304 q 387 192 393 231 q 380 121 381 153 q 387 69 379 89 q 415 49 394 49 q 446 58 432 49 q 471 81 460 67 q 490 110 482 94 q 504 140 499 126 z "},"w":{"ha":725,"x_min":-1,"x_max":756,"o":"m 754 567 q 742 495 756 546 q 702 381 728 444 q 641 251 676 318 q 563 128 606 183 q 472 36 521 72 q 374 0 424 0 q 300 30 322 0 q 272 104 278 60 q 207 30 246 63 q 113 0 168 -3 q 44 22 68 1 q 9 75 19 43 q 0 147 -1 107 q 8 226 1 186 q 26 305 15 267 q 44 372 36 343 q 61 435 53 403 q 81 500 69 468 q 97 539 89 528 q 117 553 104 550 q 153 556 131 557 q 214 560 176 556 q 208 542 211 553 q 203 525 206 532 q 181 452 192 489 q 160 381 171 415 q 147 334 156 365 q 129 266 138 303 q 115 190 121 229 q 108 119 108 151 q 115 67 107 88 q 143 47 122 47 q 185 61 165 47 q 222 96 206 75 q 251 140 239 117 q 272 182 264 164 q 291 290 278 238 q 311 372 304 342 q 327 431 319 403 q 344 492 335 458 q 360 531 353 521 q 380 544 367 542 q 415 547 393 547 q 478 551 438 546 l 479 551 q 452 465 464 507 q 428 381 440 424 q 417 341 425 369 q 400 276 408 313 q 384 199 392 239 q 375 124 376 158 q 380 69 374 90 q 404 47 386 47 q 449 71 426 47 q 494 133 472 94 q 537 221 517 172 q 574 320 557 269 q 603 418 592 371 q 622 500 615 465 q 628 545 628 533 q 639 560 629 557 q 674 561 649 563 q 754 567 699 560 z "},"y":{"ha":479,"x_min":-29,"x_max":532,"o":"m 493 139 q 510 147 497 147 q 532 146 522 146 q 456 31 506 71 q 329 -28 406 -8 q 290 -114 313 -71 q 235 -192 267 -157 q 163 -249 204 -226 q 69 -271 122 -271 q -8 -237 13 -271 q -15 -164 -29 -203 q 23 -103 -3 -129 q 81 -57 49 -76 q 150 -24 114 -37 q 219 -1 186 -11 q 228 29 224 14 q 238 60 232 44 q 182 15 214 32 q 110 0 150 -3 q 41 22 65 1 q 6 74 17 43 q -3 146 -4 106 q 6 226 -1 186 q 23 304 13 267 q 42 371 33 342 q 58 434 50 401 q 76 499 67 467 q 94 538 85 526 q 117 553 103 550 q 153 556 131 556 q 211 560 175 556 q 206 543 208 553 q 201 526 204 533 q 179 453 190 490 q 157 379 168 415 q 144 333 153 364 q 126 266 135 303 q 112 191 118 229 q 105 121 106 153 q 112 69 104 89 q 140 49 119 49 q 189 67 167 49 q 229 109 211 85 q 259 159 247 133 q 278 200 271 185 q 317 346 297 272 q 358 499 338 419 q 374 538 365 526 q 397 553 382 550 q 434 556 411 556 q 494 560 457 556 q 490 543 492 553 q 485 526 488 533 q 415 269 449 390 q 347 22 382 147 q 437 61 403 35 q 493 139 471 88 m 68 -224 q 118 -203 96 -222 q 156 -159 140 -185 q 184 -105 172 -133 q 203 -53 196 -76 q 151 -70 178 -60 q 100 -97 124 -81 q 58 -133 76 -112 q 29 -178 39 -153 q 31 -210 22 -194 q 68 -224 40 -226 z "},"x":{"ha":575,"x_min":15,"x_max":629,"o":"m 590 140 q 607 149 594 150 q 629 147 619 147 q 606 94 619 121 q 572 47 592 68 q 528 13 553 26 q 471 0 503 0 q 404 14 433 0 q 352 51 375 28 q 311 106 329 75 q 281 174 293 138 l 276 186 l 160 65 q 131 33 140 44 q 112 17 121 22 q 89 10 103 13 q 46 4 75 8 l 253 261 q 235 330 243 297 q 219 390 228 363 q 206 440 213 415 q 189 465 200 464 q 173 457 182 465 q 153 428 164 449 q 121 356 136 399 q 92 270 106 313 q 68 192 78 228 q 53 144 58 157 l 53 143 q 35 139 50 138 q 15 140 21 140 l 15 142 q 16 143 15 143 q 17 144 17 143 q 36 202 26 167 q 57 278 46 238 q 82 363 68 319 q 113 444 96 406 q 135 485 121 464 q 166 525 149 507 q 204 556 183 543 q 249 568 225 568 q 283 553 269 568 q 305 518 296 539 q 319 475 314 497 q 328 438 324 453 q 334 410 331 426 q 343 372 338 393 l 446 499 q 483 545 471 531 q 506 561 494 560 q 538 552 518 563 q 597 522 557 542 l 365 281 q 374 252 369 265 q 382 224 378 239 q 406 158 393 189 q 434 102 419 126 q 465 63 449 78 q 501 49 482 49 q 532 58 518 49 q 557 80 546 67 q 576 109 568 93 q 590 140 585 125 z "},"z":{"ha":499,"x_min":-4,"x_max":551,"o":"m 513 139 q 529 147 517 149 q 551 146 542 146 q 524 83 539 108 q 491 40 510 57 q 445 10 472 22 q 381 -11 418 -1 q 337 -97 364 -54 q 273 -175 310 -140 q 191 -232 236 -210 q 93 -254 146 -254 q 16 -220 36 -254 q 8 -147 -4 -186 q 51 -86 21 -112 q 119 -40 81 -60 q 198 -8 157 -21 q 272 15 239 6 q 302 115 296 79 q 292 160 308 151 q 235 153 276 169 q 122 99 193 138 q 107 119 113 113 q 101 130 101 125 q 107 140 101 135 q 124 157 113 144 l 385 436 q 345 438 363 433 q 313 447 328 442 q 282 458 297 453 q 249 464 267 464 q 172 427 204 464 q 117 339 140 390 q 79 233 94 288 q 51 143 64 178 q 50 142 51 143 q 34 138 49 138 q 13 139 19 139 q 14 141 14 140 q 15 143 14 142 q 38 217 26 174 q 65 308 50 261 q 101 402 81 356 q 147 485 121 449 q 207 545 174 522 q 283 568 240 568 q 334 559 310 568 q 385 543 358 550 q 441 538 411 536 q 508 561 471 540 q 525 540 519 547 q 531 528 531 533 q 524 517 531 524 q 506 499 518 511 q 419 407 457 447 q 347 332 381 367 q 283 265 314 297 q 215 199 251 233 q 337 238 292 233 q 402 219 382 242 q 420 151 422 197 q 397 39 418 106 q 442 51 425 44 q 472 69 460 58 q 492 97 483 81 q 513 139 501 114 m 104 -208 q 156 -188 132 -207 q 199 -144 179 -169 q 232 -89 218 -118 q 253 -36 246 -60 q 197 -53 228 -43 q 138 -80 167 -64 q 85 -116 108 -96 q 53 -161 63 -136 q 60 -194 46 -178 q 104 -208 75 -211 z "},"A":{"ha":1025,"x_min":8,"x_max":1150,"o":"m 1150 779 q 1142 755 1146 763 q 1132 744 1138 747 q 1117 741 1126 740 q 1094 742 1108 742 l 1079 742 q 1076 733 1076 738 q 1074 726 1075 729 q 1053 664 1065 701 q 1026 581 1040 626 q 997 483 1013 535 q 967 381 981 432 q 953 335 963 365 q 936 267 944 304 q 922 192 928 231 q 915 121 915 153 q 922 69 914 89 q 950 49 929 49 q 981 58 967 49 q 1006 80 994 67 q 1025 109 1017 93 q 1039 139 1033 125 q 1056 147 1043 149 q 1078 146 1068 146 q 1054 93 1068 119 q 1021 45 1040 67 q 976 11 1001 24 q 919 0 951 -1 q 851 22 875 1 q 816 75 826 43 q 807 147 806 107 q 815 226 808 186 q 833 305 822 267 q 851 372 843 343 q 856 390 854 381 q 860 407 857 399 l 835 407 l 713 407 q 608 231 663 319 q 494 73 554 143 q 367 -41 433 3 q 225 -83 300 -85 q 89 -40 138 -82 q 24 63 40 1 q 20 197 8 125 q 65 332 32 269 q 147 436 97 394 q 257 479 197 478 q 319 461 297 482 q 357 404 342 440 q 264 404 306 413 q 159 354 203 392 q 91 268 115 317 q 60 165 67 219 q 69 66 54 111 q 118 -8 83 21 q 210 -37 153 -37 q 308 1 257 -37 q 411 103 358 40 q 518 247 464 167 q 625 407 572 326 l 568 407 q 576 430 574 422 q 582 441 578 438 q 594 444 586 444 q 621 444 603 444 l 650 444 q 695 513 674 479 q 740 576 717 546 q 803 664 775 626 q 863 727 831 701 q 935 766 894 753 q 1039 779 976 779 l 1150 779 m 871 444 q 910 581 890 515 q 944 694 929 646 q 961 735 951 721 q 924 719 942 731 q 889 690 907 708 q 851 641 871 671 q 806 569 831 611 q 735 444 769 511 l 871 444 z "},"B":{"ha":961,"x_min":8,"x_max":938,"o":"m 685 426 q 792 411 747 426 q 867 371 838 396 q 911 313 897 346 q 924 246 925 281 q 886 137 922 190 q 781 47 850 83 q 681 13 736 24 q 568 0 625 3 q 540 -1 556 0 q 507 -1 524 -1 q 474 -1 490 -1 q 449 1 458 0 q 467 33 461 24 q 478 47 472 43 q 497 49 485 50 q 533 50 508 49 q 631 64 588 54 q 724 111 675 74 q 783 178 763 140 q 804 251 804 215 q 776 332 806 294 q 682 390 747 369 q 640 400 663 396 q 592 407 617 404 q 597 432 596 424 q 601 444 599 440 q 611 448 604 447 q 633 451 618 449 q 693 464 669 456 q 765 510 735 478 q 808 578 796 542 q 809 649 819 614 q 758 708 799 685 q 716 726 739 719 q 667 736 693 733 q 623 591 643 658 q 581 446 603 524 q 550 338 567 399 q 514 215 533 276 q 471 97 494 153 q 421 6 447 42 q 349 -58 390 -33 q 250 -85 308 -82 q 103 -49 157 -87 q 29 49 50 -10 q 16 178 8 108 q 54 308 24 247 q 134 410 85 368 q 244 453 183 451 q 308 433 286 454 q 344 376 329 413 q 297 381 319 382 q 253 376 274 381 q 144 327 188 364 q 80 244 101 290 q 58 147 58 197 q 75 53 57 96 q 129 -15 93 11 q 217 -37 165 -40 q 282 -10 254 -35 q 331 56 310 15 q 367 140 349 90 q 403 245 386 190 q 435 353 421 300 q 463 447 450 406 q 498 571 482 514 q 535 697 514 628 q 560 740 543 729 l 454 740 q 459 767 458 758 q 465 778 460 776 q 484 778 467 778 q 527 778 501 778 q 583 778 553 778 q 640 779 613 779 q 726 776 681 779 q 813 758 772 772 q 893 713 864 742 q 930 649 922 683 q 925 577 938 614 q 881 509 913 540 q 799 455 849 478 q 685 426 750 432 z "},"F":{"ha":736,"x_min":8,"x_max":1106,"o":"m 1050 938 q 1090 921 1076 938 q 1104 880 1103 904 q 1094 827 1106 856 q 1060 774 1083 799 q 1003 733 1038 750 q 924 717 969 717 q 808 725 874 717 q 668 740 742 733 q 624 593 644 663 q 582 446 604 524 q 581 443 582 446 l 746 443 q 736 419 739 426 q 728 408 733 411 q 712 405 722 404 q 679 406 701 406 l 571 406 q 541 301 557 357 q 506 190 525 244 q 467 86 488 135 q 421 6 446 38 q 351 -58 392 -33 q 251 -85 310 -82 q 105 -49 158 -87 q 30 49 51 -10 q 17 178 8 108 q 56 308 25 247 q 135 410 86 368 q 246 453 185 451 q 308 433 286 454 q 346 376 331 413 q 253 376 294 385 q 144 327 188 364 q 81 243 101 290 q 59 145 60 196 q 76 53 58 94 q 129 -15 93 11 q 217 -37 165 -40 q 283 -10 256 -36 q 332 56 311 15 q 365 129 349 86 q 396 219 381 172 q 425 315 411 267 q 451 406 439 364 l 392 406 q 401 430 399 422 q 408 440 404 438 q 422 443 413 443 q 451 443 431 443 l 461 443 q 462 445 461 444 q 463 447 463 446 q 499 574 482 514 q 538 704 517 633 q 568 750 547 740 q 482 753 524 753 q 403 749 440 754 q 333 735 365 744 q 278 707 301 725 q 235 631 235 676 q 243 597 235 606 q 264 588 251 589 q 290 592 276 588 q 315 596 304 596 q 344 582 331 596 q 358 546 358 568 q 342 503 358 522 q 293 483 325 483 q 265 489 282 483 q 233 508 249 494 q 207 547 218 522 q 196 611 196 572 q 200 653 196 631 q 215 700 204 676 q 244 746 225 724 q 290 786 263 768 q 449 838 361 832 q 628 833 538 843 q 808 806 719 822 q 971 789 897 789 q 1023 801 1011 789 q 1033 829 1035 813 q 1022 865 1031 846 q 1013 897 1013 883 q 1020 923 1013 908 q 1050 938 1028 938 z "},"J":{"ha":678,"x_min":8,"x_max":714,"o":"m 694 693 q 693 689 693 690 q 692 685 693 688 l 690 678 q 647 533 669 611 q 603 382 624 454 l 657 382 q 649 358 651 365 q 644 347 647 350 q 633 344 640 343 q 611 344 626 344 l 592 344 q 587 328 589 336 q 582 311 585 319 q 551 202 568 264 q 515 78 535 140 q 472 -39 496 17 q 421 -131 449 -94 q 351 -194 392 -169 q 251 -219 310 -218 q 105 -184 158 -222 q 30 -87 51 -146 q 17 42 8 -28 q 56 172 25 111 q 135 274 86 232 q 246 317 185 315 q 308 297 286 318 q 346 242 331 276 q 298 245 321 246 q 253 240 275 244 q 144 191 188 228 q 81 108 101 154 q 59 10 60 61 q 76 -82 58 -40 q 130 -150 94 -124 q 218 -174 165 -176 q 283 -145 256 -171 q 332 -81 311 -119 q 369 4 350 -46 q 404 109 388 54 q 435 217 421 164 q 463 313 450 271 q 467 328 465 319 q 472 344 469 336 l 407 344 q 413 369 411 361 q 417 379 414 376 q 427 382 421 382 q 447 382 433 382 l 483 382 q 521 512 501 443 q 556 633 540 581 q 576 672 564 661 q 606 686 588 683 q 510 692 557 690 q 422 690 464 693 q 344 676 381 686 q 283 646 308 665 q 240 569 240 615 q 251 535 240 544 q 272 525 261 525 q 296 530 281 525 q 321 535 311 535 q 350 521 336 535 q 364 485 364 507 q 347 442 364 461 q 299 422 329 422 q 271 428 288 422 q 239 447 254 433 q 213 486 224 461 q 201 550 201 511 q 206 592 201 569 q 220 639 210 615 q 249 685 231 663 q 296 725 268 707 q 389 765 339 753 q 493 778 439 776 q 603 775 547 781 q 714 761 658 769 l 694 693 l 694 693 z "},"T":{"ha":654,"x_min":8,"x_max":1064,"o":"m 1010 938 q 1052 917 1040 938 q 1064 876 1064 897 q 1055 833 1064 860 q 1025 781 1046 807 q 969 735 1004 754 q 882 717 935 717 q 783 723 839 717 q 665 736 728 729 q 623 591 643 661 q 581 446 603 521 q 550 338 567 399 q 514 215 533 276 q 471 97 494 153 q 421 6 447 42 q 350 -58 390 -33 q 251 -85 310 -82 q 105 -49 158 -87 q 30 49 51 -10 q 16 178 8 108 q 54 308 24 247 q 134 410 85 368 q 246 453 183 451 q 308 433 286 454 q 344 378 329 413 q 297 381 319 382 q 253 376 274 381 q 144 327 188 364 q 80 244 101 290 q 58 147 58 197 q 75 53 57 96 q 129 -15 93 11 q 217 -37 165 -40 q 282 -10 254 -35 q 331 56 310 15 q 367 140 349 90 q 403 245 386 190 q 435 353 421 300 q 463 447 450 406 q 500 576 482 514 q 538 710 518 639 q 558 749 546 736 q 463 754 510 753 q 375 751 417 756 q 298 737 333 747 q 236 708 263 726 q 193 631 193 675 q 204 597 193 606 q 226 588 215 588 q 249 592 233 588 q 274 596 264 596 q 303 582 289 596 q 317 546 317 568 q 300 503 317 522 q 251 483 283 483 q 224 489 240 483 q 193 508 208 494 q 167 547 178 522 q 156 611 156 572 q 160 654 156 631 q 174 701 164 678 q 203 746 185 724 q 249 786 221 768 q 408 838 319 832 q 587 833 496 844 q 767 806 678 822 q 929 789 856 789 q 974 796 956 789 q 992 832 992 803 q 988 845 992 838 q 982 860 985 853 q 971 897 971 885 q 979 923 971 908 q 1010 938 988 938 z "},"H":{"ha":928,"x_min":8,"x_max":994,"o":"m 985 751 q 963 685 976 726 q 933 592 949 643 q 900 487 917 542 q 869 381 883 432 q 856 335 865 365 q 839 267 847 304 q 824 192 831 231 q 817 121 817 153 q 824 69 817 89 q 853 49 832 49 q 883 58 869 49 q 908 81 897 67 q 928 110 919 94 q 942 140 936 126 q 958 149 946 150 q 981 147 971 147 q 957 94 971 121 q 924 45 943 67 q 878 11 904 24 q 822 0 853 -1 q 753 23 778 3 q 719 75 729 43 q 710 147 708 107 q 718 228 711 188 q 735 306 725 268 q 753 374 744 344 q 758 390 756 382 q 763 408 760 399 l 756 408 l 569 408 q 541 303 557 360 q 506 192 525 247 q 467 88 488 136 q 421 7 446 39 q 349 -56 390 -32 q 250 -82 308 -81 q 103 -47 157 -85 q 29 51 50 -8 q 16 179 8 110 q 54 309 24 249 q 134 411 85 369 q 246 454 183 453 q 308 435 286 456 q 344 379 329 414 q 297 383 319 383 q 253 378 274 382 q 144 328 188 365 q 80 245 101 292 q 58 148 58 199 q 75 55 57 97 q 129 -13 93 13 q 217 -36 165 -39 q 282 -8 254 -33 q 331 57 310 17 q 367 142 349 92 q 403 247 386 192 q 435 354 421 301 q 463 449 450 407 q 497 571 481 515 q 533 696 513 626 q 564 742 543 732 l 454 742 q 460 766 458 758 q 465 776 461 774 q 474 779 468 779 q 492 779 479 779 l 679 779 l 672 756 q 648 676 660 714 q 625 601 636 638 q 603 526 614 564 q 581 447 593 489 l 581 446 l 774 446 q 794 522 783 483 q 816 596 806 560 q 836 663 826 632 q 854 719 846 694 q 872 758 863 747 q 895 773 881 769 q 933 776 910 776 q 994 779 957 775 q 989 765 992 772 q 985 751 986 758 z "},"K":{"ha":915,"x_min":11,"x_max":1194,"o":"m 1156 -40 q 1194 -83 1194 -37 q 1185 -119 1194 -100 q 1156 -154 1175 -137 q 1107 -181 1136 -171 q 1038 -190 1078 -192 q 917 -162 971 -189 q 820 -90 864 -135 q 742 11 776 -46 q 679 128 707 68 q 628 249 651 189 q 583 361 604 310 l 554 342 q 527 249 542 297 q 497 156 513 201 q 463 72 481 111 q 424 7 444 33 q 353 -56 393 -32 q 254 -82 313 -81 q 108 -47 161 -85 q 33 51 54 -8 q 19 179 11 110 q 58 309 28 249 q 138 411 89 369 q 249 454 188 453 q 310 435 289 456 q 347 379 332 414 q 300 383 324 383 q 256 378 276 382 q 147 328 190 365 q 83 245 104 292 q 60 148 61 199 q 78 55 60 97 q 132 -13 96 13 q 219 -36 168 -39 q 285 -8 257 -33 q 333 57 313 17 q 370 142 351 92 q 406 247 389 192 q 438 354 424 301 q 465 449 453 407 q 499 571 483 515 q 536 696 515 626 q 567 742 549 732 l 464 742 l 458 742 q 466 775 464 769 q 483 779 468 781 l 500 779 l 682 779 l 688 779 q 671 744 679 750 q 627 596 647 664 q 583 447 607 528 q 578 430 581 439 q 574 410 576 421 q 634 475 592 429 q 724 574 676 521 q 818 678 772 628 q 892 757 864 729 q 919 774 904 769 q 950 779 933 779 q 984 778 967 779 q 1021 776 1001 776 q 985 742 1013 769 q 920 678 957 715 q 842 598 883 640 q 765 519 801 556 q 704 458 729 483 q 674 428 679 432 q 708 342 685 397 q 761 224 731 288 q 828 92 792 160 q 906 -29 865 25 q 987 -118 946 -83 q 1068 -153 1028 -153 q 1115 -133 1094 -153 q 1129 -90 1135 -114 q 1133 -56 1126 -72 q 1156 -40 1140 -40 z "},"L":{"ha":596,"x_min":6,"x_max":901,"o":"m 800 -90 q 816 -50 800 -62 q 851 -39 832 -37 q 885 -55 869 -40 q 901 -96 901 -69 q 889 -146 901 -125 q 857 -179 876 -167 q 774 -201 822 -201 q 659 -185 710 -203 q 567 -140 608 -168 q 492 -79 526 -112 q 428 -16 458 -46 q 370 35 399 14 q 311 61 342 57 q 229 -41 276 -6 q 113 -83 182 -76 q 28 -65 50 -90 q 22 -3 6 -39 q 88 67 38 32 q 221 115 139 101 q 271 251 247 178 q 316 401 294 325 q 357 554 338 478 q 397 699 376 631 q 422 742 404 729 l 318 742 q 324 765 322 757 q 328 776 325 772 q 336 779 331 779 q 354 779 342 779 l 540 779 q 528 736 533 757 q 515 693 522 715 q 475 551 494 626 q 435 399 456 475 q 390 249 414 322 q 340 115 367 176 q 447 88 401 110 q 530 35 493 65 q 597 -29 567 4 q 657 -91 628 -62 q 716 -139 686 -119 q 782 -158 746 -158 q 801 -154 793 -158 q 810 -139 810 -150 q 805 -117 810 -132 q 800 -90 800 -103 m 79 -37 q 144 -6 115 -36 q 194 61 174 25 q 131 49 164 64 q 77 13 99 33 q 53 -23 56 -7 q 79 -37 50 -39 z "},"P":{"ha":893,"x_min":8,"x_max":931,"o":"m 726 776 q 827 749 786 771 q 892 694 868 726 q 924 622 917 661 q 922 540 931 582 q 892 459 914 499 q 835 386 869 419 q 732 322 790 346 q 608 290 674 299 q 581 288 594 289 q 556 288 568 288 q 564 315 561 307 q 572 324 567 322 q 587 326 576 326 q 617 332 597 326 q 683 359 654 340 q 736 404 713 378 q 789 495 768 442 q 808 599 810 549 q 776 689 806 650 q 678 736 746 728 q 667 738 674 738 q 624 592 643 660 q 582 447 604 525 q 551 338 568 400 q 515 215 535 276 q 471 97 494 153 q 421 7 447 42 q 351 -58 392 -33 q 251 -83 310 -82 q 105 -48 158 -86 q 30 49 51 -10 q 17 178 8 108 q 56 308 25 247 q 135 410 86 368 q 246 453 185 451 q 308 434 286 456 q 346 378 331 413 q 253 378 296 386 q 144 328 188 364 q 81 244 101 292 q 59 147 60 197 q 76 54 58 96 q 130 -14 94 13 q 218 -37 165 -40 q 283 -9 256 -35 q 332 56 311 17 q 369 140 350 90 q 404 245 388 190 q 435 353 421 300 q 463 449 450 407 q 481 511 472 482 q 499 569 490 540 q 515 629 507 599 q 535 694 524 660 q 547 724 540 714 q 565 742 554 735 q 506 741 533 742 q 454 742 478 740 q 460 769 458 760 q 465 779 461 778 l 496 779 q 611 781 551 779 q 726 776 671 782 z "},"N":{"ha":1007,"x_min":8,"x_max":1253,"o":"m 1174 779 q 1234 761 1215 779 q 1249 721 1253 743 q 1231 688 1246 703 q 1201 672 1217 672 q 1181 678 1188 672 q 1168 691 1174 683 q 1156 704 1163 699 q 1136 710 1150 710 q 1076 677 1104 710 q 1024 592 1049 644 q 976 470 999 539 q 935 329 954 401 q 901 187 917 257 q 872 60 885 117 q 864 28 867 38 q 856 14 861 18 q 838 8 850 10 q 804 0 826 6 q 737 151 763 67 q 694 324 711 235 q 669 503 678 414 q 653 668 660 592 q 651 674 651 675 q 651 667 651 674 q 632 531 644 608 q 598 372 619 454 q 547 208 576 289 q 474 63 517 128 q 377 -42 432 -1 q 251 -83 322 -82 q 105 -47 158 -86 q 30 51 51 -8 q 17 179 8 110 q 56 309 25 249 q 135 411 86 369 q 246 454 185 453 q 308 435 286 456 q 346 378 331 414 q 253 378 294 386 q 146 329 189 365 q 81 247 103 293 q 58 150 60 200 q 74 58 57 100 q 128 -12 92 15 q 217 -37 164 -39 q 322 10 274 -36 q 411 128 371 56 q 485 290 451 201 q 543 465 518 378 q 585 625 568 551 q 613 742 603 699 l 518 742 q 522 765 521 757 q 526 776 524 772 q 533 779 528 779 q 549 779 538 779 l 650 779 l 732 779 q 756 760 756 779 q 763 678 757 729 q 775 568 768 628 q 790 445 782 508 q 808 327 799 382 q 826 231 817 272 q 843 172 835 189 q 868 260 854 203 q 901 385 882 318 q 944 522 919 453 q 1002 649 969 592 q 1077 742 1035 706 q 1174 779 1119 779 z "},"M":{"ha":1336,"x_min":8,"x_max":1401,"o":"m 1392 750 q 1370 683 1383 725 q 1341 591 1357 642 q 1308 485 1325 540 q 1276 381 1292 431 q 1263 334 1272 365 q 1246 266 1254 303 q 1231 190 1238 229 q 1224 119 1225 151 q 1231 67 1224 88 q 1260 47 1239 47 q 1290 56 1276 47 q 1315 79 1304 65 q 1335 109 1326 93 q 1350 139 1343 125 q 1367 147 1354 149 q 1389 146 1379 146 q 1365 92 1379 119 q 1331 44 1351 65 q 1286 11 1311 24 q 1229 0 1261 -1 q 1162 22 1186 1 q 1127 75 1138 43 q 1118 147 1117 107 q 1126 226 1119 186 q 1143 305 1133 267 q 1161 372 1153 343 q 1193 485 1176 426 q 1226 599 1210 544 l 883 85 q 860 52 868 63 q 842 38 851 42 q 818 31 833 33 q 776 24 803 29 q 781 57 779 39 q 788 99 783 75 q 803 197 794 142 q 823 310 813 251 q 844 428 833 369 q 866 538 856 486 q 886 631 876 590 q 903 694 896 671 q 904 700 904 697 q 906 706 904 703 q 860 654 883 686 q 806 569 838 622 q 727 432 768 506 q 642 285 686 358 q 551 145 599 213 q 452 26 504 78 q 344 -56 400 -25 q 225 -85 288 -86 q 89 -42 138 -83 q 24 62 40 0 q 20 196 8 124 q 65 331 32 268 q 147 435 97 393 q 257 479 197 478 q 319 460 297 481 q 357 404 342 439 q 309 408 332 408 q 264 403 286 407 q 159 353 203 390 q 91 267 115 315 q 60 165 67 218 q 69 66 54 111 q 118 -8 83 21 q 210 -37 153 -37 q 292 -9 250 -37 q 379 68 335 19 q 469 179 424 117 q 561 310 515 242 q 652 448 607 379 q 740 576 697 517 q 803 663 775 625 q 862 726 831 700 q 934 765 893 751 q 1038 778 975 778 q 1014 658 1026 724 q 988 522 1001 592 q 961 382 975 451 q 935 251 947 313 l 1276 754 q 1301 772 1288 769 q 1338 774 1314 774 q 1352 775 1344 775 q 1369 775 1360 775 l 1401 776 q 1392 750 1397 764 z "},"S":{"ha":583,"x_min":13,"x_max":556,"o":"m 554 683 q 534 638 554 651 q 492 629 514 625 q 458 655 471 633 q 461 714 446 676 q 453 738 465 726 q 408 749 440 749 q 346 724 364 749 q 333 661 328 699 q 368 562 340 608 q 427 468 396 515 q 485 371 458 421 q 521 263 513 321 q 508 130 532 186 q 439 37 483 74 q 336 -16 394 0 q 221 -29 278 -32 q 99 2 144 -25 q 33 67 53 29 q 15 148 13 106 q 36 225 17 190 q 90 279 56 260 q 168 292 124 299 q 122 208 138 256 q 113 119 107 161 q 149 47 119 76 q 236 17 178 18 q 301 29 268 17 q 358 66 333 42 q 394 126 382 90 q 401 210 407 163 q 365 326 393 272 q 306 429 338 379 q 248 527 275 479 q 214 625 221 575 q 222 690 210 658 q 258 744 233 721 q 321 781 283 767 q 406 794 358 794 q 488 777 457 794 q 535 740 519 760 q 550 714 544 729 q 554 683 556 699 z "},"O":{"ha":613,"x_min":14,"x_max":622,"o":"m 469 768 q 560 726 525 764 q 608 631 594 689 q 617 501 622 574 q 591 355 613 429 q 533 211 569 281 q 445 88 496 142 q 331 2 394 33 q 194 -26 268 -29 q 92 10 132 -24 q 33 99 53 44 q 15 224 14 154 q 33 367 15 293 q 84 514 50 442 q 166 647 118 586 q 275 749 214 707 q 408 804 336 790 q 417 799 415 806 q 413 789 418 792 q 285 698 339 764 q 196 547 231 632 q 145 371 161 463 q 134 203 129 279 q 164 77 139 126 q 236 28 189 28 q 345 79 294 28 q 433 207 396 131 q 492 372 469 283 q 517 538 514 461 q 502 667 521 615 q 439 721 483 719 q 406 708 421 722 q 381 661 390 693 q 381 639 376 647 q 390 622 385 631 q 398 606 394 614 q 397 583 401 597 q 375 558 393 568 q 338 550 357 547 q 303 578 314 553 q 303 644 292 604 q 369 739 321 706 q 469 768 417 772 z "},"U":{"ha":794,"x_min":14,"x_max":853,"o":"m 808 139 q 825 147 813 149 q 847 146 838 146 q 824 92 838 119 q 790 44 810 65 q 745 11 771 24 q 689 0 719 -1 q 608 34 632 3 q 578 113 583 65 q 488 31 542 64 q 376 0 433 -3 q 288 32 326 1 q 246 126 250 63 q 247 190 243 157 q 258 256 251 224 q 273 319 265 289 q 288 372 281 349 q 309 449 296 404 q 336 540 322 493 q 363 631 350 588 q 386 707 376 675 q 222 707 299 714 q 96 665 144 700 q 53 588 53 632 q 64 553 53 563 q 85 544 75 544 q 108 549 93 544 q 133 553 124 553 q 163 539 149 553 q 176 503 176 525 q 159 460 176 479 q 111 440 142 440 q 83 446 100 440 q 51 465 67 451 q 25 504 36 479 q 14 568 14 529 q 18 611 14 588 q 33 658 22 635 q 62 703 43 681 q 108 743 81 725 q 201 783 151 771 q 306 797 251 794 q 415 793 360 799 q 526 779 471 788 q 501 699 517 749 q 468 592 486 649 q 433 480 450 536 q 403 381 415 424 q 389 331 399 364 q 370 260 379 299 q 356 181 361 221 q 353 111 350 142 q 373 63 356 78 q 415 47 390 47 q 460 60 436 47 q 506 93 483 74 q 549 137 529 113 q 579 185 568 161 q 597 286 585 236 q 619 372 610 336 q 668 547 643 460 q 713 696 693 635 q 730 735 721 724 q 753 749 739 746 q 791 752 768 753 q 853 756 814 751 q 847 741 850 749 q 842 726 844 733 q 822 664 833 701 q 795 581 810 626 q 765 483 781 535 q 736 381 750 432 q 723 335 732 365 q 706 267 714 304 q 690 191 697 229 q 683 121 683 153 q 691 68 683 89 q 719 47 699 47 q 750 56 736 47 q 775 79 764 65 q 794 109 786 93 q 808 139 803 125 z "},"V":{"ha":751,"x_min":14,"x_max":1025,"o":"m 936 906 q 1001 886 978 906 q 1021 844 1025 867 q 1003 811 1018 826 q 974 796 989 796 q 951 803 958 796 q 938 819 943 811 q 926 829 935 825 q 908 833 917 833 q 849 797 875 833 q 801 703 824 761 q 759 569 779 644 q 718 417 739 494 q 673 264 697 339 q 619 131 649 189 q 551 36 589 72 q 463 0 513 0 q 357 40 393 0 q 308 144 321 81 q 301 285 296 207 q 319 438 306 363 q 348 576 332 513 q 374 675 364 640 q 385 707 378 694 q 220 707 297 714 q 96 664 143 700 q 53 588 53 633 q 64 553 53 563 q 85 543 75 543 q 108 548 93 543 q 133 553 124 553 q 163 539 149 553 q 176 503 176 525 q 159 460 176 479 q 111 440 142 440 q 83 446 100 440 q 51 465 67 451 q 25 504 36 479 q 14 568 14 529 q 18 610 14 588 q 33 657 22 633 q 62 703 43 681 q 108 743 81 725 q 201 783 151 771 q 306 797 251 794 q 415 793 360 799 q 526 779 471 788 q 515 743 521 761 q 503 707 508 725 q 483 633 497 689 q 453 504 468 578 q 426 350 438 431 q 413 202 414 269 q 428 91 413 135 q 485 47 444 47 q 547 84 519 47 q 599 181 575 121 q 644 319 622 242 q 688 476 665 396 q 734 634 710 557 q 788 772 758 711 q 854 869 818 832 q 936 906 890 906 z "},"C":{"ha":529,"x_min":14,"x_max":536,"o":"m 529 690 q 525 632 536 663 q 500 594 517 606 q 467 585 483 583 q 439 597 451 586 q 426 626 426 608 q 436 658 425 640 q 444 679 440 667 q 445 703 447 692 q 433 724 443 715 q 401 732 424 732 q 308 679 356 732 q 220 548 260 626 q 156 378 181 469 q 134 209 132 288 q 170 80 136 131 q 282 31 204 29 q 340 46 311 32 q 394 88 369 60 q 424 136 411 107 q 443 206 436 165 q 476 143 476 178 q 461 96 475 121 q 363 10 426 40 q 233 -19 300 -21 q 106 17 154 -18 q 35 109 57 53 q 15 237 14 165 q 37 383 17 308 q 94 528 57 457 q 179 654 131 599 q 285 744 228 710 q 406 779 343 779 q 481 759 444 779 q 529 690 518 739 z "},"G":{"ha":631,"x_min":11,"x_max":644,"o":"m 536 615 q 547 650 536 635 q 557 672 553 658 q 559 697 561 685 q 548 719 557 710 q 517 728 539 728 q 408 699 461 728 q 310 624 356 671 q 227 519 264 578 q 167 399 190 460 q 138 279 144 338 q 144 176 131 221 q 192 103 157 131 q 289 78 226 76 q 347 94 318 79 q 401 138 376 108 q 413 153 407 144 q 422 169 418 161 q 457 288 440 229 q 492 406 474 346 q 501 429 496 419 l 396 429 q 401 452 400 444 q 406 463 403 460 q 415 467 408 467 q 435 467 421 467 l 631 467 q 626 446 628 453 q 622 433 624 439 q 617 422 619 428 q 613 407 614 417 q 592 336 604 379 q 566 242 581 293 q 535 134 551 190 q 501 26 518 78 q 467 -69 485 -25 q 435 -142 450 -114 q 403 -185 424 -162 q 358 -226 383 -207 q 304 -256 333 -244 q 244 -268 275 -268 q 134 -237 167 -268 q 103 -168 101 -207 q 121 -112 104 -132 q 169 -93 138 -93 q 196 -98 186 -93 q 211 -110 206 -103 q 217 -126 217 -118 q 218 -137 218 -133 q 210 -176 218 -164 q 201 -203 201 -187 q 211 -225 200 -217 q 239 -233 222 -233 q 301 -203 278 -233 q 340 -117 325 -172 l 394 71 q 319 35 360 47 q 239 24 279 24 q 106 59 157 25 q 33 147 56 93 q 15 267 11 200 q 43 406 18 335 q 114 543 68 476 q 222 663 160 610 q 360 747 283 715 q 522 779 436 779 q 595 758 560 779 q 640 685 631 736 q 633 622 644 656 q 607 583 624 594 q 575 572 590 571 q 548 584 560 572 q 536 615 536 596 z "},"E":{"ha":554,"x_min":11,"x_max":518,"o":"m 417 635 q 422 649 418 643 q 429 663 425 656 q 436 714 454 693 q 389 731 424 731 q 309 701 346 731 q 256 631 272 672 q 249 545 239 590 q 310 468 258 500 q 343 472 322 469 q 384 474 364 475 q 420 466 404 474 q 438 442 436 458 q 422 413 439 424 q 383 397 406 401 q 336 394 360 393 q 300 399 313 394 q 199 342 238 378 q 144 266 161 307 q 131 184 126 225 q 156 109 135 143 q 217 54 178 75 q 311 35 257 33 q 416 78 372 36 q 471 210 460 119 q 497 178 489 194 q 506 147 504 163 q 484 77 507 110 q 424 22 461 44 q 338 -12 386 -1 q 239 -18 290 -22 q 108 22 158 -11 q 34 100 57 54 q 15 199 11 146 q 46 301 18 253 q 123 387 74 349 q 242 440 172 425 q 147 548 167 489 q 149 658 126 607 q 231 744 172 710 q 374 779 290 779 q 463 758 422 779 q 515 689 503 736 q 517 660 518 676 q 513 629 517 644 q 495 596 507 610 q 465 581 483 582 q 428 597 442 579 q 417 635 414 614 z "},"Q":{"ha":625,"x_min":14,"x_max":896,"o":"m 793 -87 q 811 -48 794 -60 q 847 -38 828 -36 q 881 -56 865 -40 q 894 -97 896 -71 q 881 -144 893 -125 q 851 -176 869 -164 q 808 -194 832 -189 q 763 -197 785 -199 q 650 -169 701 -193 q 553 -111 599 -144 q 465 -40 507 -78 q 382 29 424 -3 q 294 -16 340 0 q 194 -29 247 -32 q 92 8 132 -26 q 33 97 53 42 q 15 221 14 151 q 33 365 15 290 q 84 512 50 439 q 166 644 118 585 q 275 747 214 704 q 408 803 336 789 q 417 797 415 804 q 411 786 418 789 q 285 696 339 761 q 195 546 231 631 q 144 369 160 461 q 134 200 129 276 q 164 74 139 124 q 235 25 189 25 q 285 35 261 25 q 331 65 308 46 q 262 97 297 86 q 188 106 226 108 q 217 145 199 132 q 258 163 236 158 q 302 164 279 167 q 346 156 325 161 q 369 147 357 151 q 393 136 382 143 q 451 247 425 185 q 492 373 476 308 q 515 499 508 438 q 515 610 521 561 q 490 688 508 658 q 438 719 471 718 q 405 705 421 719 q 381 658 389 690 q 380 636 376 644 q 389 620 383 628 q 398 603 394 613 q 397 581 401 594 q 374 556 393 565 q 336 549 356 546 q 302 576 314 551 q 303 643 290 601 q 369 736 321 703 q 469 765 417 769 q 558 725 524 761 q 606 633 592 689 q 617 508 621 578 q 594 365 614 438 q 540 224 575 293 q 457 99 504 154 q 551 21 506 64 q 635 -60 596 -22 q 708 -125 675 -99 q 767 -153 742 -151 q 801 -136 800 -154 q 797 -114 801 -129 q 793 -87 793 -99 z "},"W":{"ha":1100,"x_min":14,"x_max":1374,"o":"m 1285 906 q 1349 887 1325 906 q 1369 844 1374 868 q 1351 811 1367 826 q 1321 796 1336 796 q 1299 803 1306 796 q 1286 819 1292 811 q 1274 829 1283 825 q 1257 833 1265 833 q 1197 797 1224 833 q 1149 703 1171 761 q 1108 569 1128 644 q 1067 417 1088 494 q 1022 264 1046 339 q 967 131 997 189 q 899 36 938 72 q 811 0 861 0 q 741 15 769 0 q 694 57 713 31 q 665 120 675 83 q 651 199 654 157 q 617 119 635 156 q 577 55 599 82 q 529 13 556 28 q 472 0 503 -1 q 367 46 404 3 q 317 155 331 89 q 307 301 303 221 q 324 458 311 381 q 354 603 338 536 q 383 708 371 669 q 219 707 296 714 q 94 664 143 700 q 51 588 51 633 q 63 553 51 563 q 85 543 74 543 q 107 548 92 543 q 132 553 122 553 q 161 539 147 553 q 175 503 175 525 q 158 460 175 479 q 110 440 142 440 q 83 446 99 440 q 51 465 67 451 q 25 504 36 479 q 14 568 14 529 q 18 611 14 588 q 33 658 22 635 q 61 703 43 681 q 107 743 79 725 q 201 783 150 771 q 305 797 251 794 q 415 793 358 799 q 526 779 471 788 l 514 742 q 491 656 506 717 q 462 517 476 594 q 437 358 447 440 q 428 206 426 275 q 446 93 429 138 q 503 49 463 49 q 547 72 526 49 q 585 133 567 94 q 620 224 603 172 q 654 332 638 275 q 669 441 660 386 q 690 544 679 496 q 710 631 700 592 q 726 694 719 669 q 743 735 735 724 q 766 749 751 746 q 805 751 781 751 q 867 754 829 750 q 861 740 864 747 q 857 726 858 732 q 836 651 851 708 q 805 517 821 593 q 776 359 789 442 q 763 207 764 276 q 778 93 763 138 q 833 49 793 49 q 895 85 868 49 q 947 183 922 122 q 992 320 971 243 q 1036 477 1014 397 q 1083 634 1058 557 q 1136 772 1107 711 q 1202 869 1165 832 q 1285 906 1239 906 z "},"Y":{"ha":790,"x_min":8,"x_max":1154,"o":"m 1071 903 q 1133 883 1113 903 q 1150 840 1154 863 q 1133 806 1147 821 q 1103 790 1118 790 q 1080 798 1088 790 q 1067 814 1072 806 q 1019 816 1053 836 q 941 751 985 796 q 849 645 897 706 q 760 527 801 585 q 689 424 718 469 q 653 364 660 379 q 624 290 638 329 q 599 211 611 251 q 556 63 579 146 q 496 -92 533 -19 q 400 -216 458 -165 q 251 -269 342 -267 q 105 -234 158 -272 q 30 -137 51 -196 q 17 -8 8 -78 q 56 122 25 61 q 135 224 86 182 q 246 267 185 265 q 309 247 288 268 q 346 192 331 226 q 298 195 321 196 q 253 190 275 194 q 147 142 189 178 q 83 60 104 107 q 59 -36 61 14 q 74 -128 57 -86 q 128 -197 92 -169 q 218 -224 164 -224 q 292 -199 258 -224 q 351 -133 325 -174 q 399 -43 378 -93 q 437 58 421 7 q 465 155 453 108 q 486 235 478 201 q 504 313 497 276 q 513 371 511 349 q 505 441 513 397 q 486 530 497 485 q 462 613 475 575 q 438 667 449 651 q 413 674 426 682 q 393 653 399 665 q 415 740 390 703 q 489 779 440 778 q 523 765 510 779 q 545 729 536 750 q 559 685 554 708 q 568 647 564 663 q 575 618 569 640 q 588 564 581 596 q 606 494 596 532 q 625 417 615 456 q 680 491 649 444 q 749 592 711 538 q 827 701 786 646 q 910 801 868 757 q 992 874 951 846 q 1071 903 1033 903 z "},"X":{"ha":1035,"x_min":11,"x_max":1328,"o":"m 1244 903 q 1306 883 1285 903 q 1324 840 1328 863 q 1306 806 1321 821 q 1275 790 1290 790 q 1253 798 1260 790 q 1240 814 1246 806 q 1199 825 1226 835 q 1142 792 1172 815 q 1086 743 1113 769 q 1047 704 1060 717 q 924 572 990 647 q 788 417 858 497 q 817 303 803 357 q 840 222 831 250 q 864 157 851 189 q 892 101 876 125 q 924 62 907 76 q 960 47 940 47 q 990 56 976 47 q 1015 79 1004 65 q 1033 109 1025 93 q 1049 139 1042 125 q 1065 147 1053 149 q 1088 146 1076 146 q 1064 93 1078 119 q 1031 46 1050 67 q 985 13 1011 25 q 929 0 960 0 q 862 14 892 0 q 809 51 832 28 q 768 105 786 74 q 738 172 750 136 q 720 230 731 192 q 697 314 710 268 q 575 183 635 244 q 463 75 515 121 q 319 -37 383 6 q 188 -83 256 -81 q 117 -70 150 -85 q 60 -26 83 -56 q 24 46 36 3 q 15 144 11 89 q 40 262 19 203 q 94 369 61 321 q 171 447 128 417 q 261 479 214 478 q 324 460 301 481 q 361 404 346 439 q 313 408 336 408 q 268 403 290 407 q 181 366 219 393 q 117 301 143 339 q 76 220 90 264 q 60 135 61 176 q 69 69 57 94 q 102 27 82 43 q 148 5 122 11 q 200 -1 174 -1 q 264 8 233 -1 q 324 35 294 18 q 385 76 354 51 q 451 129 417 100 q 563 235 504 174 q 683 368 622 297 q 664 442 674 406 q 647 509 654 478 q 633 565 639 540 q 622 600 626 589 q 615 626 618 613 q 610 653 613 640 q 603 673 607 665 q 592 681 599 681 q 574 673 585 681 q 558 657 564 665 q 563 699 558 678 q 577 739 567 721 q 606 768 588 757 q 651 779 624 779 q 685 765 672 779 q 708 729 699 750 q 722 685 717 708 q 731 647 726 663 q 746 585 733 635 q 774 474 758 536 q 908 632 843 556 q 1028 767 972 708 q 1073 811 1047 788 q 1126 856 1099 835 q 1185 890 1154 876 q 1244 903 1215 903 z "},"Z":{"ha":788,"x_min":8,"x_max":815,"o":"m 790 717 q 706 623 742 665 q 639 543 669 581 q 578 472 608 506 q 513 403 549 438 q 589 431 560 425 q 643 436 618 436 q 713 403 690 435 q 738 322 736 372 q 724 209 740 272 q 677 80 708 146 q 601 -49 646 14 q 502 -160 557 -111 q 383 -240 447 -210 q 251 -269 319 -269 q 103 -230 157 -269 q 28 -131 49 -190 q 17 -3 8 -72 q 57 126 26 67 q 137 226 88 186 q 246 268 186 267 q 308 249 286 269 q 346 192 331 228 q 297 197 321 197 q 253 192 274 196 q 147 144 189 179 q 82 62 104 108 q 58 -35 60 15 q 74 -126 57 -85 q 126 -195 90 -168 q 217 -222 163 -222 q 310 -197 263 -222 q 401 -131 357 -172 q 483 -36 444 -89 q 551 72 521 17 q 599 179 581 126 q 623 274 618 232 q 616 341 628 315 q 572 368 604 367 q 515 351 551 368 q 419 303 478 335 q 404 323 410 317 q 399 334 399 329 q 404 344 399 339 q 421 361 410 349 l 669 653 q 625 657 653 651 q 564 670 597 663 q 495 683 531 678 q 429 683 460 688 q 383 667 401 681 q 356 640 364 654 q 352 613 347 625 q 379 597 357 600 q 402 598 386 596 q 428 599 418 600 q 454 581 443 596 q 463 543 465 565 q 439 503 458 519 q 389 490 419 486 q 338 517 358 494 q 312 572 318 540 q 313 640 306 604 q 343 706 321 675 q 403 757 365 736 q 497 779 442 778 q 579 776 538 781 q 660 767 621 771 q 733 763 699 763 q 793 779 768 764 q 810 758 804 765 q 815 747 815 751 q 808 735 814 742 q 790 717 803 729 z "},"":{"ha":428,"x_min":-12,"x_max":460,"o":"m 292 569 q 256 533 257 558 q 269 473 254 508 q 310 394 285 438 q 357 303 336 350 q 386 208 378 257 q 375 115 394 160 q 300 31 353 63 q 172 0 247 0 q 113 6 142 0 q 60 26 83 13 q 19 61 36 40 q -4 110 1 82 q 4 192 -12 157 q 26 217 13 210 q 54 226 39 225 q 78 292 65 257 q 104 363 92 328 q 128 431 117 399 q 149 486 140 463 q 156 538 147 513 q 182 582 164 563 q 209 600 197 596 q 233 601 221 604 q 258 588 244 597 q 292 569 272 579 m 265 151 q 266 212 272 182 q 247 271 260 242 q 217 328 233 300 q 186 383 200 356 l 168 418 q 127 315 149 369 q 88 217 106 261 q 101 192 99 208 q 90 154 104 176 q 76 135 85 144 q 63 114 67 125 q 62 90 58 103 q 86 63 65 78 q 108 52 96 56 q 136 47 121 49 q 221 77 188 47 q 265 151 254 107 m 257 744 q 354 802 306 781 q 460 831 403 824 q 458 821 458 822 q 451 817 458 819 q 338 747 389 789 q 236 643 288 706 q 195 745 221 692 q 125 833 169 799 q 132 840 131 839 q 140 838 133 840 q 172 822 154 832 q 205 799 189 811 q 235 772 221 786 q 257 744 249 757 z "},".":{"ha":236,"x_min":54,"x_max":182,"o":"m 124 125 q 166 107 150 125 q 179 63 182 89 q 157 18 176 36 q 113 0 138 0 q 70 18 86 0 q 57 63 54 36 q 79 107 60 89 q 124 125 99 125 z "},",":{"ha":250,"x_min":54,"x_max":200,"o":"m 139 125 q 178 110 163 125 q 193 56 200 86 q 175 1 186 25 q 122 -78 154 -43 q 61 -128 89 -112 q 56 -107 57 -110 q 65 -92 54 -104 q 119 0 106 -47 q 82 20 96 3 q 71 63 68 38 q 93 107 74 89 q 139 125 113 125 z "},":":{"ha":311,"x_min":101,"x_max":296,"o":"m 172 226 q 214 208 197 226 q 228 163 231 189 q 206 118 225 136 q 160 100 186 100 q 118 118 135 100 q 104 163 101 136 q 126 208 107 189 q 172 226 146 226 m 238 458 q 279 440 263 458 q 293 396 296 422 q 271 351 290 369 q 225 332 251 332 q 183 351 200 332 q 169 396 167 369 q 192 440 172 422 q 238 458 211 458 z "},";":{"ha":340,"x_min":118,"x_max":326,"o":"m 268 458 q 310 440 293 458 q 324 396 326 422 q 301 351 321 369 q 256 332 282 332 q 214 351 231 332 q 200 396 197 369 q 222 440 203 422 q 268 458 242 458 m 203 226 q 242 211 226 226 q 257 157 264 188 q 239 103 250 126 q 185 24 218 58 q 125 -26 153 -11 q 119 -6 121 -8 q 129 10 118 -3 q 183 101 169 54 q 146 122 160 104 q 135 164 132 139 q 157 208 138 190 q 203 226 176 226 z "},"!":{"ha":318,"x_min":69,"x_max":422,"o":"m 285 718 q 304 756 293 744 q 332 772 315 768 q 371 775 349 775 q 422 779 393 775 q 385 667 410 738 q 333 517 361 597 q 274 354 304 436 q 221 206 244 272 q 207 176 213 185 q 193 164 201 167 q 170 163 185 161 q 131 163 156 164 q 165 290 146 218 q 206 437 185 361 q 247 586 226 513 q 285 718 268 660 m 139 125 q 181 107 165 125 q 194 63 197 89 q 172 18 192 36 q 128 0 153 0 q 86 18 103 0 q 72 63 69 36 q 94 107 75 89 q 139 125 114 125 z "},"/":{"ha":300,"x_min":-14,"x_max":425,"o":"m 318 864 q 329 893 324 885 q 345 903 335 901 q 374 903 356 906 q 425 901 393 901 q 333 642 375 768 q 251 389 290 515 q 175 134 213 263 q 99 -132 138 6 q 86 -156 94 -149 q 65 -164 78 -162 q 33 -164 53 -165 q -14 -162 14 -162 q 158 349 75 94 q 318 864 240 603 z "},"\"":{"ha":310,"x_min":138,"x_max":435,"o":"m 222 779 q 261 764 246 779 q 276 710 283 740 q 258 656 269 679 q 205 576 238 611 q 144 526 172 542 q 139 547 140 544 q 149 563 138 550 q 203 654 189 607 q 165 674 179 657 q 154 717 151 692 q 176 761 157 743 q 222 779 196 779 m 417 764 q 431 738 428 753 q 433 709 435 724 q 425 681 431 694 q 414 656 419 667 q 360 576 393 611 q 300 526 328 542 q 294 547 296 544 q 304 563 293 550 q 358 654 344 607 q 322 674 336 657 q 310 717 307 692 q 332 761 313 743 q 378 779 351 779 q 417 764 401 779 z "},"":{"ha":351,"x_min":175,"x_max":475,"o":"m 457 794 q 472 769 468 783 q 473 740 475 754 q 465 711 471 725 q 454 686 460 697 q 401 607 433 642 q 340 557 368 572 q 335 578 336 575 q 344 593 333 581 q 399 685 385 638 q 362 705 376 688 q 350 747 347 722 q 372 792 353 774 q 418 810 392 810 q 457 794 442 810 m 299 794 q 313 769 310 783 q 315 740 317 754 q 307 711 313 725 q 296 686 301 697 q 242 607 275 642 q 182 557 210 572 q 176 578 178 575 q 186 593 175 581 q 240 685 226 638 q 203 705 218 688 q 192 747 189 722 q 214 792 194 774 q 260 810 233 810 q 299 794 283 810 z "},"":{"ha":365,"x_min":185,"x_max":485,"o":"m 203 572 q 188 597 192 583 q 187 626 185 611 q 194 655 189 640 q 206 681 200 669 q 259 760 226 725 q 319 810 292 794 q 325 789 324 792 q 315 774 326 786 q 282 730 296 753 q 261 682 268 707 q 298 662 283 679 q 310 619 313 644 q 288 575 307 593 q 242 557 268 557 q 203 572 218 557 m 361 572 q 347 597 350 583 q 345 626 343 611 q 353 655 347 640 q 364 681 358 669 q 417 760 385 725 q 478 810 450 794 q 483 789 482 792 q 474 774 485 786 q 440 730 454 753 q 419 682 426 707 q 456 662 442 679 q 468 619 471 644 q 446 575 465 593 q 400 557 426 557 q 361 572 376 557 z "},"|":{"ha":322,"x_min":138,"x_max":204,"o":"m 204 904 l 204 -162 l 138 -162 l 138 904 l 204 904 z "},"#":{"ha":664,"x_min":86,"x_max":668,"o":"m 668 506 q 662 492 664 497 q 657 485 660 488 q 649 483 654 483 q 633 483 643 483 l 515 483 q 493 401 500 432 q 475 338 486 371 l 613 338 q 603 317 604 321 q 583 314 601 314 l 469 314 l 432 174 q 420 153 426 153 q 389 153 414 153 q 419 243 408 204 q 439 314 431 282 l 281 314 l 243 174 q 238 158 240 163 q 231 153 235 154 q 221 152 228 151 q 203 153 214 153 q 230 243 219 204 q 249 314 240 282 l 86 314 q 89 329 88 324 q 93 336 90 335 q 101 338 96 338 q 118 338 107 338 l 256 338 q 278 408 269 374 q 297 483 286 442 l 135 483 q 142 497 140 492 q 147 503 144 501 q 156 506 150 506 q 172 506 161 506 l 304 506 l 333 625 q 348 642 340 643 q 374 642 356 642 l 331 506 l 493 506 l 524 625 q 537 642 531 643 q 563 642 543 642 l 521 506 l 668 506 m 447 338 q 468 408 460 374 q 488 483 476 442 l 325 483 q 303 401 311 432 q 286 338 294 371 l 447 338 z "},"-":{"ha":658,"x_min":111,"x_max":617,"o":"m 614 342 q 616 327 617 329 q 603 317 615 325 q 543 288 576 300 q 474 270 510 276 q 401 262 438 264 q 335 263 365 260 q 280 274 306 268 q 229 284 254 281 q 176 285 204 288 q 114 274 149 283 q 112 291 111 289 q 125 301 113 293 q 175 328 147 317 q 232 347 203 340 q 290 357 261 354 q 343 358 318 360 q 412 345 381 353 q 474 333 443 338 q 538 328 504 328 q 614 342 571 329 z "},"$":{"ha":582,"x_min":6,"x_max":550,"o":"m 550 668 q 530 623 550 636 q 488 614 510 610 q 453 640 467 618 q 456 699 440 661 q 447 724 463 713 q 409 610 428 665 q 379 519 390 554 q 420 456 399 488 q 461 392 442 425 q 496 322 481 358 q 517 247 511 286 q 503 115 526 171 q 434 22 479 58 q 331 -32 389 -15 q 217 -46 274 -49 q 199 -44 210 -44 q 181 -95 188 -75 q 172 -122 175 -115 q 165 -137 168 -133 q 158 -142 163 -142 q 148 -143 154 -143 q 129 -143 142 -143 q 140 -107 132 -135 q 160 -37 149 -79 q 67 6 101 -25 q 19 73 32 36 q 11 149 6 110 q 38 218 17 188 q 90 266 58 249 q 164 276 122 283 q 122 205 138 244 q 107 128 107 165 q 123 58 107 90 q 175 13 139 26 q 207 117 190 61 q 240 228 224 174 q 272 333 257 283 q 299 419 288 382 q 242 515 268 468 q 210 610 217 561 q 217 674 206 643 q 253 728 228 706 q 315 765 278 751 q 400 779 353 779 l 410 779 q 433 851 424 821 q 444 888 442 881 q 454 907 449 901 q 476 915 463 915 q 510 917 490 914 q 494 867 507 908 q 463 769 482 826 q 503 751 486 763 q 531 725 519 739 q 545 699 540 714 q 550 668 550 683 m 232 1 q 297 13 264 1 q 353 49 329 25 q 390 110 378 74 q 396 194 403 146 q 371 285 389 243 q 329 368 353 328 q 302 281 317 328 q 272 186 288 235 q 240 90 256 138 q 213 3 225 43 q 222 2 218 3 q 232 1 226 1 m 329 646 q 336 613 332 629 q 347 582 340 597 q 371 656 358 617 q 396 733 383 694 q 340 706 356 731 q 329 646 324 682 z "},"%":{"ha":644,"x_min":126,"x_max":632,"o":"m 569 421 q 617 388 601 418 q 632 316 632 358 q 619 226 632 274 q 582 137 606 178 q 524 69 558 96 q 447 46 489 43 q 398 69 415 47 q 374 124 381 90 q 374 200 368 158 q 394 282 379 242 q 432 357 408 322 q 488 414 456 392 q 510 428 496 421 q 536 438 525 435 q 549 433 544 438 l 547 432 q 511 407 531 426 q 474 352 490 385 q 449 282 458 319 q 435 208 439 244 q 433 141 431 171 q 442 92 435 111 q 465 72 450 72 q 505 95 486 71 q 538 156 524 119 q 563 233 553 192 q 576 312 572 275 q 574 373 579 349 q 556 399 569 397 q 532 369 538 399 q 535 351 528 357 q 539 333 542 346 q 528 321 536 326 q 513 318 521 315 q 498 331 503 319 q 499 363 493 343 q 526 407 506 390 q 569 421 547 424 m 568 750 q 556 725 565 746 q 533 675 547 704 q 504 613 519 646 q 475 549 489 579 q 450 495 461 518 q 435 464 439 472 q 417 424 431 456 q 383 351 403 393 q 342 260 364 308 q 300 169 319 211 q 267 96 281 126 q 250 58 253 65 q 231 45 243 44 q 203 44 218 46 q 219 83 206 51 q 252 158 233 114 q 292 251 271 201 q 333 345 314 301 q 367 422 353 389 q 385 464 381 454 q 397 490 388 469 q 418 540 406 511 q 445 599 431 568 q 472 658 460 631 q 494 706 485 686 q 504 731 503 726 q 514 743 507 739 q 537 748 521 749 q 568 750 553 747 m 326 733 q 374 701 358 731 q 389 630 389 672 q 376 539 389 588 q 339 449 363 490 q 281 382 315 408 q 204 358 246 356 q 156 381 174 360 q 132 437 138 403 q 131 513 126 471 q 151 594 136 554 q 190 670 167 635 q 244 728 214 706 q 268 742 254 735 q 293 750 282 749 q 306 746 303 750 q 268 721 285 738 q 231 665 247 699 q 206 595 215 632 q 192 521 196 558 q 190 453 188 483 q 199 405 192 424 q 222 386 207 386 q 263 408 243 385 q 297 468 282 432 q 321 547 311 504 q 333 625 331 589 q 332 686 336 661 q 314 711 328 711 q 289 683 297 711 q 292 665 286 669 q 296 646 299 660 q 285 634 293 639 q 269 631 278 629 q 255 644 260 632 q 256 675 250 656 q 283 719 263 703 q 326 733 304 736 z "},"":{"ha":651,"x_min":50,"x_max":682,"o":"m 675 690 q 671 632 682 663 q 645 594 661 606 q 613 585 629 583 q 585 597 597 586 q 572 626 572 608 q 582 658 571 640 q 590 679 586 667 q 591 703 593 692 q 579 724 589 715 q 547 732 569 732 q 492 713 519 732 q 437 660 464 693 q 385 583 410 626 q 339 489 360 539 l 475 489 q 462 469 467 476 q 453 456 457 461 q 442 448 449 450 q 425 446 436 446 l 322 446 q 310 410 315 428 q 300 374 306 393 l 446 374 q 424 341 431 350 q 396 332 418 332 l 290 332 q 279 217 279 272 q 294 121 279 163 q 342 54 310 79 q 428 31 374 29 q 486 46 457 32 q 540 88 515 60 q 569 136 557 107 q 589 206 582 165 q 622 143 622 178 q 607 96 621 121 q 509 10 572 40 q 378 -19 446 -21 q 260 12 306 -18 q 190 90 214 42 q 162 201 165 139 q 171 332 158 264 l 50 332 q 69 363 63 351 q 94 374 76 374 l 179 374 q 190 410 185 393 q 203 446 196 428 l 79 446 q 99 477 92 465 q 124 489 106 489 l 221 489 q 283 600 247 547 q 361 692 318 653 q 452 756 404 732 q 551 779 500 779 q 627 759 590 779 q 675 690 664 739 z "},"":{"ha":550,"x_min":14,"x_max":547,"o":"m 286 258 q 372 233 332 253 q 444 188 411 213 q 502 137 476 163 q 547 93 528 111 q 497 63 515 72 q 463 58 479 54 q 430 79 447 63 q 383 125 413 96 q 323 183 351 157 q 263 215 294 208 q 196 133 235 161 q 100 97 157 104 q 31 113 49 92 q 26 162 14 133 q 80 219 39 190 q 188 258 121 247 q 215 332 203 297 q 239 401 228 367 l 100 401 q 119 425 113 415 q 143 435 126 435 l 249 435 q 275 532 263 482 q 306 642 288 582 q 326 676 314 668 l 240 676 q 249 704 247 701 q 271 707 251 707 l 422 707 q 413 670 418 688 q 401 638 407 653 q 372 530 385 579 q 347 435 360 481 l 485 435 q 472 419 476 425 q 464 408 468 413 q 453 403 460 404 q 436 401 447 401 l 338 401 q 315 332 326 367 q 286 258 303 297 m 72 133 q 126 161 101 136 q 167 215 150 186 q 115 204 142 217 q 70 176 88 192 q 51 147 53 160 q 72 133 49 133 z "},"":{"ha":524,"x_min":46,"x_max":504,"o":"m 465 229 q 481 238 469 239 q 504 238 493 238 q 409 128 476 165 q 256 90 342 90 q 210 94 231 90 q 195 44 203 69 q 181 -7 188 19 q 171 -25 176 -19 q 156 -32 165 -31 q 131 -32 146 -33 q 96 -31 117 -31 q 121 42 108 6 q 144 115 133 79 q 70 190 93 142 q 47 296 47 238 q 66 415 46 354 q 123 528 86 476 q 210 615 160 579 q 319 657 260 650 q 333 703 326 681 q 347 750 340 726 q 356 772 351 765 q 368 781 360 779 q 390 781 376 782 q 429 779 404 779 q 406 716 418 747 q 383 654 394 685 q 431 629 411 647 q 458 579 451 611 q 461 568 461 574 q 461 556 461 563 q 453 521 460 539 q 437 490 447 503 q 412 474 426 478 q 379 478 397 469 q 358 514 358 488 q 374 560 358 539 q 386 594 390 583 q 369 608 382 606 q 337 607 356 611 q 304 594 318 603 q 240 532 269 574 q 189 440 210 490 q 160 335 168 389 q 163 238 153 282 q 203 165 172 193 q 293 138 235 138 q 390 162 339 139 q 465 229 440 185 z "},"&":{"ha":646,"x_min":65,"x_max":646,"o":"m 646 467 q 615 370 646 404 q 528 324 583 336 q 561 257 554 292 q 560 188 568 222 q 533 121 553 153 q 485 65 513 89 q 394 14 450 31 q 279 1 339 -3 q 154 37 201 7 q 86 109 107 67 q 71 202 65 151 q 103 299 76 253 q 178 381 131 344 q 292 433 226 418 q 202 534 221 479 q 205 638 183 589 q 283 719 226 686 q 421 751 340 751 q 501 731 465 751 q 546 667 536 711 q 543 610 553 642 q 525 578 536 592 q 499 565 514 565 q 465 580 476 564 q 456 615 453 596 q 468 640 460 632 q 482 668 481 656 q 476 690 483 681 q 433 706 461 707 q 364 676 397 704 q 315 610 331 649 q 306 529 299 571 q 356 458 313 488 q 385 463 367 460 q 423 464 404 465 q 456 456 442 463 q 469 435 469 450 q 456 408 471 418 q 419 392 440 397 q 377 388 399 388 q 344 393 356 389 q 251 340 288 374 q 199 269 215 307 q 185 192 183 231 q 207 122 188 153 q 261 70 226 90 q 346 51 296 50 q 426 78 389 51 q 482 142 463 104 q 499 219 501 179 q 458 286 496 258 q 415 303 442 299 q 365 302 389 307 q 328 281 342 297 q 322 233 314 264 q 307 236 311 236 q 300 247 303 236 q 310 322 289 296 q 342 344 322 336 q 385 356 361 351 q 437 363 410 360 q 490 371 464 367 q 529 379 510 374 q 564 393 549 385 q 595 419 579 403 q 608 446 611 436 q 594 450 607 450 q 568 453 582 450 q 542 464 554 456 q 531 496 531 472 q 542 526 531 513 q 582 539 554 539 q 626 516 607 539 q 646 467 646 493 z "},"'":{"ha":250,"x_min":138,"x_max":283,"o":"m 222 779 q 261 764 246 779 q 276 710 283 740 q 258 656 269 679 q 205 576 238 611 q 144 526 172 542 q 139 547 140 544 q 149 563 138 550 q 203 654 189 607 q 165 674 179 657 q 154 717 151 692 q 176 761 157 743 q 222 779 196 779 z "},"(":{"ha":283,"x_min":32,"x_max":433,"o":"m 426 897 q 433 882 432 883 q 422 871 433 881 q 326 765 368 819 q 252 652 285 711 q 194 529 219 593 q 147 394 168 465 q 106 128 108 265 q 153 -139 104 -8 q 156 -155 158 -154 q 142 -167 154 -156 q 85 -29 110 -100 q 46 115 60 42 q 33 264 32 189 q 56 413 35 339 q 113 553 76 486 q 197 680 149 619 q 304 794 246 740 q 426 897 363 849 z "},")":{"ha":346,"x_min":-40,"x_max":361,"o":"m -33 -167 q -40 -151 -39 -153 q -29 -140 -40 -150 q 67 -35 25 -89 q 141 78 108 19 q 199 201 174 138 q 246 336 225 265 q 287 602 285 465 q 240 869 289 739 q 237 885 235 885 q 251 897 239 886 q 308 760 283 831 q 347 615 333 689 q 360 467 361 542 q 338 318 358 392 q 281 178 317 244 q 196 51 244 111 q 89 -64 147 -10 q -33 -167 31 -118 z "},"*":{"ha":529,"x_min":153,"x_max":571,"o":"m 563 608 q 568 583 571 597 q 558 564 565 569 q 529 554 549 557 q 490 558 510 551 q 426 574 461 568 q 375 586 392 581 q 406 542 385 572 q 451 472 426 513 q 465 444 461 457 q 465 425 468 431 q 445 409 458 414 q 425 407 432 404 q 403 426 414 410 q 390 461 393 442 q 374 528 383 493 q 361 579 364 563 q 337 528 354 564 q 299 449 319 493 q 279 422 290 433 q 263 410 268 410 q 240 418 249 410 q 228 433 231 426 q 236 465 226 447 q 263 496 246 483 q 313 546 288 519 q 354 586 339 572 q 301 578 339 582 q 210 568 263 575 q 177 569 192 565 q 160 576 163 572 q 156 603 153 590 q 167 619 160 617 q 197 631 176 628 q 233 626 217 633 q 299 611 265 618 q 353 600 333 604 q 320 642 342 614 q 275 711 299 671 q 263 740 265 726 q 260 757 260 753 q 281 775 269 771 q 299 776 293 779 q 322 758 310 774 q 338 722 335 743 q 352 657 343 690 q 367 606 361 624 q 388 656 371 621 q 429 736 404 692 q 447 762 438 751 q 461 772 456 772 q 486 767 478 775 q 497 751 494 758 q 490 720 500 736 q 464 690 481 704 q 415 640 440 665 q 374 600 389 614 q 427 607 389 603 q 518 618 465 611 q 549 617 536 619 q 563 608 561 614 z "},"+":{"ha":722,"x_min":103,"x_max":689,"o":"m 689 397 q 670 378 676 386 q 657 365 664 369 q 641 358 650 360 q 615 356 632 356 l 413 356 l 340 104 q 331 81 336 88 q 319 72 326 74 q 300 72 313 71 q 268 74 288 74 l 353 356 l 103 356 q 131 385 121 374 q 168 397 142 397 l 365 397 l 431 626 q 440 651 436 644 q 451 660 444 658 q 469 661 458 663 q 501 660 481 660 l 426 397 l 689 397 z "},"<":{"ha":472,"x_min":108,"x_max":453,"o":"m 254 386 q 281 342 268 369 q 306 286 294 315 q 324 227 317 257 q 332 174 331 197 q 330 159 332 161 q 318 150 328 157 q 230 291 290 231 q 108 392 169 351 q 291 512 213 449 q 431 661 369 575 q 440 669 438 669 q 453 668 442 669 q 374 517 422 583 q 254 386 325 450 z "},">":{"ha":444,"x_min":81,"x_max":425,"o":"m 279 436 q 252 480 265 453 q 228 536 239 507 q 210 595 217 565 q 201 649 203 625 q 203 663 201 661 q 215 672 206 665 q 303 531 243 592 q 425 431 364 471 q 242 310 321 374 q 103 161 164 247 q 94 153 96 153 q 81 154 92 153 q 160 306 111 239 q 279 436 208 372 z "},"=":{"ha":732,"x_min":115,"x_max":688,"o":"m 688 471 q 668 447 675 460 q 654 424 661 435 q 639 407 647 414 q 614 400 631 400 l 469 400 l 410 400 l 160 400 q 176 422 169 410 q 190 444 183 433 q 204 463 196 456 q 225 471 213 471 l 424 471 l 525 471 l 688 471 m 643 331 q 624 307 631 319 q 610 284 617 294 q 594 267 603 274 q 569 260 586 260 l 425 260 l 365 260 l 115 260 q 132 281 125 269 q 145 304 139 293 q 160 323 151 315 q 181 331 168 331 l 379 331 l 481 331 l 643 331 z "},"":{"ha":503,"x_min":108,"x_max":490,"o":"m 490 344 q 474 306 479 321 q 463 285 469 292 q 446 276 457 278 q 410 274 435 274 l 108 274 q 124 310 119 296 q 135 331 129 324 q 151 342 140 339 q 185 344 161 344 l 490 344 z "},"":{"ha":589,"x_min":108,"x_max":560,"o":"m 560 344 q 544 306 549 321 q 533 285 539 292 q 515 276 526 278 q 479 274 504 274 l 108 274 q 124 310 119 296 q 135 331 129 324 q 151 342 140 339 q 185 344 161 344 l 560 344 z "},"@":{"ha":819,"x_min":51,"x_max":764,"o":"m 760 228 q 728 139 764 181 q 632 66 692 97 q 497 17 572 35 q 347 0 421 -1 q 194 28 256 1 q 99 100 133 56 q 58 201 65 144 q 67 316 51 257 q 119 431 82 375 q 213 533 157 488 q 343 606 269 578 q 506 638 417 635 q 668 608 611 642 q 744 523 725 575 q 752 408 764 471 q 707 290 740 344 q 625 195 674 235 q 522 150 576 156 l 521 150 l 519 150 l 518 150 l 510 150 q 460 172 475 153 q 442 221 444 192 q 392 169 419 189 q 333 150 364 150 q 272 176 292 150 q 250 242 253 203 q 260 328 247 282 q 296 413 272 374 q 351 479 319 453 q 419 506 383 506 q 489 461 471 506 l 489 463 q 499 488 494 481 q 513 497 504 494 q 535 498 521 499 q 574 500 550 497 q 570 490 572 496 q 567 479 568 483 q 553 433 560 456 q 539 388 546 410 q 526 338 535 372 q 511 269 517 304 q 508 208 506 235 q 529 181 510 181 q 592 215 561 183 q 644 294 622 247 q 674 394 665 340 q 669 496 682 449 q 621 575 657 543 q 517 611 585 607 q 384 592 443 615 q 281 530 325 569 q 209 439 238 490 q 169 333 181 388 q 163 224 157 278 q 194 129 169 171 q 262 60 218 88 q 371 32 306 33 q 492 46 431 31 q 606 87 554 61 q 694 144 658 113 q 738 206 729 175 q 738 215 739 214 q 735 216 738 217 q 726 216 732 215 q 713 224 721 217 q 707 244 701 233 q 724 258 713 254 q 746 256 735 263 q 760 228 757 250 m 346 181 q 388 202 368 181 q 424 257 408 224 q 451 328 440 290 q 464 399 461 365 q 460 453 467 432 q 433 475 453 475 q 394 453 414 475 q 358 399 375 432 q 330 328 342 365 q 315 257 318 290 q 318 202 311 224 q 346 181 325 181 z "},"[":{"ha":411,"x_min":28,"x_max":615,"o":"m 615 889 q 609 873 610 874 q 593 869 608 872 l 433 854 q 272 358 343 604 q 136 -146 200 111 l 290 -162 q 302 -165 303 -164 q 299 -181 301 -167 l 28 -172 q 102 97 65 -32 q 176 352 139 226 q 253 606 214 478 q 338 872 293 733 l 615 889 z "},"]":{"ha":336,"x_min":-126,"x_max":461,"o":"m -126 -181 q -120 -165 -121 -165 q -104 -161 -119 -164 l 56 -146 q 217 351 146 104 q 353 854 288 597 l 199 871 q 187 874 186 872 q 190 889 188 875 l 461 881 q 387 611 424 740 q 313 356 350 482 q 235 103 275 231 q 151 -164 196 -25 l -126 -181 z "},"\\":{"ha":486,"x_min":64,"x_max":503,"o":"m 396 -124 q 235 392 318 138 q 64 903 153 646 q 111 904 92 903 q 143 904 131 906 q 164 896 156 903 q 176 872 172 889 q 253 606 215 735 q 329 351 290 478 q 410 99 368 225 q 503 -161 453 -28 q 452 -163 471 -161 q 423 -163 433 -165 q 407 -153 413 -161 q 396 -124 401 -144 z "},"_":{"ha":574,"x_min":1,"x_max":557,"o":"m 557 0 q 541 -38 546 -24 q 530 -60 536 -53 q 513 -69 524 -67 q 476 -71 501 -71 l 1 -71 q 17 -35 13 -49 q 28 -13 22 -21 q 44 -3 33 -6 q 78 0 54 0 l 557 0 z "},"{":{"ha":353,"x_min":21,"x_max":510,"o":"m 94 472 q 172 540 149 494 q 209 638 196 585 q 233 747 222 692 q 273 842 244 801 q 356 903 301 883 q 510 906 410 922 q 496 893 497 893 q 478 893 494 893 q 398 866 424 893 q 360 797 372 839 q 339 706 347 756 q 311 608 331 656 q 253 521 292 560 q 139 464 214 482 q 225 402 200 438 q 251 325 250 367 q 235 238 251 283 q 198 147 218 193 q 159 58 178 101 q 137 -22 140 15 q 151 -90 133 -60 q 221 -137 168 -119 q 235 -144 232 -140 q 244 -157 238 -147 q 97 -111 146 -140 q 35 -44 49 -82 q 33 40 21 -6 q 67 132 44 85 q 114 226 89 179 q 150 315 139 274 q 152 392 161 357 q 96 451 143 428 q 87 463 86 458 q 94 472 88 467 z "},"}":{"ha":510,"x_min":0,"x_max":489,"o":"m 415 342 q 338 274 361 319 q 301 176 314 229 q 276 67 288 122 q 237 -28 265 13 q 154 -89 208 -69 q 0 -92 100 -108 q 14 -79 13 -79 q 32 -79 15 -79 q 112 -52 86 -79 q 150 17 138 -25 q 171 108 163 58 q 199 206 179 158 q 257 293 218 254 q 371 350 296 332 q 285 412 310 376 q 259 489 260 447 q 275 576 258 531 q 312 667 292 621 q 351 756 332 713 q 373 836 369 799 q 358 903 376 874 q 289 951 340 933 q 275 958 278 954 q 265 971 272 961 q 413 925 364 954 q 475 858 461 896 q 477 774 489 819 q 443 682 465 729 q 396 588 421 635 q 360 499 371 540 q 358 422 349 457 q 414 363 367 386 q 423 351 424 356 q 415 342 422 347 z "},"^":{"ha":613,"x_min":93,"x_max":628,"o":"m 411 774 q 258 688 333 721 q 93 644 182 654 q 94 657 93 654 q 103 664 94 660 q 281 766 201 704 q 439 918 361 828 q 470 848 453 885 q 510 776 488 811 q 563 711 533 742 q 628 660 592 681 q 615 650 617 651 q 601 651 614 649 q 551 672 579 658 q 497 702 524 685 q 448 738 471 719 q 411 774 425 757 z "},"`":{"ha":233,"x_min":142,"x_max":279,"o":"m 233 933 q 229 857 231 897 q 232 776 228 817 q 247 698 236 736 q 279 629 258 660 q 263 628 269 629 q 251 628 256 628 q 241 632 246 629 q 229 642 236 635 q 173 738 190 682 q 144 846 156 793 q 149 876 142 864 q 169 897 156 888 q 200 914 183 906 q 233 933 217 922 z "},"":{"ha":360,"x_min":40,"x_max":393,"o":"m 178 -26 q 158 -65 169 -53 q 131 -80 147 -76 q 92 -83 114 -83 q 40 -87 69 -83 q 77 24 53 -46 q 130 175 101 94 q 188 338 158 256 q 242 486 218 419 q 256 516 250 507 q 269 528 261 525 q 292 529 278 531 q 332 529 307 528 q 297 402 317 474 q 257 255 278 331 q 215 106 236 179 q 178 -26 194 32 m 324 567 q 281 585 297 567 q 268 629 265 603 q 290 674 271 656 q 335 692 310 692 q 376 674 360 692 q 390 629 393 656 q 368 585 388 603 q 324 567 349 567 z "},"":{"ha":804,"x_min":13,"x_max":776,"o":"m 776 669 q 756 624 776 638 q 715 615 736 611 q 680 641 693 619 q 682 700 667 663 q 675 724 688 713 q 631 735 663 735 q 576 719 594 735 q 554 675 557 703 l 556 669 q 554 661 554 667 q 556 647 554 653 q 590 548 563 594 q 648 454 617 501 q 707 357 679 407 q 743 249 735 307 q 729 116 753 172 q 660 23 706 60 q 558 -31 615 -14 q 443 -44 500 -47 q 350 -26 388 -40 q 221 -44 289 -47 q 99 -12 144 -40 q 33 53 54 15 q 15 134 13 92 q 36 211 17 176 q 90 265 56 246 q 168 278 124 285 q 122 194 138 242 q 113 105 107 147 q 149 33 119 63 q 236 3 178 4 q 301 15 268 3 q 358 52 333 28 q 395 113 382 76 q 401 196 408 149 q 365 312 393 258 q 306 415 338 365 q 248 513 275 465 q 214 611 221 561 q 222 676 210 644 q 258 730 233 707 q 321 767 283 753 q 406 781 358 781 q 467 772 442 781 q 510 751 492 764 q 563 773 533 765 q 628 781 592 781 q 710 763 679 781 q 757 726 740 746 q 772 700 767 715 q 776 669 776 685 m 622 196 q 586 312 614 258 q 527 415 558 365 q 469 513 496 465 q 436 611 443 561 q 463 710 428 667 q 447 728 460 721 q 408 735 433 735 q 346 710 364 735 q 333 647 328 685 q 368 548 340 594 q 427 454 396 501 q 485 357 458 407 q 521 249 513 307 q 503 104 533 164 q 419 8 472 44 q 438 5 428 6 q 458 3 447 4 q 523 15 490 3 q 580 52 556 28 q 617 113 604 76 q 622 196 629 149 z "},"":{"ha":867,"x_min":11,"x_max":1176,"o":"m 1093 903 q 1155 883 1133 903 q 1172 840 1176 863 q 1154 806 1169 821 q 1124 790 1139 790 q 1101 798 1108 790 q 1089 814 1094 806 q 1040 816 1075 836 q 962 751 1006 796 q 870 645 918 706 q 781 527 822 585 q 710 424 739 469 q 674 364 681 379 q 660 330 667 347 q 647 293 654 313 l 821 293 q 806 274 811 282 q 795 260 800 265 q 783 252 790 254 q 763 250 775 250 l 633 250 q 627 231 631 240 q 621 211 624 221 q 616 195 618 203 q 611 179 614 188 l 788 179 q 772 159 778 167 q 761 146 767 151 q 748 138 756 140 q 728 136 740 136 l 599 136 q 557 0 581 71 q 497 -130 533 -71 q 406 -228 460 -189 q 274 -269 351 -268 q 123 -234 181 -272 q 38 -137 65 -196 q 13 -10 11 -79 q 38 119 14 60 q 108 220 63 179 q 215 263 154 261 q 278 244 256 265 q 315 188 300 224 q 222 188 264 196 q 119 140 158 175 q 65 58 81 104 q 54 -37 49 13 q 83 -129 60 -87 q 145 -197 106 -171 q 239 -224 185 -224 q 326 -188 288 -224 q 393 -99 364 -153 q 444 17 422 -46 q 482 136 467 79 l 314 136 q 338 167 329 156 q 367 179 346 179 l 493 179 q 501 208 497 194 q 507 235 504 222 q 511 250 510 246 l 349 250 q 372 281 364 269 q 401 293 381 293 l 522 293 q 533 371 533 344 q 526 440 533 396 q 508 529 519 483 q 483 613 496 575 q 460 667 469 651 q 435 674 449 682 q 414 653 421 665 q 436 747 411 715 q 510 779 461 778 q 544 765 531 779 q 566 729 557 750 q 580 685 575 708 q 589 647 585 663 q 597 617 590 639 q 610 563 603 594 q 628 494 618 532 q 647 417 638 456 q 702 491 671 444 q 771 592 733 538 q 849 701 808 646 q 932 801 890 757 q 1015 874 974 846 q 1093 903 1056 903 z "},"":{"ha":265,"x_min":111,"x_max":328,"o":"m 218 808 q 298 776 268 808 q 328 700 328 744 q 296 625 328 656 q 218 594 264 594 q 139 625 167 594 q 111 700 111 656 q 142 776 111 744 q 218 808 174 808 m 218 618 q 278 644 254 618 q 301 700 301 671 q 278 757 301 733 q 218 781 254 781 q 162 757 186 781 q 138 699 138 733 q 158 643 138 668 q 218 618 178 618 z "},"":{"ha":326,"x_min":142,"x_max":463,"o":"m 211 779 q 253 761 238 779 q 267 717 269 743 q 244 672 264 690 q 200 654 225 654 q 158 672 174 654 q 144 717 142 690 q 167 761 147 743 q 211 779 186 779 m 404 779 q 447 761 431 779 q 460 717 463 743 q 438 672 457 690 q 393 654 418 654 q 351 672 367 654 q 338 717 335 690 q 360 761 340 743 q 404 779 379 779 z "},"":{"ha":232,"x_min":136,"x_max":274,"o":"m 182 933 q 215 914 199 922 q 246 897 232 906 q 267 876 260 888 q 271 846 274 864 q 242 738 260 793 q 186 642 225 682 q 174 632 179 635 q 164 628 169 629 q 152 628 158 628 q 136 629 146 629 q 168 698 157 660 q 183 776 179 736 q 186 857 188 817 q 182 933 185 897 z "},"":{"ha":746,"x_min":103,"x_max":711,"o":"m 539 285 q 562 257 553 261 q 586 253 571 253 l 586 240 l 525 240 q 494 268 504 247 l 415 392 q 401 410 408 406 q 379 411 394 414 q 374 401 374 411 l 374 268 q 382 258 374 258 q 399 253 393 254 q 421 253 406 253 l 424 253 l 424 240 l 288 240 l 288 256 l 314 260 q 322 272 322 263 l 322 568 q 314 576 322 576 q 299 580 304 579 q 288 581 294 581 l 288 599 l 422 600 q 496 577 465 600 q 526 514 526 554 q 505 456 526 478 q 456 422 483 433 q 455 418 454 422 q 458 410 456 414 l 539 285 m 383 432 q 449 451 425 432 q 472 513 472 469 q 452 563 472 544 q 393 581 432 581 l 383 581 q 375 577 376 581 q 374 564 374 574 l 374 436 q 375 433 374 433 q 383 432 376 432 m 406 706 q 525 682 469 706 q 622 617 581 658 q 688 521 664 576 q 711 401 711 465 q 688 285 711 340 q 623 190 664 231 q 527 124 582 149 q 410 100 472 100 q 291 124 347 100 q 193 190 235 149 q 127 285 151 231 q 103 400 103 339 q 127 519 103 464 q 192 617 151 575 q 288 682 233 658 q 406 706 343 706 m 406 126 q 513 148 464 126 q 599 207 563 169 q 656 294 636 244 q 676 401 676 344 q 656 509 676 458 q 600 598 636 560 q 515 658 564 636 q 410 681 467 681 q 303 658 353 681 q 217 599 254 636 q 160 512 181 561 q 139 408 139 463 q 160 299 139 350 q 216 209 181 247 q 300 149 251 171 q 406 126 349 126 z "},"":{"ha":746,"x_min":103,"x_max":711,"o":"m 538 267 q 543 288 540 276 q 549 311 546 300 l 560 311 l 549 236 q 490 213 521 221 q 429 206 458 206 q 280 255 333 206 q 226 390 226 304 q 240 467 226 429 q 279 533 253 504 q 344 580 306 563 q 432 597 382 597 q 494 591 468 597 q 540 578 521 585 q 542 576 542 578 l 558 507 l 547 507 l 535 539 q 528 549 532 544 q 491 572 517 560 q 432 583 465 583 q 372 567 399 583 q 326 525 344 551 q 299 465 308 499 q 289 394 289 431 q 297 328 289 360 q 321 274 304 297 q 365 238 338 251 q 431 224 392 224 q 484 232 463 224 q 524 251 506 240 q 538 267 533 261 m 406 704 q 525 681 469 704 q 622 616 581 657 q 688 519 664 575 q 711 400 711 464 q 688 284 711 339 q 623 188 664 229 q 527 123 582 147 q 410 99 472 99 q 291 123 347 99 q 193 188 235 147 q 127 283 151 229 q 103 399 103 338 q 127 518 103 463 q 192 615 151 574 q 288 681 233 657 q 406 704 343 704 m 406 125 q 513 147 464 125 q 599 206 563 168 q 656 293 636 243 q 676 400 676 343 q 656 508 676 457 q 600 597 636 558 q 515 657 564 635 q 410 679 467 679 q 303 657 353 679 q 217 597 254 635 q 160 510 181 560 q 139 407 139 461 q 160 297 139 349 q 216 208 181 246 q 300 147 251 169 q 406 125 349 125 z "},"":{"ha":643,"x_min":36,"x_max":619,"o":"m 36 0 q 47 32 43 19 q 54 51 50 44 q 66 60 58 58 q 89 63 74 63 l 494 63 q 483 29 486 42 q 476 10 481 17 q 464 2 472 4 q 438 0 456 0 l 36 0 m 619 419 q 606 386 610 399 q 596 367 601 374 q 581 359 590 361 q 549 357 571 357 l 357 357 l 290 104 q 261 126 272 119 q 245 140 250 133 q 241 158 240 147 q 247 189 242 168 l 293 357 l 47 357 q 61 389 57 376 q 70 408 65 401 q 85 417 75 415 q 114 419 94 419 l 310 419 l 378 672 q 405 651 394 658 q 421 638 415 644 q 426 621 426 631 q 421 592 426 611 l 374 419 l 619 419 z "},"~":{"ha":636,"x_min":111,"x_max":617,"o":"m 614 342 q 616 327 617 329 q 603 317 615 325 q 543 288 576 300 q 474 270 510 276 q 401 262 438 264 q 335 263 365 260 q 280 274 306 268 q 229 284 254 281 q 176 285 204 288 q 114 274 149 283 q 112 291 111 289 q 125 301 113 293 q 175 328 147 317 q 232 347 203 340 q 290 357 261 354 q 343 358 318 360 q 412 345 381 353 q 474 333 443 338 q 538 328 504 328 q 614 342 571 329 z "},"":{"ha":508,"x_min":108,"x_max":490,"o":"m 490 344 q 474 306 479 321 q 463 285 469 292 q 446 276 457 278 q 410 274 435 274 l 108 274 q 124 310 119 296 q 135 331 129 324 q 151 342 140 339 q 185 344 161 344 l 490 344 z "},"":{"ha":554,"x_min":114,"x_max":636,"o":"m 636 763 q 628 737 631 746 q 623 724 626 728 q 610 719 619 719 q 583 718 601 718 l 558 718 l 326 49 q 317 30 322 36 q 303 22 311 24 q 283 22 294 21 q 254 22 271 22 l 494 718 l 418 718 l 185 42 q 167 22 178 21 q 129 22 156 22 l 264 414 q 121 519 136 418 q 128 588 114 551 q 222 714 149 667 q 396 763 294 763 l 636 763 z "},"":{"ha":664,"x_min":103,"x_max":649,"o":"m 503 436 q 476 480 489 453 q 451 536 463 507 q 433 595 440 565 q 425 649 426 625 q 427 663 425 661 q 439 672 429 665 q 527 531 467 592 q 649 431 588 471 q 466 310 544 374 q 326 161 388 247 q 317 153 319 153 q 304 154 315 153 q 383 306 335 239 q 503 436 432 372 m 301 436 q 274 480 288 453 q 250 536 261 507 q 232 595 239 565 q 224 649 225 625 q 226 663 224 661 q 238 672 228 665 q 326 531 265 592 q 447 431 386 471 q 265 310 343 374 q 125 161 186 247 q 116 153 118 153 q 103 154 114 153 q 182 306 133 239 q 301 436 231 372 z "},"":{"ha":669,"x_min":108,"x_max":654,"o":"m 254 386 q 281 342 268 369 q 306 286 294 315 q 324 227 317 257 q 332 174 331 197 q 330 159 332 161 q 318 150 328 157 q 230 291 290 231 q 108 392 169 351 q 291 512 213 449 q 431 661 369 575 q 440 669 438 669 q 453 668 442 669 q 374 517 422 583 q 254 386 325 450 m 456 386 q 483 342 469 369 q 507 286 496 315 q 525 227 518 257 q 533 174 532 197 q 531 159 533 161 q 519 150 529 157 q 431 291 492 231 q 310 392 371 351 q 492 512 414 449 q 632 661 571 575 q 641 669 639 669 q 654 668 643 669 q 575 517 624 583 q 456 386 526 450 z "},"":{"ha":214,"x_min":0,"x_max":0,"o":""},"":{"ha":407,"x_min":101,"x_max":381,"o":"m 360 581 q 372 547 365 561 q 379 524 378 533 q 376 506 381 514 q 356 488 371 497 q 308 460 329 472 q 266 439 286 449 q 226 419 246 429 q 183 396 206 408 q 253 331 214 361 q 326 272 293 300 q 342 253 340 261 q 338 235 343 244 q 323 214 333 225 q 301 188 313 203 q 217 261 264 222 q 133 340 169 300 q 109 400 101 372 q 154 453 117 428 q 208 489 183 474 q 256 517 232 504 q 303 544 279 531 q 354 576 326 558 q 360 581 357 578 z "},"":{"ha":392,"x_min":108,"x_max":388,"o":"m 129 188 q 117 221 124 207 q 110 244 111 235 q 113 263 108 254 q 133 281 118 271 q 181 308 160 296 q 223 329 203 319 q 263 349 243 339 q 306 372 283 360 q 235 438 275 407 q 163 496 196 468 q 147 515 149 507 q 151 533 146 524 q 166 554 156 543 q 188 581 176 565 q 272 507 225 546 q 356 428 319 468 q 380 368 388 396 q 335 315 372 340 q 281 279 306 294 q 233 251 257 264 q 186 224 210 238 q 135 192 163 210 q 129 188 132 190 z "},"":{"ha":356,"x_min":-1,"x_max":296,"o":"m 83 125 q 122 110 107 125 q 138 56 144 86 q 119 1 131 25 q 66 -78 99 -43 q 6 -128 33 -112 q 0 -107 1 -110 q 10 -92 -1 -104 q 43 -48 29 -71 q 64 0 57 -25 q 26 20 40 3 q 15 63 13 38 q 38 107 18 89 q 83 125 57 125 m 278 110 q 292 84 289 99 q 294 55 296 69 q 286 26 292 40 q 275 1 281 13 q 222 -78 254 -43 q 161 -128 189 -112 q 156 -107 157 -110 q 165 -92 154 -104 q 219 0 206 -47 q 183 20 197 3 q 171 63 168 38 q 193 107 174 89 q 239 125 213 125 q 278 110 263 125 z "},"":{"ha":196,"x_min":-3,"x_max":143,"o":"m 82 125 q 121 110 106 125 q 136 56 143 86 q 118 1 129 25 q 65 -78 97 -43 q 4 -128 32 -112 q -1 -107 0 -110 q 8 -92 -3 -104 q 42 -48 28 -71 q 63 0 56 -25 q 25 20 39 3 q 14 63 11 38 q 36 107 17 89 q 82 125 56 125 z "},"":{"ha":224,"x_min":168,"x_max":310,"o":"m 186 560 q 172 585 175 571 q 170 613 168 599 q 178 642 172 628 q 189 668 183 657 q 242 747 210 713 q 303 797 275 782 q 308 776 307 779 q 299 761 310 774 q 265 717 279 740 q 244 669 251 694 q 281 649 267 667 q 293 607 296 632 q 271 563 290 581 q 225 544 251 544 q 186 560 201 544 z "},"":{"ha":210,"x_min":157,"x_max":299,"o":"m 281 781 q 295 755 292 769 q 297 726 299 740 q 289 697 294 711 q 278 672 283 683 q 224 593 257 628 q 164 543 192 558 q 158 564 160 561 q 168 579 157 567 q 222 671 208 624 q 185 691 200 674 q 174 733 171 708 q 196 778 176 760 q 242 796 215 796 q 281 781 265 796 z "},"":{"ha":418,"x_min":160,"x_max":353,"o":"m 264 447 q 328 420 304 447 q 347 353 353 393 q 315 287 344 314 q 247 260 285 260 q 184 287 208 260 q 164 353 160 314 q 197 420 167 393 q 264 447 226 447 z "},"":{"ha":628,"x_min":54,"x_max":569,"o":"m 124 125 q 166 107 150 125 q 179 63 182 89 q 157 18 176 36 q 113 0 138 0 q 70 18 86 0 q 57 63 54 36 q 79 107 60 89 q 124 125 99 125 m 318 125 q 360 107 344 125 q 374 63 376 89 q 351 18 371 36 q 307 0 332 0 q 265 18 281 0 q 251 63 249 36 q 274 107 254 89 q 318 125 293 125 m 511 125 q 553 107 538 125 q 567 63 569 89 q 544 18 564 36 q 500 0 525 0 q 458 18 474 0 q 444 63 442 36 q 467 107 447 89 q 511 125 486 125 z "},"a":{"ha":524,"x_min":-3,"x_max":576,"o":"m 538 139 q 554 147 542 149 q 576 146 567 146 q 553 92 567 119 q 519 44 539 65 q 475 11 500 24 q 418 0 450 -1 q 337 34 361 3 q 308 113 313 65 q 228 31 272 63 q 135 0 185 0 q 36 42 68 0 q 1 147 4 83 q 17 283 -3 210 q 74 420 36 357 q 164 526 113 483 q 274 568 215 568 q 342 549 315 568 q 385 499 369 531 q 401 539 393 528 q 422 553 408 550 q 459 556 436 556 q 519 560 482 556 q 515 543 517 553 q 510 526 513 533 q 488 453 499 490 q 465 381 476 415 q 452 334 461 365 q 435 266 443 303 q 420 190 426 229 q 413 119 414 151 q 420 67 413 88 q 449 47 428 47 q 479 56 465 47 q 504 79 493 65 q 524 109 515 93 q 538 139 532 125 m 157 47 q 224 82 192 47 q 281 169 256 117 q 324 283 307 222 q 345 397 342 344 q 338 485 349 450 q 296 519 326 519 q 234 485 265 519 q 176 397 203 450 q 131 283 150 344 q 106 169 111 222 q 113 82 101 117 q 157 47 124 47 z "},"n":{"ha":544,"x_min":-31,"x_max":597,"o":"m 558 138 q 574 147 561 149 q 597 146 586 146 q 574 92 588 119 q 540 44 560 65 q 494 11 519 24 q 438 0 469 -1 q 363 28 388 3 q 331 94 339 54 q 329 182 324 133 q 345 278 335 231 q 367 368 356 326 q 385 438 379 410 q 384 476 390 461 q 361 492 378 492 q 310 467 338 492 q 256 408 283 443 q 206 332 229 372 q 165 261 182 292 q 138 164 151 213 q 108 64 124 115 q 89 26 100 38 q 61 12 78 15 q 22 8 44 8 q -31 4 -1 8 q 45 256 10 133 q 117 503 81 378 q 134 540 125 529 q 158 554 143 551 q 194 556 172 557 q 253 560 217 556 l 243 526 q 225 466 235 497 q 207 406 215 435 q 249 465 226 436 q 298 517 272 494 q 351 554 324 540 q 408 568 379 568 q 446 560 428 568 q 476 535 464 551 q 493 492 488 518 q 493 432 499 467 q 483 386 492 419 q 465 310 475 353 q 446 222 454 268 q 435 137 438 175 q 439 74 432 99 q 468 49 446 49 q 499 57 485 49 q 524 78 513 65 q 543 108 535 92 q 558 138 551 124 z "},"i":{"ha":218,"x_min":0,"x_max":271,"o":"m 232 138 q 248 147 236 149 q 271 146 260 146 q 249 92 263 119 q 215 44 235 65 q 169 11 194 24 q 113 0 144 -1 q 44 22 68 1 q 10 75 19 43 q 1 147 0 107 q 10 226 3 186 q 26 305 17 267 q 44 372 36 343 q 62 435 53 403 q 81 500 71 468 q 97 539 89 528 q 118 553 104 550 q 155 556 132 557 q 214 560 178 556 q 209 543 211 553 q 204 526 207 533 q 182 453 193 490 q 160 381 171 415 q 147 334 156 365 q 129 266 138 303 q 115 190 121 229 q 108 119 108 151 q 115 67 107 88 q 143 47 122 47 q 174 56 160 47 q 199 78 188 65 q 218 108 210 92 q 232 138 226 124 m 182 611 q 140 629 157 611 q 126 674 124 647 q 149 718 129 700 q 194 736 168 736 q 236 718 219 736 q 250 674 253 700 q 228 629 247 647 q 182 611 208 611 z "},"":{"ha":910,"x_min":126,"x_max":894,"o":"m 569 421 q 617 388 601 418 q 632 316 632 358 q 619 226 632 274 q 582 137 606 178 q 524 69 558 96 q 447 46 489 43 q 398 69 415 47 q 374 124 381 90 q 374 200 368 158 q 394 282 379 242 q 432 357 408 322 q 488 414 456 392 q 510 428 496 421 q 536 438 525 435 q 549 433 544 438 l 547 432 q 511 407 531 426 q 474 352 490 385 q 449 282 458 319 q 435 208 439 244 q 433 141 431 171 q 442 92 435 111 q 465 72 450 72 q 505 95 486 71 q 538 156 524 119 q 563 233 553 192 q 576 312 572 275 q 574 373 579 349 q 556 399 569 397 q 532 369 538 399 q 535 351 528 357 q 539 333 542 346 q 528 321 536 326 q 513 318 521 315 q 498 331 503 319 q 499 363 493 343 q 526 407 506 390 q 569 421 547 424 m 568 750 q 556 725 565 746 q 533 675 547 704 q 504 613 519 646 q 475 549 489 579 q 450 495 461 518 q 435 464 439 472 q 417 424 431 456 q 383 351 403 393 q 342 260 364 308 q 300 169 319 211 q 267 96 281 126 q 250 58 253 65 q 231 45 243 44 q 203 44 218 46 q 219 83 206 51 q 252 158 233 114 q 292 251 271 201 q 333 345 314 301 q 367 422 353 389 q 385 464 381 454 q 397 490 388 469 q 418 540 406 511 q 445 599 431 568 q 472 658 460 631 q 494 706 485 686 q 504 731 503 726 q 514 743 507 739 q 537 748 521 749 q 568 750 553 747 m 326 733 q 374 701 358 731 q 389 630 389 672 q 376 539 389 588 q 339 449 363 490 q 281 382 315 408 q 204 358 246 356 q 156 381 174 360 q 132 437 138 403 q 131 513 126 471 q 151 594 136 554 q 190 670 167 635 q 244 728 214 706 q 268 742 254 735 q 293 750 282 749 q 306 746 303 750 q 268 721 285 738 q 231 665 247 699 q 206 595 215 632 q 192 521 196 558 q 190 453 188 483 q 199 405 192 424 q 222 386 207 386 q 263 408 243 385 q 297 468 282 432 q 321 547 311 504 q 333 625 331 589 q 332 686 336 661 q 314 711 328 711 q 289 683 297 711 q 292 665 286 669 q 296 646 299 660 q 285 634 293 639 q 269 631 278 629 q 255 644 260 632 q 256 675 250 656 q 283 719 263 703 q 326 733 304 736 m 832 421 q 879 388 864 418 q 894 316 894 358 q 881 226 894 274 q 844 137 868 178 q 786 69 821 96 q 710 46 751 43 q 660 69 678 47 q 637 124 643 90 q 636 200 631 158 q 656 282 642 242 q 694 357 671 322 q 750 414 718 392 q 773 428 758 421 q 799 438 788 435 q 811 433 807 438 l 810 432 q 774 407 793 426 q 737 352 753 385 q 711 282 721 319 q 697 208 701 244 q 695 141 693 171 q 705 92 697 111 q 728 72 713 72 q 767 95 749 71 q 801 156 786 119 q 825 233 815 192 q 838 312 835 275 q 837 373 842 349 q 818 399 832 397 q 794 369 800 399 q 797 351 790 357 q 801 333 804 346 q 791 321 799 326 q 775 318 783 315 q 760 331 765 319 q 761 363 756 343 q 789 407 768 390 q 832 421 810 424 z "},"":{"ha":619,"x_min":328,"x_max":611,"o":"m 597 808 q 572 825 586 814 q 544 850 557 836 q 519 879 531 864 q 500 908 507 894 q 416 847 457 869 q 328 817 375 824 q 329 828 329 826 q 335 832 329 829 q 430 905 388 860 q 517 1017 472 950 q 531 963 522 990 q 552 908 540 935 q 578 856 564 881 q 611 814 593 832 q 606 807 607 808 q 597 808 604 806 z "},"":{"ha":722,"x_min":-3,"x_max":775,"o":"m 735 139 q 752 147 740 149 q 775 146 764 146 q 679 37 747 75 q 526 0 611 -1 q 399 33 446 0 q 332 117 351 65 q 244 33 293 65 q 136 0 194 0 q 38 41 69 -1 q 1 146 6 83 q 17 282 -3 208 q 75 419 38 356 q 164 526 113 483 q 274 568 215 568 q 367 540 332 568 q 417 468 401 513 q 503 540 454 513 q 610 568 553 567 q 694 547 664 568 q 733 492 725 525 q 725 419 740 458 q 672 344 710 379 q 574 285 635 310 q 433 257 514 260 q 428 177 426 215 q 446 110 431 139 q 490 64 461 81 q 563 47 518 47 q 611 53 586 47 q 660 71 636 60 q 703 99 683 82 q 735 139 722 117 m 576 507 q 498 421 535 479 q 442 294 461 363 q 553 324 510 299 q 621 383 597 350 q 649 449 644 415 q 642 501 653 482 q 617 519 633 517 q 576 507 600 522 m 157 47 q 223 82 190 47 q 281 169 256 117 q 324 283 307 222 q 345 397 340 344 q 339 485 350 450 q 299 519 328 519 q 236 485 268 519 q 177 397 204 450 q 131 283 150 344 q 107 169 113 222 q 113 82 101 117 q 157 47 124 47 z "},"":{"ha":499,"x_min":1,"x_max":551,"o":"m 513 139 q 529 147 517 149 q 551 146 542 146 q 524 83 539 108 q 491 40 510 57 q 445 10 472 22 q 381 -10 418 -1 q 337 -96 364 -53 q 273 -174 310 -139 q 191 -232 236 -210 q 93 -254 146 -254 q 45 -244 64 -254 q 16 -219 26 -235 q 3 -185 6 -204 q 8 -147 1 -167 q 51 -86 21 -112 q 119 -40 81 -60 q 198 -8 157 -21 q 272 15 239 6 q 302 115 296 79 q 292 160 308 151 q 235 153 276 169 q 122 99 193 138 q 107 119 113 113 q 101 131 101 126 q 107 140 101 135 q 124 157 113 146 l 385 436 q 345 438 363 433 q 313 447 328 442 q 282 458 297 453 q 249 464 267 464 q 172 427 204 464 q 117 339 140 390 q 79 233 94 288 q 51 144 64 179 q 50 142 51 143 q 34 138 49 138 q 13 139 19 139 q 15 143 17 143 q 38 219 26 175 q 65 310 50 263 q 101 403 81 357 q 147 485 121 449 q 207 545 174 522 q 283 568 240 568 q 334 559 310 568 q 385 543 358 550 q 441 538 411 536 q 508 561 471 540 q 525 540 519 547 q 531 528 531 533 q 524 517 531 524 q 506 499 518 511 q 419 407 457 447 q 347 332 381 367 q 283 265 314 297 q 215 200 251 233 q 337 238 292 235 q 402 219 382 242 q 420 151 422 197 q 397 39 418 106 q 442 52 425 44 q 472 70 460 60 q 492 97 483 81 q 513 139 501 114 m 104 -207 q 156 -187 132 -206 q 199 -142 179 -168 q 232 -88 218 -117 q 253 -36 246 -60 q 197 -53 228 -43 q 138 -79 167 -64 q 85 -115 108 -94 q 53 -161 63 -136 q 60 -194 46 -178 q 104 -207 75 -210 m 325 643 q 283 745 310 692 q 213 833 257 799 q 221 840 219 839 q 229 838 222 840 q 260 822 243 832 q 293 799 276 811 q 324 772 310 786 q 346 744 338 757 q 443 803 394 781 q 549 831 492 825 q 547 821 546 822 q 540 817 547 819 q 427 747 478 789 q 325 643 376 706 z "},"":{"ha":636,"x_min":111,"x_max":617,"o":"m 614 792 q 616 777 617 779 q 603 767 615 775 q 543 738 576 750 q 474 720 510 726 q 401 712 438 714 q 335 713 365 710 q 280 724 306 718 q 229 734 254 731 q 176 735 204 738 q 114 724 149 733 q 112 741 111 739 q 125 751 113 743 q 175 778 147 767 q 232 797 203 790 q 290 807 261 804 q 343 808 318 810 q 412 795 381 803 q 474 783 443 788 q 538 778 504 778 q 614 792 571 779 z "},"":{"ha":569,"x_min":64,"x_max":542,"o":"m 542 385 q 530 347 533 361 q 522 325 526 332 q 508 316 517 318 q 482 314 500 314 l 322 314 l 269 314 l 64 314 q 76 350 72 336 q 83 372 79 364 q 96 382 88 379 q 121 385 104 385 l 283 385 l 336 385 l 542 385 m 272 254 q 314 235 297 254 q 328 190 331 217 q 306 146 325 164 q 260 128 286 128 q 218 146 235 128 q 204 190 201 164 q 226 235 207 217 q 272 254 246 254 m 335 446 q 292 465 308 446 q 279 510 276 483 q 301 554 282 536 q 346 572 321 572 q 388 554 371 572 q 401 510 404 536 q 379 465 399 483 q 335 446 360 446 z "},"":{"ha":725,"x_min":58,"x_max":692,"o":"m 549 167 q 563 131 560 143 q 515 128 533 131 q 485 128 497 126 q 463 140 472 131 q 440 174 453 150 l 358 331 l 200 175 q 165 142 176 153 q 140 126 153 131 q 110 120 128 121 q 58 119 93 119 l 329 383 l 213 613 q 203 631 207 624 q 197 646 200 639 q 239 648 221 646 q 271 649 257 650 q 295 640 285 647 q 315 615 306 633 l 399 451 l 549 599 q 583 631 569 619 q 612 648 597 643 q 644 654 626 653 q 692 656 663 656 l 428 399 l 549 167 z "},"":{"ha":507,"x_min":57,"x_max":486,"o":"m 244 -82 q 167 -67 203 -82 q 106 -29 131 -53 q 69 24 81 -6 q 64 88 57 54 q 108 173 72 131 q 189 256 144 215 q 278 336 233 297 q 348 410 322 375 q 372 474 374 444 q 321 528 369 504 q 373 541 344 540 q 425 531 401 542 q 463 500 449 521 q 475 449 478 479 q 447 373 472 410 q 387 301 422 336 q 313 233 351 267 q 243 163 274 199 q 197 91 213 128 q 190 15 181 54 q 215 -22 197 -7 q 267 -36 233 -36 q 342 -12 314 -36 q 381 42 371 11 q 384 104 392 74 q 350 150 376 135 q 398 176 374 172 q 442 172 422 181 q 474 145 461 164 q 486 101 486 126 q 466 27 486 61 q 412 -31 446 -7 q 334 -69 378 -56 q 244 -82 290 -82 m 411 571 q 369 590 385 571 q 356 635 353 608 q 378 679 358 661 q 422 697 397 697 q 464 679 447 697 q 478 635 481 661 q 456 590 475 608 q 411 571 436 571 z "},"":{"ha":279,"x_min":72,"x_max":297,"o":"m 289 -125 q 228 -203 297 -178 q 99 -222 174 -222 q 74 -212 74 -222 q 96 -203 72 -203 q 190 -181 144 -203 q 231 -119 238 -158 q 174 -72 226 -92 q 184 -52 174 -69 q 213 0 194 -35 l 253 0 l 217 -65 q 289 -125 281 -82 z "},"":{"ha":626,"x_min":6,"x_max":900,"o":"m 799 -92 q 815 -51 799 -64 q 849 -40 831 -39 q 884 -56 868 -42 q 900 -97 900 -71 q 888 -146 900 -125 q 856 -181 875 -167 q 818 -197 839 -192 q 774 -203 797 -203 q 659 -187 710 -204 q 567 -142 608 -169 q 492 -81 525 -114 q 428 -17 458 -47 q 369 34 397 13 q 311 60 342 56 q 228 -42 275 -7 q 113 -85 181 -78 q 28 -66 50 -92 q 21 -5 6 -40 q 87 66 36 31 q 219 115 138 101 q 273 261 249 182 q 321 424 297 340 l 151 424 q 175 454 167 443 q 204 465 183 465 l 332 465 q 365 585 349 526 q 396 697 381 643 q 408 724 401 714 q 421 740 414 733 l 317 740 q 322 765 321 757 q 326 775 324 772 q 335 778 329 778 q 354 778 342 778 l 540 778 q 527 735 533 756 q 514 692 521 714 q 483 582 499 639 q 453 465 468 525 l 625 465 q 610 446 615 454 q 599 433 604 438 q 585 426 593 428 q 565 424 578 424 l 440 424 q 394 260 418 340 q 340 114 369 181 q 447 86 401 108 q 530 34 493 64 q 597 -30 567 4 q 656 -92 628 -64 q 715 -140 685 -121 q 781 -160 744 -160 q 801 -156 793 -160 q 810 -140 810 -151 q 804 -119 810 -133 q 799 -92 799 -104 m 78 -39 q 144 -7 114 -37 q 193 60 174 24 q 130 47 163 63 q 76 12 97 32 q 51 -24 54 -8 q 78 -39 49 -40 z "},"":{"ha":374,"x_min":136,"x_max":417,"o":"m 182 933 q 215 914 199 922 q 246 897 232 906 q 267 876 260 888 q 271 846 274 864 q 242 738 260 793 q 186 642 225 682 q 174 632 179 635 q 164 628 169 629 q 152 628 158 628 q 136 629 146 629 q 168 698 157 660 q 183 776 179 736 q 186 857 188 817 q 182 933 185 897 m 325 933 q 358 914 342 922 q 389 897 375 906 q 410 876 403 888 q 414 846 417 864 q 385 738 403 793 q 329 642 368 682 q 317 632 322 635 q 307 628 313 629 q 295 628 301 628 q 279 629 289 629 q 311 698 300 660 q 326 776 322 736 q 329 857 331 817 q 325 933 328 897 z "},"":{"ha":1024,"x_min":8,"x_max":1149,"o":"m 1149 778 q 1140 753 1144 761 q 1131 742 1136 746 q 1117 740 1125 739 q 1094 740 1108 740 q 1079 742 1083 740 q 1076 733 1076 738 q 1074 726 1075 729 q 1053 663 1065 701 q 1026 579 1040 625 q 997 482 1013 533 q 967 381 981 431 q 953 334 963 365 q 936 266 944 303 q 921 190 928 229 q 914 119 914 151 q 922 67 914 88 q 950 47 929 47 q 981 56 967 47 q 1006 79 994 65 q 1025 109 1017 93 q 1039 139 1033 125 q 1056 147 1043 149 q 1078 146 1068 146 q 1054 92 1068 119 q 1021 44 1040 65 q 976 11 1001 24 q 919 0 950 -1 q 851 22 875 1 q 816 75 826 43 q 807 147 806 107 q 815 226 808 186 q 832 305 822 267 q 850 372 842 343 q 855 389 853 381 q 860 406 857 397 q 848 406 854 406 q 833 407 842 407 l 713 407 q 608 231 663 319 q 494 73 554 143 q 367 -41 433 3 q 225 -83 300 -85 q 89 -42 138 -83 q 24 62 40 0 q 20 196 8 124 q 65 331 32 268 q 147 435 97 393 q 257 479 197 478 q 319 460 297 481 q 357 404 342 439 q 308 408 332 408 q 264 403 285 407 q 159 353 203 390 q 90 267 115 315 q 60 165 65 218 q 68 66 54 111 q 117 -8 82 21 q 208 -37 151 -37 q 306 1 256 -37 q 410 103 357 40 q 517 247 463 167 q 624 407 571 326 l 567 407 q 575 430 572 422 q 581 441 578 438 q 593 444 585 444 q 621 444 601 444 l 649 444 q 694 512 672 479 q 739 576 717 544 q 803 664 775 626 q 863 726 831 701 q 935 765 894 751 q 1039 778 976 778 l 1149 778 m 871 444 q 909 581 890 515 q 943 694 928 646 q 961 735 953 722 q 923 719 940 729 q 888 689 906 708 q 851 640 871 669 q 806 569 831 611 q 770 508 788 540 q 733 444 753 476 l 871 444 m 968 843 q 953 842 958 842 q 944 844 949 842 q 936 849 940 846 q 924 858 932 853 q 975 884 951 867 q 1018 923 999 901 q 1054 969 1038 944 q 1083 1017 1071 993 q 1097 994 1089 1007 q 1110 969 1104 982 q 1117 945 1115 957 q 1110 925 1118 933 q 1046 874 1081 897 q 968 843 1011 850 z "},"":{"ha":1024,"x_min":8,"x_max":1149,"o":"m 1149 778 q 1140 753 1144 761 q 1131 742 1136 746 q 1117 740 1125 739 q 1094 740 1108 740 q 1079 742 1083 740 q 1076 733 1076 738 q 1074 726 1075 729 q 1053 663 1065 701 q 1026 579 1040 625 q 997 482 1013 533 q 967 381 981 431 q 953 334 963 365 q 936 266 944 303 q 921 190 928 229 q 914 119 914 151 q 922 67 914 88 q 950 47 929 47 q 981 56 967 47 q 1006 79 994 65 q 1025 109 1017 93 q 1039 139 1033 125 q 1056 147 1043 149 q 1078 146 1068 146 q 1054 92 1068 119 q 1021 44 1040 65 q 976 11 1001 24 q 919 0 950 -1 q 851 22 875 1 q 816 75 826 43 q 807 147 806 107 q 815 226 808 186 q 832 305 822 267 q 850 372 842 343 q 855 389 853 381 q 860 406 857 397 q 848 406 854 406 q 833 407 842 407 l 713 407 q 608 231 663 319 q 494 73 554 143 q 367 -41 433 3 q 225 -83 300 -85 q 89 -42 138 -83 q 24 62 40 0 q 20 196 8 124 q 65 331 32 268 q 147 435 97 393 q 257 479 197 478 q 319 460 297 481 q 356 404 340 439 q 308 408 332 408 q 264 403 285 407 q 159 353 203 390 q 90 267 115 315 q 60 165 65 218 q 68 66 54 111 q 117 -8 82 21 q 208 -37 151 -37 q 306 1 256 -37 q 410 103 357 40 q 517 247 463 167 q 624 407 571 326 l 567 407 q 575 430 572 422 q 581 441 578 438 q 593 444 585 444 q 621 444 601 444 l 649 444 q 694 512 672 479 q 739 576 717 544 q 803 664 775 626 q 863 726 831 701 q 935 765 894 751 q 1039 778 976 778 l 1149 778 m 871 444 q 909 581 890 515 q 943 694 928 646 q 961 735 953 722 q 923 719 940 729 q 888 689 906 708 q 851 640 871 669 q 806 569 831 611 q 770 508 788 540 q 733 444 753 476 l 871 444 m 893 925 q 885 945 885 933 q 892 969 886 957 q 905 994 897 982 q 918 1017 913 1007 q 949 969 932 993 q 985 923 965 944 q 1028 884 1004 901 q 1079 858 1051 867 q 1058 844 1063 847 q 1033 843 1053 840 q 956 874 990 850 q 893 925 921 897 z "},"":{"ha":1024,"x_min":8,"x_max":1149,"o":"m 1149 778 q 1140 753 1144 761 q 1131 742 1136 746 q 1117 740 1125 739 q 1094 740 1108 740 q 1079 742 1083 740 q 1076 733 1076 738 q 1074 726 1075 729 q 1053 663 1065 701 q 1026 579 1040 625 q 997 482 1013 533 q 967 381 981 431 q 953 334 963 365 q 936 266 944 303 q 921 190 928 229 q 914 119 914 151 q 922 67 914 88 q 950 47 929 47 q 981 56 967 47 q 1006 79 994 65 q 1025 109 1017 93 q 1039 139 1033 125 q 1056 147 1043 149 q 1078 146 1068 146 q 1054 92 1068 119 q 1021 44 1040 65 q 976 11 1001 24 q 919 0 950 -1 q 851 22 875 1 q 816 75 826 43 q 807 147 806 107 q 815 226 808 186 q 832 305 822 267 q 850 372 842 343 q 855 389 853 381 q 860 406 857 397 q 848 406 854 406 q 833 407 842 407 l 713 407 q 608 231 663 319 q 494 73 554 143 q 367 -41 433 3 q 225 -83 300 -85 q 89 -42 138 -83 q 24 62 40 0 q 20 196 8 124 q 65 331 32 268 q 147 435 97 393 q 257 479 197 478 q 319 460 297 481 q 356 404 340 439 q 308 408 332 408 q 264 403 285 407 q 159 353 203 390 q 90 267 115 315 q 60 165 65 218 q 68 66 54 111 q 117 -8 82 21 q 208 -37 151 -37 q 306 1 256 -37 q 410 103 357 40 q 517 247 463 167 q 624 407 571 326 l 567 407 q 575 430 572 422 q 581 441 578 438 q 593 444 585 444 q 621 444 601 444 l 649 444 q 694 512 672 479 q 739 576 717 544 q 803 664 775 626 q 863 726 831 701 q 935 765 894 751 q 1039 778 976 778 l 1149 778 m 871 444 q 909 581 890 515 q 943 694 928 646 q 961 735 953 722 q 923 719 940 729 q 888 689 906 708 q 851 640 871 669 q 806 569 831 611 q 770 508 788 540 q 733 444 753 476 l 871 444 m 1107 808 q 1081 825 1096 814 q 1053 850 1067 836 q 1028 879 1040 864 q 1010 908 1017 894 q 926 847 967 869 q 838 817 885 824 q 839 828 839 826 q 844 832 839 829 q 940 905 897 860 q 1026 1017 982 950 q 1041 963 1032 990 q 1062 908 1050 935 q 1088 856 1074 881 q 1121 814 1103 832 q 1115 807 1117 808 q 1107 808 1114 806 z "},"":{"ha":1024,"x_min":8,"x_max":1197,"o":"m 739 576 q 803 664 775 626 q 863 727 831 701 q 935 766 894 753 q 1039 779 976 779 l 1149 779 q 1140 755 1144 763 q 1131 744 1136 747 q 1117 741 1125 740 q 1094 742 1108 742 l 1079 742 q 1076 733 1076 738 q 1074 726 1075 729 q 1053 664 1065 701 q 1026 581 1040 626 q 997 483 1013 535 q 967 381 981 432 q 953 335 963 365 q 936 267 944 304 q 921 192 928 231 q 914 121 914 153 q 922 69 914 89 q 950 49 929 49 q 981 58 967 49 q 1006 80 994 67 q 1025 109 1017 93 q 1039 139 1033 125 q 1056 147 1043 149 q 1078 146 1068 146 q 1054 93 1068 119 q 1021 45 1040 67 q 976 11 1001 24 q 919 0 950 -1 q 851 22 875 1 q 816 75 826 43 q 807 147 806 107 q 815 226 808 186 q 832 305 822 267 q 850 372 842 343 q 855 390 853 381 q 860 407 857 399 l 833 407 l 713 407 q 608 231 663 319 q 494 73 554 143 q 367 -41 433 3 q 225 -83 300 -85 q 89 -40 138 -82 q 24 63 40 1 q 20 197 8 125 q 65 332 32 269 q 147 437 97 394 q 257 481 197 479 q 319 461 297 482 q 357 404 342 440 q 264 404 306 413 q 159 354 203 392 q 90 268 115 317 q 60 165 65 219 q 68 66 54 111 q 117 -8 82 21 q 210 -37 153 -37 q 308 2 257 -37 q 410 105 358 42 q 517 247 463 168 q 624 407 571 326 l 567 407 q 575 430 572 422 q 582 441 578 438 q 594 444 586 444 q 621 444 603 444 l 649 444 q 694 513 672 479 q 739 576 717 546 m 871 444 q 909 581 890 515 q 943 696 928 647 q 961 735 954 724 q 923 720 940 731 q 888 690 906 710 q 851 642 871 671 q 806 569 831 613 q 770 509 788 540 q 733 444 753 478 l 871 444 m 1194 935 q 1197 924 1197 925 q 1186 917 1196 924 q 1144 897 1168 904 q 1095 884 1121 889 q 1044 878 1069 879 q 996 878 1018 876 q 957 887 975 882 q 921 894 939 892 q 883 894 903 896 q 839 886 864 893 q 837 898 836 897 q 846 906 838 899 q 922 939 878 928 q 1001 947 967 950 q 1050 938 1028 943 q 1094 928 1072 932 q 1140 926 1117 925 q 1194 935 1164 926 z "},"":{"ha":1028,"x_min":8,"x_max":1172,"o":"m 740 576 q 803 664 775 626 q 863 727 832 701 q 935 766 894 753 q 1039 779 976 779 l 1150 779 q 1142 755 1146 763 q 1132 744 1138 747 q 1117 741 1126 740 q 1094 742 1108 742 l 1079 742 q 1074 726 1076 731 q 1053 664 1065 701 q 1027 581 1042 626 q 997 483 1013 535 q 967 381 982 432 q 953 335 963 365 q 936 267 944 304 q 922 191 928 229 q 915 121 915 153 q 922 69 914 89 q 950 49 929 49 q 981 58 967 49 q 1006 80 994 67 q 1025 109 1017 93 q 1040 139 1033 125 q 1056 147 1043 149 q 1078 146 1069 146 q 1056 93 1069 119 q 1022 45 1042 67 q 976 11 1001 24 q 919 0 951 -1 q 851 22 875 1 q 817 75 828 43 q 808 147 807 107 q 817 226 810 186 q 833 305 824 267 q 851 372 843 343 q 856 390 854 381 q 861 407 858 399 l 835 407 l 714 407 q 610 231 664 319 q 495 73 556 143 q 367 -41 435 3 q 225 -83 300 -85 q 89 -40 138 -82 q 24 63 40 1 q 20 197 8 125 q 65 332 32 269 q 147 436 97 394 q 257 479 197 478 q 320 460 299 482 q 357 404 342 439 q 264 404 307 413 q 160 354 203 392 q 92 268 117 317 q 61 165 67 219 q 69 66 56 111 q 118 -8 83 21 q 210 -37 153 -37 q 308 1 257 -37 q 411 103 358 40 q 518 247 464 167 q 625 407 572 326 l 568 407 q 576 430 574 422 q 582 441 578 438 q 594 444 586 444 q 621 444 603 444 l 650 444 q 696 513 674 479 q 740 576 718 546 m 871 444 q 910 581 890 515 q 944 694 929 646 q 963 735 953 722 q 924 719 942 731 q 890 690 907 708 q 852 641 872 671 q 807 569 832 611 q 772 509 789 540 q 735 444 754 478 l 871 444 m 1114 975 q 1156 957 1140 975 q 1169 913 1172 939 q 1147 867 1167 886 q 1103 849 1128 849 q 1061 867 1078 849 q 1047 913 1044 886 q 1069 957 1050 939 q 1114 975 1089 975 m 929 849 q 888 867 904 849 q 874 913 871 886 q 896 957 876 939 q 942 975 915 975 q 983 957 967 975 q 997 913 1000 939 q 975 867 994 886 q 929 849 956 849 z "},"":{"ha":1024,"x_min":8,"x_max":1149,"o":"m 1149 779 q 1140 754 1144 763 q 1131 743 1136 746 q 1117 741 1125 740 q 1094 742 1108 742 l 1079 742 q 1076 733 1076 738 q 1074 726 1075 729 q 1053 663 1065 701 q 1026 579 1040 625 q 997 483 1013 533 q 967 381 981 432 q 953 334 963 365 q 936 266 944 303 q 921 190 928 229 q 914 119 914 151 q 922 67 914 88 q 950 47 929 47 q 981 56 967 47 q 1006 79 994 65 q 1025 109 1017 93 q 1039 139 1033 125 q 1056 147 1043 149 q 1078 146 1068 146 q 1054 92 1068 119 q 1021 44 1040 65 q 976 11 1001 24 q 919 0 950 -1 q 851 22 875 1 q 816 75 826 43 q 807 147 806 107 q 815 226 808 186 q 832 305 822 267 q 850 372 842 343 q 855 389 853 381 q 860 407 857 397 l 833 407 l 713 407 q 608 231 663 319 q 494 73 554 143 q 367 -41 433 3 q 225 -83 300 -85 q 89 -40 138 -82 q 24 63 40 1 q 20 197 8 125 q 65 331 32 269 q 147 435 97 393 q 257 479 197 478 q 319 460 297 481 q 357 404 342 439 q 308 408 332 408 q 264 403 285 407 q 159 354 203 392 q 90 267 115 317 q 60 165 65 218 q 68 66 54 111 q 117 -8 82 21 q 208 -37 151 -37 q 306 1 256 -37 q 410 103 357 40 q 517 247 463 167 q 624 407 571 326 l 567 407 q 575 430 572 422 q 581 441 578 438 q 593 444 585 444 q 621 444 601 444 l 649 444 q 694 512 672 479 q 739 576 717 544 q 803 664 775 626 q 863 727 831 701 q 935 766 894 753 q 1039 779 976 779 l 1149 779 m 871 444 q 909 581 890 515 q 943 694 928 646 q 961 735 953 722 q 923 719 940 729 q 888 689 906 708 q 851 640 871 669 q 806 569 831 611 q 770 508 788 540 q 733 444 753 476 l 871 444 m 974 857 q 963 906 961 879 l 963 913 q 972 942 965 929 q 989 967 979 956 q 1039 989 1011 989 l 1044 989 q 1082 967 1068 986 q 1094 918 1097 946 q 1093 911 1094 914 q 1067 857 1089 879 q 1018 835 1044 835 l 1013 835 q 974 857 989 836 m 988 906 q 994 876 986 890 q 1017 864 1004 864 l 1019 864 q 1051 878 1038 864 q 1069 913 1065 894 l 1069 918 q 1063 947 1071 933 q 1040 960 1053 960 l 1036 960 q 1006 946 1019 960 q 988 911 992 932 l 988 906 z "},"":{"ha":1340,"x_min":8,"x_max":1308,"o":"m 1203 603 q 1208 617 1204 611 q 1215 629 1211 624 q 1222 682 1239 661 q 1175 699 1208 699 q 1094 669 1132 699 q 1040 599 1057 640 q 1034 512 1024 557 q 1096 436 1044 467 q 1129 440 1108 438 q 1170 442 1150 443 q 1206 434 1190 442 q 1224 410 1222 426 q 1208 381 1225 392 q 1169 365 1192 369 q 1122 362 1146 361 q 1086 367 1099 363 q 952 274 993 335 q 917 151 911 213 q 969 46 922 90 q 1097 3 1015 1 q 1202 46 1158 4 q 1256 178 1246 88 q 1290 115 1290 149 q 1269 44 1292 76 q 1210 -10 1247 13 q 1124 -44 1172 -33 q 1025 -50 1076 -54 q 894 -11 944 -43 q 820 65 843 21 q 800 163 797 110 q 828 263 803 215 q 902 350 854 311 q 1017 406 950 389 q 1001 406 1010 406 q 979 407 992 407 l 714 407 q 610 231 664 319 q 495 73 556 143 q 367 -41 435 3 q 225 -85 300 -85 q 89 -42 138 -83 q 24 62 40 0 q 20 196 8 124 q 65 331 32 268 q 147 435 97 393 q 257 479 197 478 q 320 460 299 481 q 357 403 342 439 q 309 408 332 408 q 264 403 286 407 q 160 353 203 390 q 92 267 117 315 q 61 165 67 218 q 69 66 56 111 q 118 -8 83 21 q 210 -37 153 -37 q 308 1 257 -37 q 411 103 358 40 q 518 247 464 167 q 625 407 572 326 l 568 407 q 581 430 578 422 q 590 440 585 438 q 609 443 596 443 q 650 443 622 443 q 696 512 674 479 q 740 576 718 544 q 810 663 779 631 q 874 715 840 696 q 949 740 907 733 q 1053 750 992 747 q 1119 749 1088 750 q 1172 746 1150 749 q 1253 722 1217 740 q 1300 657 1289 703 q 1299 596 1308 631 q 1281 563 1292 576 q 1250 549 1269 549 q 1213 564 1226 547 q 1203 603 1200 581 m 982 443 q 931 516 944 478 q 924 590 918 554 q 953 658 929 626 q 1015 711 978 690 q 941 700 971 708 q 889 675 911 692 q 848 632 867 658 q 807 568 829 606 q 772 508 789 539 q 735 443 754 476 l 982 443 z "},"":{"ha":524,"x_min":11,"x_max":531,"o":"m 524 685 q 517 621 531 654 q 490 582 507 593 q 458 572 474 571 q 431 584 443 572 q 419 615 419 596 q 431 650 419 631 q 440 672 436 658 q 442 697 444 685 q 431 719 440 710 q 400 728 422 728 q 331 697 367 728 q 263 617 296 667 q 201 505 229 568 q 156 376 174 442 q 132 247 138 310 q 139 136 126 185 q 184 58 151 88 q 274 31 217 29 q 386 90 335 31 q 440 217 424 132 q 469 149 472 185 q 453 99 467 124 q 353 8 417 40 q 224 -24 290 -25 q 182 -19 200 -24 l 168 -46 q 239 -104 231 -62 q 179 -183 247 -157 q 49 -203 124 -203 q 25 -193 25 -203 q 46 -183 21 -183 q 140 -160 93 -183 q 181 -99 189 -136 q 124 -53 176 -72 q 147 -10 124 -50 q 61 56 92 11 q 21 159 31 100 q 20 287 11 218 q 53 424 29 356 q 114 557 76 493 q 197 670 151 621 q 297 749 243 719 q 407 779 350 778 q 480 758 444 779 q 524 685 515 736 z "},"":{"ha":554,"x_min":11,"x_max":518,"o":"m 417 635 q 422 649 418 643 q 429 663 425 656 q 436 714 454 693 q 389 731 424 731 q 309 701 346 731 q 256 631 272 672 q 249 545 239 590 q 310 468 258 500 q 343 472 322 469 q 384 474 364 475 q 420 466 404 474 q 438 442 436 458 q 422 413 439 424 q 383 397 406 401 q 336 394 360 393 q 300 399 313 394 q 199 342 238 378 q 144 266 161 307 q 131 184 126 225 q 156 109 135 143 q 217 54 178 75 q 311 35 257 33 q 416 78 372 36 q 471 210 460 119 q 497 178 489 194 q 506 147 504 163 q 484 77 507 110 q 424 22 461 44 q 338 -12 386 -1 q 239 -18 290 -22 q 108 22 158 -11 q 34 100 57 54 q 15 199 11 146 q 46 301 18 253 q 123 387 74 349 q 242 440 172 425 q 147 548 167 489 q 149 658 126 607 q 231 744 172 710 q 374 779 290 779 q 463 758 422 779 q 515 689 503 736 q 517 660 518 676 q 513 629 517 644 q 495 596 507 610 q 465 581 483 582 q 428 597 442 579 q 417 635 414 614 m 247 925 q 240 945 239 933 q 246 969 240 957 q 259 994 251 982 q 272 1017 267 1007 q 303 969 286 993 q 339 923 319 944 q 382 884 358 901 q 433 858 406 867 q 412 844 417 847 q 388 843 407 840 q 310 874 344 850 q 247 925 275 897 z "},"":{"ha":554,"x_min":11,"x_max":518,"o":"m 417 635 q 422 649 418 643 q 429 663 425 656 q 436 714 454 693 q 389 731 424 731 q 309 701 346 731 q 256 631 272 672 q 249 545 239 590 q 310 468 258 500 q 343 472 322 469 q 384 474 364 475 q 420 466 404 474 q 438 442 436 458 q 422 413 439 424 q 383 397 406 401 q 336 394 360 393 q 300 399 313 394 q 199 342 238 378 q 144 266 161 307 q 131 184 126 225 q 156 109 135 143 q 217 54 178 75 q 311 35 257 33 q 416 78 372 36 q 471 210 460 119 q 497 178 489 194 q 506 147 504 163 q 484 77 507 110 q 424 22 461 44 q 338 -12 386 -1 q 239 -18 290 -22 q 108 22 158 -11 q 34 100 57 54 q 15 199 11 146 q 46 301 18 253 q 123 387 74 349 q 242 440 172 425 q 147 548 167 489 q 149 658 126 607 q 231 744 172 710 q 374 779 290 779 q 463 758 422 779 q 515 689 503 736 q 517 660 518 676 q 513 629 517 644 q 495 596 507 610 q 465 581 483 582 q 428 597 442 579 q 417 635 414 614 m 317 843 q 302 842 307 842 q 293 844 297 842 q 285 849 289 846 q 272 858 281 853 q 324 884 300 867 q 367 923 347 901 q 403 969 386 944 q 432 1017 419 993 q 445 994 438 1007 q 458 969 453 982 q 465 945 464 957 q 458 925 467 933 q 394 874 429 897 q 317 843 360 850 z "},"":{"ha":554,"x_min":11,"x_max":518,"o":"m 417 635 q 422 649 418 643 q 429 663 425 656 q 436 714 454 693 q 389 731 424 731 q 309 701 346 731 q 256 631 272 672 q 249 545 239 590 q 310 468 258 500 q 343 472 322 469 q 384 474 364 475 q 420 466 404 474 q 438 442 436 458 q 422 413 439 424 q 383 397 406 401 q 336 394 360 393 q 300 399 313 394 q 199 342 238 378 q 144 266 161 307 q 131 184 126 225 q 156 109 135 143 q 217 54 178 75 q 311 35 257 33 q 416 78 372 36 q 471 210 460 119 q 497 178 489 194 q 506 147 504 163 q 484 77 507 110 q 424 22 461 44 q 338 -12 386 -1 q 239 -18 290 -22 q 108 22 158 -11 q 34 100 57 54 q 15 199 11 146 q 46 301 18 253 q 123 387 74 349 q 242 440 172 425 q 147 548 167 489 q 149 658 126 607 q 231 744 172 710 q 374 779 290 779 q 463 758 422 779 q 515 689 503 736 q 517 660 518 676 q 513 629 517 644 q 495 596 507 610 q 465 581 483 582 q 428 597 442 579 q 417 635 414 614 m 456 808 q 430 825 444 814 q 402 850 415 836 q 377 879 389 864 q 358 908 365 894 q 274 847 315 869 q 186 817 233 824 q 188 828 188 826 q 193 832 188 829 q 288 905 246 860 q 375 1017 331 950 q 390 963 381 990 q 410 908 399 935 q 437 856 422 881 q 469 814 451 832 q 464 807 465 808 q 456 808 463 806 z "},"":{"ha":1157,"x_min":0,"x_max":0,"o":""},"":{"ha":554,"x_min":11,"x_max":519,"o":"m 417 635 q 422 649 418 643 q 429 663 425 656 q 436 714 454 693 q 389 731 424 731 q 309 701 346 731 q 256 631 272 672 q 249 545 239 590 q 310 468 258 500 q 343 472 322 469 q 384 474 364 475 q 420 466 404 474 q 438 442 436 458 q 422 413 439 424 q 383 397 406 401 q 336 394 360 393 q 300 399 313 394 q 199 342 238 378 q 144 266 161 307 q 131 184 126 225 q 156 109 135 143 q 217 54 178 75 q 311 35 257 33 q 416 78 372 36 q 471 210 460 119 q 497 178 489 194 q 506 147 504 163 q 484 77 507 110 q 424 22 461 44 q 338 -12 386 -1 q 239 -18 290 -22 q 108 22 158 -11 q 34 100 57 54 q 15 199 11 146 q 46 301 18 253 q 123 387 74 349 q 242 440 172 425 q 147 548 167 489 q 149 658 126 607 q 231 744 172 710 q 374 779 290 779 q 463 758 422 779 q 515 689 503 736 q 517 660 518 676 q 513 629 517 644 q 495 596 507 610 q 465 581 483 582 q 428 597 442 579 q 417 635 414 614 m 461 975 q 503 957 488 975 q 517 913 519 939 q 494 867 514 886 q 450 849 475 849 q 408 867 425 849 q 394 913 392 886 q 417 957 397 939 q 461 975 436 975 m 276 849 q 235 867 251 849 q 221 913 218 886 q 243 957 224 939 q 289 975 263 975 q 331 957 314 975 q 344 913 347 939 q 322 867 342 886 q 276 849 303 849 z "},"":{"ha":596,"x_min":8,"x_max":679,"o":"m 672 756 q 648 676 660 714 q 626 601 636 638 q 605 526 615 564 q 582 447 594 489 q 551 339 568 400 q 515 216 535 278 q 471 99 494 154 q 421 7 447 43 q 351 -56 392 -32 q 251 -82 310 -81 q 105 -47 158 -85 q 30 51 51 -8 q 17 179 8 110 q 56 309 25 249 q 135 411 86 369 q 246 454 185 453 q 308 435 286 456 q 346 379 331 414 q 298 383 321 383 q 253 378 275 382 q 144 328 188 365 q 81 245 101 292 q 59 148 60 199 q 76 55 58 97 q 129 -13 93 13 q 217 -36 165 -39 q 283 -8 256 -33 q 332 57 311 17 q 369 142 350 92 q 404 247 388 192 q 435 354 421 301 q 463 449 450 407 q 497 571 481 515 q 535 696 514 626 q 564 742 544 731 l 456 742 q 461 766 460 758 q 465 776 463 774 q 474 779 468 779 q 492 779 479 779 l 679 779 l 672 756 m 471 925 q 463 945 463 933 q 469 969 464 957 q 483 994 475 982 q 496 1017 490 1007 q 526 969 510 993 q 563 923 543 944 q 606 884 582 901 q 657 858 629 867 q 635 844 640 847 q 611 843 631 840 q 533 874 568 850 q 471 925 499 897 z "},"":{"ha":596,"x_min":8,"x_max":686,"o":"m 672 756 q 648 676 660 714 q 626 601 636 638 q 605 526 615 564 q 582 447 594 489 q 551 339 568 400 q 515 216 535 278 q 471 99 494 154 q 421 7 447 43 q 351 -56 392 -32 q 251 -82 310 -81 q 105 -47 158 -85 q 30 51 51 -8 q 17 179 8 110 q 56 309 25 249 q 135 411 86 369 q 246 454 185 453 q 308 435 286 456 q 346 379 331 414 q 298 383 321 383 q 253 378 275 382 q 144 328 188 365 q 81 245 101 292 q 59 148 60 199 q 76 55 58 97 q 129 -13 93 13 q 217 -36 165 -39 q 283 -8 256 -33 q 332 57 311 17 q 369 142 350 92 q 404 247 388 192 q 435 354 421 301 q 463 449 450 407 q 497 571 481 515 q 535 696 514 626 q 564 742 544 731 l 456 742 q 461 766 460 758 q 465 776 463 774 q 474 779 468 779 q 492 779 479 779 l 679 779 l 672 756 m 536 843 q 522 842 526 842 q 513 844 517 842 q 504 849 508 846 q 492 858 500 853 q 543 884 519 867 q 586 923 567 901 q 622 969 606 944 q 651 1017 639 993 q 665 994 657 1007 q 678 969 672 982 q 685 945 683 957 q 678 925 686 933 q 614 874 649 897 q 536 843 579 850 z "},"":{"ha":596,"x_min":8,"x_max":714,"o":"m 672 756 q 648 676 660 714 q 626 601 636 638 q 605 526 615 564 q 582 447 594 489 q 551 339 568 400 q 515 216 535 278 q 471 99 494 154 q 421 7 447 43 q 351 -56 392 -32 q 251 -82 310 -81 q 105 -47 158 -85 q 30 51 51 -8 q 17 179 8 110 q 56 309 25 249 q 135 411 86 369 q 246 454 185 453 q 308 435 286 456 q 346 379 331 414 q 298 383 321 383 q 253 378 275 382 q 144 328 188 365 q 81 245 101 292 q 59 148 60 199 q 76 55 58 97 q 129 -13 93 13 q 217 -36 165 -39 q 283 -8 256 -33 q 332 57 311 17 q 369 142 350 92 q 404 247 388 192 q 435 354 421 301 q 463 449 450 407 q 497 571 481 515 q 535 696 514 626 q 564 742 544 731 l 456 742 q 461 766 460 758 q 465 776 463 774 q 474 779 468 779 q 492 779 479 779 l 679 779 l 672 756 m 700 808 q 674 825 689 814 q 647 850 660 836 q 622 879 633 864 q 603 908 610 894 q 519 847 560 869 q 431 817 478 824 q 432 828 432 826 q 438 832 432 829 q 533 905 490 860 q 619 1017 575 950 q 634 963 625 990 q 655 908 643 935 q 681 856 667 881 q 714 814 696 832 q 708 807 710 808 q 700 808 707 806 z "},"":{"ha":596,"x_min":8,"x_max":746,"o":"m 672 756 q 648 676 660 714 q 626 601 636 638 q 605 526 615 564 q 582 447 594 489 q 551 339 568 400 q 515 216 535 278 q 471 99 494 154 q 421 7 447 43 q 351 -56 392 -32 q 251 -82 310 -81 q 105 -47 158 -85 q 30 51 51 -8 q 17 179 8 110 q 56 309 25 249 q 135 411 86 369 q 246 454 185 453 q 308 435 286 456 q 346 379 331 414 q 298 383 321 383 q 253 378 275 382 q 144 328 188 365 q 81 245 101 292 q 59 148 60 199 q 76 55 58 97 q 129 -13 93 13 q 217 -36 165 -39 q 283 -8 256 -33 q 332 57 311 17 q 369 142 350 92 q 404 247 388 192 q 435 354 421 301 q 463 449 450 407 q 497 571 481 515 q 535 696 514 626 q 564 742 544 731 l 456 742 q 461 766 460 758 q 465 776 463 774 q 474 779 468 779 q 492 779 479 779 l 679 779 l 672 756 m 688 975 q 730 957 714 975 q 743 913 746 939 q 721 867 740 886 q 676 849 701 849 q 635 867 651 849 q 621 913 618 886 q 643 957 624 939 q 688 975 663 975 m 503 849 q 461 867 478 849 q 447 913 444 886 q 469 957 450 939 q 515 975 489 975 q 557 957 540 975 q 571 913 574 939 q 549 867 568 886 q 503 849 529 849 z "},"":{"ha":1007,"x_min":8,"x_max":1253,"o":"m 1174 779 q 1234 761 1215 779 q 1249 721 1253 743 q 1231 688 1246 703 q 1201 672 1217 672 q 1181 678 1188 672 q 1168 691 1174 683 q 1156 704 1163 699 q 1136 710 1150 710 q 1076 677 1104 710 q 1024 592 1049 644 q 976 470 999 539 q 935 329 954 401 q 901 187 917 257 q 872 60 885 117 q 864 28 867 38 q 856 14 861 18 q 838 8 850 10 q 804 0 826 6 q 737 151 763 67 q 694 324 711 235 q 669 503 678 414 q 653 668 660 592 q 651 674 651 675 q 651 667 651 674 q 632 531 644 608 q 598 372 619 454 q 547 208 576 289 q 474 63 517 128 q 377 -42 432 -1 q 251 -83 322 -82 q 105 -47 158 -86 q 30 51 51 -8 q 17 179 8 110 q 56 309 25 249 q 135 411 86 369 q 246 454 185 453 q 308 435 286 456 q 346 378 331 414 q 253 378 294 386 q 146 329 189 365 q 81 247 103 293 q 58 150 60 200 q 74 58 57 100 q 128 -12 92 15 q 217 -37 164 -39 q 322 10 274 -36 q 411 128 371 56 q 485 290 451 201 q 543 465 518 378 q 585 625 568 551 q 613 742 603 699 l 518 742 q 522 765 521 757 q 526 776 524 772 q 533 779 528 779 q 549 779 538 779 l 650 779 l 732 779 q 756 760 756 779 q 763 678 757 729 q 775 568 768 628 q 790 445 782 508 q 808 327 799 382 q 826 231 817 272 q 843 172 835 189 q 868 260 854 203 q 901 385 882 318 q 944 522 919 453 q 1002 649 969 592 q 1077 742 1035 706 q 1174 779 1119 779 m 1119 935 q 1122 924 1122 925 q 1111 917 1121 924 q 1069 897 1093 904 q 1020 884 1046 889 q 969 878 994 879 q 921 878 943 876 q 882 887 900 882 q 846 894 864 892 q 808 894 828 896 q 764 886 789 893 q 762 898 761 897 q 771 906 763 899 q 847 939 803 928 q 926 947 892 950 q 975 938 953 943 q 1019 928 997 932 q 1065 926 1042 925 q 1119 935 1089 926 z "},"":{"ha":619,"x_min":14,"x_max":622,"o":"m 469 768 q 560 726 525 764 q 608 631 594 689 q 617 501 622 574 q 591 355 613 429 q 533 211 569 281 q 445 88 496 142 q 331 2 394 33 q 194 -26 268 -29 q 92 10 132 -24 q 33 99 53 44 q 15 224 14 154 q 33 367 15 293 q 84 514 50 442 q 166 647 118 586 q 275 749 214 707 q 408 804 336 790 q 417 799 415 806 q 413 789 418 792 q 285 698 339 764 q 196 547 231 632 q 145 371 161 463 q 134 203 129 279 q 164 77 139 126 q 236 28 189 28 q 345 79 294 28 q 433 207 396 131 q 492 372 469 283 q 517 538 514 461 q 502 667 521 615 q 439 721 483 719 q 406 708 421 722 q 381 661 390 693 q 381 639 376 647 q 390 622 385 631 q 398 606 394 614 q 397 583 401 597 q 375 558 393 568 q 338 550 357 547 q 303 578 314 553 q 303 644 292 604 q 369 739 321 706 q 469 768 417 772 m 356 925 q 348 945 347 933 q 354 969 349 957 q 367 994 360 982 q 381 1017 375 1007 q 411 969 394 993 q 447 923 428 944 q 490 884 467 901 q 542 858 514 867 q 520 844 525 847 q 496 843 515 840 q 418 874 453 850 q 356 925 383 897 z "},"":{"ha":619,"x_min":14,"x_max":622,"o":"m 469 768 q 560 726 525 764 q 608 631 594 689 q 617 501 622 574 q 591 355 613 429 q 533 211 569 281 q 445 88 496 142 q 331 2 394 33 q 194 -26 268 -29 q 92 10 132 -24 q 33 99 53 44 q 15 224 14 154 q 33 367 15 293 q 84 514 50 442 q 166 647 118 586 q 275 749 214 707 q 408 804 336 790 q 417 799 415 806 q 413 789 418 792 q 285 698 339 764 q 196 547 231 632 q 145 371 161 463 q 134 203 129 279 q 164 77 139 126 q 236 28 189 28 q 345 79 294 28 q 433 207 396 131 q 492 372 469 283 q 517 538 514 461 q 502 667 521 615 q 439 721 483 719 q 406 708 421 722 q 381 661 390 693 q 381 639 376 647 q 390 622 385 631 q 398 606 394 614 q 397 583 401 597 q 375 558 393 568 q 338 550 357 547 q 303 578 314 553 q 303 644 292 604 q 369 739 321 706 q 469 768 417 772 m 383 843 q 369 842 374 842 q 360 844 364 842 q 351 849 356 846 q 339 858 347 853 q 390 884 367 867 q 433 923 414 901 q 469 969 453 944 q 499 1017 486 993 q 512 994 504 1007 q 525 969 519 982 q 532 945 531 957 q 525 925 533 933 q 461 874 496 897 q 383 843 426 850 z "},"":{"ha":619,"x_min":14,"x_max":622,"o":"m 469 768 q 560 726 525 764 q 608 631 594 689 q 617 501 622 574 q 591 355 613 429 q 533 211 569 281 q 445 88 496 142 q 331 2 394 33 q 194 -26 268 -29 q 92 10 132 -24 q 33 99 53 44 q 15 224 14 154 q 33 367 15 293 q 84 514 50 442 q 166 647 118 586 q 275 749 214 707 q 408 804 336 790 q 417 799 415 806 q 413 789 418 792 q 285 698 339 764 q 196 547 231 632 q 145 371 161 463 q 134 203 129 279 q 164 77 139 126 q 236 28 189 28 q 345 79 294 28 q 433 207 396 131 q 492 372 469 283 q 517 538 514 461 q 502 667 521 615 q 439 721 483 719 q 406 708 421 722 q 381 661 390 693 q 381 639 376 647 q 390 622 385 631 q 398 606 394 614 q 397 583 401 597 q 375 558 393 568 q 338 550 357 547 q 303 578 314 553 q 303 644 292 604 q 369 739 321 706 q 469 768 417 772 m 526 808 q 501 825 515 814 q 473 850 486 836 q 448 879 460 864 q 429 908 436 894 q 345 847 386 869 q 257 817 304 824 q 258 828 258 826 q 264 832 258 829 q 359 905 317 860 q 446 1017 401 950 q 460 963 451 990 q 481 908 469 935 q 508 856 493 881 q 540 814 522 832 q 535 807 536 808 q 526 808 533 806 z "},"":{"ha":619,"x_min":14,"x_max":622,"o":"m 469 768 q 560 726 525 764 q 608 631 594 689 q 617 501 622 574 q 591 355 613 429 q 533 211 569 281 q 445 88 496 142 q 331 2 394 33 q 194 -26 268 -29 q 92 10 132 -24 q 33 99 53 44 q 15 224 14 154 q 33 367 15 293 q 84 514 50 442 q 166 647 118 586 q 275 749 214 707 q 408 804 336 790 q 417 799 415 806 q 413 789 418 792 q 285 698 339 764 q 196 547 231 632 q 145 371 161 463 q 134 203 129 279 q 164 77 139 126 q 236 28 189 28 q 345 79 294 28 q 433 207 396 131 q 492 372 469 283 q 517 538 514 461 q 502 667 521 615 q 439 721 483 719 q 406 708 421 722 q 381 661 390 693 q 381 639 376 647 q 390 622 385 631 q 398 606 394 614 q 397 583 401 597 q 375 558 393 568 q 338 550 357 547 q 303 578 314 553 q 303 644 292 604 q 369 739 321 706 q 469 768 417 772 m 614 935 q 616 924 617 925 q 606 917 615 924 q 564 897 588 904 q 515 884 540 889 q 463 878 489 879 q 415 878 438 876 q 376 887 394 882 q 340 894 358 892 q 303 894 322 896 q 258 886 283 893 q 256 898 256 897 q 265 906 257 899 q 342 939 297 928 q 421 947 386 950 q 469 938 447 943 q 514 928 492 932 q 560 926 536 925 q 614 935 583 926 z "},"":{"ha":619,"x_min":14,"x_max":622,"o":"m 469 768 q 560 726 525 764 q 608 631 594 689 q 617 501 622 574 q 591 355 613 429 q 533 211 569 281 q 445 88 496 142 q 331 2 394 33 q 194 -26 268 -29 q 92 10 132 -24 q 33 99 53 44 q 15 224 14 154 q 33 367 15 293 q 84 514 50 442 q 166 647 118 586 q 275 749 214 707 q 408 804 336 790 q 417 799 415 806 q 413 789 418 792 q 285 698 339 764 q 196 547 231 632 q 145 371 161 463 q 134 203 129 279 q 164 77 139 126 q 236 28 189 28 q 345 79 294 28 q 433 207 396 131 q 492 372 469 283 q 517 538 514 461 q 502 667 521 615 q 439 721 483 719 q 406 708 421 722 q 381 661 390 693 q 381 639 376 647 q 390 622 385 631 q 398 606 394 614 q 397 583 401 597 q 375 558 393 568 q 338 550 357 547 q 303 578 314 553 q 303 644 292 604 q 369 739 321 706 q 469 768 417 772 m 504 975 q 547 957 531 975 q 560 913 563 939 q 538 867 557 886 q 493 849 518 849 q 451 867 468 849 q 438 913 435 886 q 460 957 440 939 q 504 975 479 975 m 319 849 q 278 867 294 849 q 264 913 261 886 q 286 957 267 939 q 332 975 306 975 q 374 957 357 975 q 388 913 390 939 q 365 867 385 886 q 319 849 346 849 z "},"":{"ha":619,"x_min":13,"x_max":622,"o":"m 469 794 q 559 753 525 790 q 608 658 593 715 q 617 528 622 600 q 592 383 613 457 q 534 240 571 310 q 447 115 497 169 q 333 29 396 61 q 197 0 271 -3 q 178 -62 186 -35 q 164 -110 171 -90 q 158 -125 161 -121 q 150 -130 156 -129 q 135 -130 144 -131 q 108 -129 125 -129 q 129 -72 118 -106 q 154 6 140 -37 q 51 87 85 24 q 15 235 17 150 q 39 419 13 321 q 117 602 65 517 q 243 751 169 688 q 408 832 317 814 q 424 886 417 861 q 436 931 431 911 q 454 947 442 947 q 494 946 467 946 q 472 882 485 921 q 444 794 460 843 q 469 794 457 796 m 403 813 q 292 733 340 788 q 210 607 244 678 q 158 457 176 536 q 135 305 139 378 q 142 172 131 232 q 179 82 153 113 q 256 323 215 192 q 332 578 296 454 q 302 608 313 583 q 303 672 292 632 q 338 737 314 710 q 393 779 361 764 q 398 796 396 788 q 403 813 400 804 m 236 54 q 319 84 281 54 q 392 163 358 114 q 451 273 425 211 q 492 399 476 335 q 515 526 508 464 q 515 637 521 588 q 491 717 510 686 q 439 749 472 747 q 429 747 432 749 q 413 695 421 722 q 396 640 404 668 q 399 627 399 633 q 397 610 400 621 q 390 597 396 603 q 378 586 385 592 q 335 449 357 519 q 292 310 314 379 q 251 177 271 242 q 214 57 231 113 q 224 55 219 56 q 236 54 229 54 z "},"":{"ha":794,"x_min":14,"x_max":853,"o":"m 808 139 q 825 147 813 149 q 847 146 838 146 q 824 92 838 119 q 790 44 810 65 q 745 11 771 24 q 689 0 719 -1 q 608 34 632 3 q 578 113 583 65 q 488 31 542 64 q 376 0 433 -3 q 288 32 326 1 q 246 126 250 63 q 247 190 243 157 q 258 256 251 224 q 273 319 265 289 q 288 372 281 349 q 309 449 296 404 q 336 540 322 493 q 363 631 350 588 q 386 707 376 675 q 222 707 299 714 q 96 665 144 700 q 53 588 53 632 q 64 553 53 563 q 85 544 75 544 q 108 549 93 544 q 133 553 124 553 q 163 539 149 553 q 176 503 176 525 q 159 460 176 479 q 111 440 142 440 q 83 446 100 440 q 51 465 67 451 q 25 504 36 479 q 14 568 14 529 q 18 611 14 588 q 33 658 22 635 q 62 703 43 681 q 108 743 81 725 q 201 783 151 771 q 306 797 251 794 q 415 793 360 799 q 526 779 471 788 q 501 699 517 749 q 468 592 486 649 q 433 480 450 536 q 403 381 415 424 q 389 331 399 364 q 370 260 379 299 q 356 181 361 221 q 353 111 350 142 q 373 63 356 78 q 415 47 390 47 q 460 60 436 47 q 506 93 483 74 q 549 137 529 113 q 579 185 568 161 q 597 286 585 236 q 619 372 610 336 q 668 547 643 460 q 713 696 693 635 q 730 735 721 724 q 753 749 739 746 q 791 752 768 753 q 853 756 814 751 q 847 741 850 749 q 842 726 844 733 q 822 664 833 701 q 795 581 810 626 q 765 483 781 535 q 736 381 750 432 q 723 335 732 365 q 706 267 714 304 q 690 191 697 229 q 683 121 683 153 q 691 68 683 89 q 719 47 699 47 q 750 56 736 47 q 775 79 764 65 q 794 109 786 93 q 808 139 803 125 m 546 925 q 538 945 538 933 q 544 969 539 957 q 558 994 550 982 q 571 1017 565 1007 q 601 969 585 993 q 638 923 618 944 q 681 884 657 901 q 732 858 704 867 q 710 844 715 847 q 686 843 706 840 q 608 874 643 850 q 546 925 574 897 z "},"":{"ha":794,"x_min":14,"x_max":853,"o":"m 808 139 q 825 147 813 149 q 847 146 838 146 q 824 92 838 119 q 790 44 810 65 q 745 11 771 24 q 689 0 719 -1 q 608 34 632 3 q 578 113 583 65 q 488 31 542 64 q 376 0 433 -3 q 288 32 326 1 q 246 126 250 63 q 247 190 243 157 q 258 256 251 224 q 273 319 265 289 q 288 372 281 349 q 309 449 296 404 q 336 540 322 493 q 363 631 350 588 q 386 707 376 675 q 222 707 299 714 q 96 665 144 700 q 53 588 53 632 q 64 553 53 563 q 85 544 75 544 q 108 549 93 544 q 133 553 124 553 q 163 539 149 553 q 176 503 176 525 q 159 460 176 479 q 111 440 142 440 q 83 446 100 440 q 51 465 67 451 q 25 504 36 479 q 14 568 14 529 q 18 611 14 588 q 33 658 22 635 q 62 703 43 681 q 108 743 81 725 q 201 783 151 771 q 306 797 251 794 q 415 793 360 799 q 526 779 471 788 q 501 699 517 749 q 468 592 486 649 q 433 480 450 536 q 403 381 415 424 q 389 331 399 364 q 370 260 379 299 q 356 181 361 221 q 353 111 350 142 q 373 63 356 78 q 415 47 390 47 q 460 60 436 47 q 506 93 483 74 q 549 137 529 113 q 579 185 568 161 q 597 286 585 236 q 619 372 610 336 q 668 547 643 460 q 713 696 693 635 q 730 735 721 724 q 753 749 739 746 q 791 752 768 753 q 853 756 814 751 q 847 741 850 749 q 842 726 844 733 q 822 664 833 701 q 795 581 810 626 q 765 483 781 535 q 736 381 750 432 q 723 335 732 365 q 706 267 714 304 q 690 191 697 229 q 683 121 683 153 q 691 68 683 89 q 719 47 699 47 q 750 56 736 47 q 775 79 764 65 q 794 109 786 93 q 808 139 803 125 m 617 843 q 602 842 607 842 q 593 844 597 842 q 585 849 589 846 q 572 858 581 853 q 624 884 600 867 q 667 923 647 901 q 703 969 686 944 q 732 1017 719 993 q 745 994 738 1007 q 758 969 753 982 q 765 945 764 957 q 758 925 767 933 q 694 874 729 897 q 617 843 660 850 z "},"":{"ha":794,"x_min":14,"x_max":853,"o":"m 808 139 q 825 147 813 149 q 847 146 838 146 q 824 92 838 119 q 790 44 810 65 q 745 11 771 24 q 689 0 719 -1 q 608 34 632 3 q 578 113 583 65 q 488 31 542 64 q 376 0 433 -3 q 288 32 326 1 q 246 126 250 63 q 247 190 243 157 q 258 256 251 224 q 273 319 265 289 q 288 372 281 349 q 309 449 296 404 q 336 540 322 493 q 363 631 350 588 q 386 707 376 675 q 222 707 299 714 q 96 665 144 700 q 53 588 53 632 q 64 553 53 563 q 85 544 75 544 q 108 549 93 544 q 133 553 124 553 q 163 539 149 553 q 176 503 176 525 q 159 460 176 479 q 111 440 142 440 q 83 446 100 440 q 51 465 67 451 q 25 504 36 479 q 14 568 14 529 q 18 611 14 588 q 33 658 22 635 q 62 703 43 681 q 108 743 81 725 q 201 783 151 771 q 306 797 251 794 q 415 793 360 799 q 526 779 471 788 q 501 699 517 749 q 468 592 486 649 q 433 480 450 536 q 403 381 415 424 q 389 331 399 364 q 370 260 379 299 q 356 181 361 221 q 353 111 350 142 q 373 63 356 78 q 415 47 390 47 q 460 60 436 47 q 506 93 483 74 q 549 137 529 113 q 579 185 568 161 q 597 286 585 236 q 619 372 610 336 q 668 547 643 460 q 713 696 693 635 q 730 735 721 724 q 753 749 739 746 q 791 752 768 753 q 853 756 814 751 q 847 741 850 749 q 842 726 844 733 q 822 664 833 701 q 795 581 810 626 q 765 483 781 535 q 736 381 750 432 q 723 335 732 365 q 706 267 714 304 q 690 191 697 229 q 683 121 683 153 q 691 68 683 89 q 719 47 699 47 q 750 56 736 47 q 775 79 764 65 q 794 109 786 93 q 808 139 803 125 m 768 808 q 742 825 757 814 q 715 850 728 836 q 690 879 701 864 q 671 908 678 894 q 587 847 628 869 q 499 817 546 824 q 500 828 500 826 q 506 832 500 829 q 601 905 558 860 q 688 1017 643 950 q 702 963 693 990 q 723 908 711 935 q 749 856 735 881 q 782 814 764 832 q 776 807 778 808 q 768 808 775 806 z "},"":{"ha":794,"x_min":14,"x_max":853,"o":"m 808 139 q 825 147 813 149 q 847 146 838 146 q 824 92 838 119 q 790 44 810 65 q 745 11 771 24 q 689 0 719 -1 q 608 34 632 3 q 578 113 583 65 q 488 31 542 64 q 376 0 433 -3 q 288 32 326 1 q 246 126 250 63 q 247 190 243 157 q 258 256 251 224 q 273 319 265 289 q 288 372 281 349 q 309 449 296 404 q 336 540 322 493 q 363 631 350 588 q 386 707 376 675 q 222 707 299 714 q 96 665 144 700 q 53 588 53 632 q 64 553 53 563 q 85 544 75 544 q 108 549 93 544 q 133 553 124 553 q 163 539 149 553 q 176 503 176 525 q 159 460 176 479 q 111 440 142 440 q 83 446 100 440 q 51 465 67 451 q 25 504 36 479 q 14 568 14 529 q 18 611 14 588 q 33 658 22 635 q 62 703 43 681 q 108 743 81 725 q 201 783 151 771 q 306 797 251 794 q 415 793 360 799 q 526 779 471 788 q 501 699 517 749 q 468 592 486 649 q 433 480 450 536 q 403 381 415 424 q 389 331 399 364 q 370 260 379 299 q 356 181 361 221 q 353 111 350 142 q 373 63 356 78 q 415 47 390 47 q 460 60 436 47 q 506 93 483 74 q 549 137 529 113 q 579 185 568 161 q 597 286 585 236 q 619 372 610 336 q 668 547 643 460 q 713 696 693 635 q 730 735 721 724 q 753 749 739 746 q 791 752 768 753 q 853 756 814 751 q 847 741 850 749 q 842 726 844 733 q 822 664 833 701 q 795 581 810 626 q 765 483 781 535 q 736 381 750 432 q 723 335 732 365 q 706 267 714 304 q 690 191 697 229 q 683 121 683 153 q 691 68 683 89 q 719 47 699 47 q 750 56 736 47 q 775 79 764 65 q 794 109 786 93 q 808 139 803 125 m 749 975 q 791 957 775 975 q 804 913 807 939 q 782 867 801 886 q 738 849 763 849 q 696 867 713 849 q 682 913 679 886 q 704 957 685 939 q 749 975 724 975 m 564 849 q 522 867 539 849 q 508 913 506 886 q 531 957 511 939 q 576 975 550 975 q 618 957 601 975 q 632 913 635 939 q 610 867 629 886 q 564 849 590 849 z "},"":{"ha":790,"x_min":8,"x_max":1154,"o":"m 1071 903 q 1133 883 1113 903 q 1150 840 1154 863 q 1133 806 1147 821 q 1103 790 1118 790 q 1080 798 1088 790 q 1067 814 1072 806 q 1019 816 1053 836 q 941 751 985 796 q 849 645 897 706 q 760 527 801 585 q 689 424 718 469 q 653 364 660 379 q 624 290 638 329 q 599 211 611 251 q 556 63 579 146 q 496 -92 533 -19 q 400 -216 458 -165 q 251 -269 342 -267 q 105 -234 158 -272 q 30 -137 51 -196 q 17 -8 8 -78 q 56 122 25 61 q 135 224 86 182 q 246 267 185 265 q 309 247 288 268 q 346 192 331 226 q 298 195 321 196 q 253 190 275 194 q 147 142 189 178 q 83 60 104 107 q 59 -36 61 14 q 74 -128 57 -86 q 128 -197 92 -169 q 218 -224 164 -224 q 292 -199 258 -224 q 351 -133 325 -174 q 399 -43 378 -93 q 437 58 421 7 q 465 155 453 108 q 486 235 478 201 q 504 313 497 276 q 513 371 511 349 q 505 441 513 397 q 486 530 497 485 q 462 613 475 575 q 438 667 449 651 q 413 674 426 682 q 393 653 399 665 q 415 740 390 703 q 489 779 440 778 q 523 765 510 779 q 545 729 536 750 q 559 685 554 708 q 568 647 564 663 q 575 618 569 640 q 588 564 581 596 q 606 494 596 532 q 625 417 615 456 q 680 491 649 444 q 749 592 711 538 q 827 701 786 646 q 910 801 868 757 q 992 874 951 846 q 1071 903 1033 903 m 699 843 q 684 842 689 842 q 675 844 679 842 q 667 849 671 846 q 654 858 663 853 q 706 884 682 867 q 749 923 729 901 q 785 969 768 944 q 814 1017 801 993 q 827 994 819 1007 q 840 969 835 982 q 847 945 846 957 q 840 925 849 933 q 776 874 811 897 q 699 843 742 850 z "},"":{"ha":888,"x_min":8,"x_max":924,"o":"m 817 753 q 891 713 864 753 q 921 610 918 672 q 902 477 924 549 q 831 342 881 406 q 705 236 782 279 q 519 189 628 193 q 526 214 524 204 q 531 224 528 224 q 645 272 594 233 q 731 363 696 311 q 785 474 765 415 q 808 581 804 532 q 800 663 813 631 q 758 694 788 694 q 697 677 731 694 q 636 639 664 660 q 607 536 621 586 q 581 444 593 486 q 550 336 567 397 q 514 213 533 275 q 471 96 494 151 q 421 4 447 40 q 349 -59 390 -35 q 250 -85 308 -83 q 103 -49 157 -87 q 29 48 50 -11 q 16 176 8 107 q 54 306 24 246 q 134 408 85 367 q 246 451 183 450 q 308 432 286 453 q 344 376 329 411 q 297 380 319 381 q 253 375 274 379 q 144 326 188 363 q 80 242 101 289 q 58 145 58 196 q 75 52 57 94 q 129 -16 93 10 q 217 -39 165 -42 q 282 -10 254 -36 q 331 54 310 15 q 367 139 349 89 q 403 244 386 189 q 435 352 421 299 q 463 447 450 406 q 484 522 472 481 q 508 609 496 564 q 533 697 521 654 q 557 775 546 740 q 576 813 565 801 q 604 828 588 824 q 643 831 621 832 q 694 835 665 831 q 674 765 685 803 q 650 686 663 726 q 731 733 686 713 q 817 753 776 753 z "},"":{"ha":964,"x_min":8,"x_max":936,"o":"m 685 426 q 792 411 747 426 q 867 371 838 396 q 911 313 897 346 q 924 246 925 281 q 886 138 922 192 q 781 49 850 85 q 681 14 736 25 q 568 0 625 3 q 540 0 556 0 q 507 0 524 0 q 474 1 490 0 q 449 3 458 1 q 467 34 461 25 q 478 47 472 43 q 497 49 485 50 q 533 51 508 49 q 631 65 588 54 q 724 111 675 75 q 783 178 763 142 q 806 253 804 215 q 776 333 806 296 q 682 390 747 369 q 640 401 663 397 q 592 407 617 404 q 597 432 596 424 q 601 444 599 440 q 611 448 604 447 q 633 451 618 449 q 665 458 650 454 q 693 465 681 461 q 748 494 725 476 q 785 534 771 513 q 807 579 800 556 q 814 625 814 603 q 790 695 814 665 q 724 725 767 725 q 660 682 688 725 q 608 572 632 639 q 563 424 585 506 q 520 263 542 342 q 474 115 499 183 q 421 6 450 46 q 349 -58 390 -33 q 250 -83 308 -82 q 103 -48 157 -86 q 29 49 50 -10 q 16 178 8 108 q 54 308 24 247 q 134 410 85 368 q 246 453 183 451 q 308 433 286 454 q 344 378 329 413 q 253 376 293 386 q 144 327 188 364 q 80 244 101 290 q 58 147 58 197 q 75 54 57 96 q 129 -14 93 13 q 217 -37 165 -40 q 281 -9 254 -35 q 331 56 308 17 q 392 199 368 121 q 438 358 417 278 q 480 512 458 438 q 532 644 501 586 q 608 738 563 703 q 721 772 653 772 q 817 760 776 772 q 885 729 858 749 q 924 684 911 710 q 936 629 936 658 q 919 562 936 596 q 869 500 901 528 q 791 452 838 472 q 685 426 744 432 z "},"":{"ha":525,"x_min":-3,"x_max":578,"o":"m 539 139 q 556 147 543 149 q 578 146 568 146 q 554 92 568 119 q 521 44 540 65 q 476 11 501 24 q 419 0 451 -1 q 338 34 363 3 q 308 111 314 65 q 229 31 274 63 q 136 0 185 0 q 38 42 69 0 q 1 147 6 85 q 17 284 -3 210 q 75 421 38 358 q 164 526 113 483 q 274 568 215 568 q 344 549 317 568 q 386 499 371 531 q 402 539 394 528 q 424 553 410 550 q 460 556 438 556 q 521 560 483 556 l 510 526 q 488 453 499 490 q 467 379 478 415 q 453 333 463 364 q 436 266 444 303 q 422 190 428 229 q 415 119 415 151 q 422 67 414 88 q 450 47 429 47 q 481 56 467 47 q 506 79 494 65 q 525 109 517 93 q 539 139 533 125 m 157 49 q 224 83 192 49 q 283 171 257 118 q 325 284 308 224 q 346 397 342 344 q 339 485 350 450 q 297 519 328 519 q 235 485 267 519 q 177 397 204 450 q 131 284 150 344 q 107 171 113 224 q 113 83 101 118 q 157 49 124 49 m 263 747 q 255 767 254 756 q 261 790 256 778 q 274 815 267 803 q 288 839 282 828 q 318 791 301 815 q 354 745 335 767 q 397 706 374 724 q 449 681 421 689 q 427 665 432 668 q 403 665 422 663 q 326 696 361 672 q 263 747 290 719 z "},"":{"ha":524,"x_min":-3,"x_max":578,"o":"m 539 139 q 556 147 543 149 q 578 146 568 146 q 554 92 568 119 q 521 44 540 65 q 476 11 501 24 q 419 0 451 -1 q 338 34 363 3 q 308 111 314 65 q 229 31 274 63 q 136 0 185 0 q 38 42 69 0 q 1 147 6 85 q 17 284 -3 210 q 75 421 38 358 q 164 526 113 483 q 274 568 215 568 q 344 549 317 568 q 386 499 371 531 q 402 539 394 528 q 424 553 410 550 q 460 556 438 556 q 521 560 483 556 l 510 526 q 488 453 499 490 q 467 379 478 415 q 453 333 463 364 q 436 266 444 303 q 422 190 428 229 q 415 119 415 151 q 422 67 414 88 q 450 47 429 47 q 481 56 467 47 q 506 79 494 65 q 525 109 517 93 q 539 139 533 125 m 157 49 q 224 83 192 49 q 283 171 257 118 q 325 284 308 224 q 346 397 342 344 q 339 485 350 450 q 297 519 328 519 q 235 485 267 519 q 177 397 204 450 q 131 284 150 344 q 107 171 113 224 q 113 83 101 118 q 157 49 124 49 m 271 665 q 256 664 261 664 q 247 666 251 664 q 239 672 243 668 q 226 681 235 675 q 278 706 254 689 q 321 745 301 724 q 357 791 340 767 q 388 839 374 815 q 400 817 392 829 q 414 792 408 804 q 420 767 419 779 q 413 747 421 756 q 349 696 385 719 q 271 665 314 672 z "},"":{"ha":524,"x_min":-3,"x_max":578,"o":"m 428 631 q 402 647 417 636 q 374 672 388 658 q 349 701 361 686 q 331 731 338 717 q 247 669 288 692 q 158 639 206 646 q 160 650 160 649 q 165 654 160 651 q 260 727 218 682 q 347 839 303 772 q 362 785 353 813 q 383 730 371 757 q 409 678 394 703 q 442 636 424 654 q 436 629 438 631 q 428 631 435 628 m 539 139 q 556 147 543 149 q 578 146 568 146 q 554 92 568 119 q 521 44 540 65 q 476 11 501 24 q 419 0 451 -1 q 338 34 363 3 q 308 111 314 65 q 229 31 274 63 q 136 0 185 0 q 38 42 69 0 q 1 147 6 85 q 17 284 -3 210 q 75 421 38 358 q 164 526 113 483 q 274 568 215 568 q 344 549 317 568 q 386 499 371 531 q 402 539 394 528 q 424 553 410 550 q 460 556 438 556 q 521 560 483 556 l 510 526 q 488 453 499 490 q 467 379 478 415 q 453 333 463 364 q 436 266 444 303 q 422 190 428 229 q 415 119 415 151 q 422 67 414 88 q 450 47 429 47 q 481 56 467 47 q 506 79 494 65 q 525 109 517 93 q 539 139 533 125 m 157 49 q 224 83 192 49 q 283 171 257 118 q 325 284 308 224 q 346 397 342 344 q 339 485 350 450 q 297 519 328 519 q 235 485 267 519 q 177 397 204 450 q 131 284 150 344 q 107 171 113 224 q 113 83 101 118 q 157 49 124 49 z "},"":{"ha":524,"x_min":-3,"x_max":578,"o":"m 539 139 q 556 147 543 149 q 578 146 568 146 q 554 92 568 119 q 521 44 540 65 q 476 11 501 24 q 419 0 451 -1 q 338 34 363 3 q 308 111 314 65 q 229 31 274 63 q 136 0 185 0 q 38 42 69 0 q 1 147 6 85 q 17 284 -3 210 q 75 421 38 358 q 164 526 113 483 q 274 568 215 568 q 344 549 317 568 q 386 499 371 531 q 402 539 394 528 q 424 553 410 550 q 460 556 438 556 q 521 560 483 556 l 510 526 q 488 453 499 490 q 467 379 478 415 q 453 333 463 364 q 436 266 444 303 q 422 190 428 229 q 415 119 415 151 q 422 67 414 88 q 450 47 429 47 q 481 56 467 47 q 506 79 494 65 q 525 109 517 93 q 539 139 533 125 m 157 49 q 224 83 192 49 q 283 171 257 118 q 325 284 308 224 q 346 397 342 344 q 339 485 350 450 q 297 519 328 519 q 235 485 267 519 q 177 397 204 450 q 131 284 150 344 q 107 171 113 224 q 113 83 101 118 q 157 49 124 49 m 315 700 q 276 709 294 704 q 240 716 258 714 q 202 717 222 718 q 157 708 182 715 q 155 720 154 719 q 165 728 156 721 q 241 761 197 750 q 319 769 285 772 q 368 760 346 765 q 413 751 390 754 q 458 748 435 747 q 513 757 482 749 q 515 747 515 747 q 506 739 514 746 q 414 706 468 715 q 315 700 360 697 z "},"":{"ha":524,"x_min":-3,"x_max":578,"o":"m 539 139 q 556 147 543 149 q 578 146 568 146 q 554 92 568 119 q 521 44 540 65 q 476 11 501 24 q 419 0 451 -1 q 338 34 363 3 q 308 111 314 65 q 229 31 274 63 q 136 0 185 0 q 38 42 69 0 q 1 147 6 85 q 17 284 -3 210 q 75 421 38 358 q 164 526 113 483 q 274 568 215 568 q 344 549 317 568 q 386 499 371 531 q 402 539 394 528 q 424 553 410 550 q 460 556 438 556 q 521 560 483 556 l 510 526 q 488 453 499 490 q 467 379 478 415 q 453 333 463 364 q 436 266 444 303 q 422 190 428 229 q 415 119 415 151 q 422 67 414 88 q 450 47 429 47 q 481 56 467 47 q 506 79 494 65 q 525 109 517 93 q 539 139 533 125 m 157 49 q 224 83 192 49 q 283 171 257 118 q 325 284 308 224 q 346 397 342 344 q 339 485 350 450 q 297 519 328 519 q 235 485 267 519 q 177 397 204 450 q 131 284 150 344 q 107 171 113 224 q 113 83 101 118 q 157 49 124 49 m 254 671 q 213 689 229 671 q 199 733 196 707 q 221 778 201 760 q 265 797 240 797 q 308 778 292 797 q 321 733 324 760 q 299 689 318 707 q 254 671 279 671 m 428 671 q 385 689 401 671 q 372 733 369 707 q 394 778 375 760 q 439 797 414 797 q 481 778 465 797 q 494 733 497 760 q 472 689 492 707 q 428 671 453 671 z "},"":{"ha":524,"x_min":-3,"x_max":578,"o":"m 539 139 q 556 147 543 149 q 578 146 568 146 q 554 92 568 119 q 521 44 540 65 q 476 11 501 24 q 419 0 451 -1 q 338 34 363 3 q 308 111 314 65 q 229 31 274 63 q 136 0 185 0 q 38 42 69 0 q 1 147 6 85 q 17 284 -3 210 q 75 421 38 358 q 164 526 113 483 q 274 568 215 568 q 344 549 317 568 q 386 499 371 531 q 402 539 394 528 q 424 553 410 550 q 460 556 438 556 q 521 560 483 556 l 510 526 q 488 453 499 490 q 467 379 478 415 q 453 333 463 364 q 436 266 444 303 q 422 190 428 229 q 415 119 415 151 q 422 67 414 88 q 450 47 429 47 q 481 56 467 47 q 506 79 494 65 q 525 109 517 93 q 539 139 533 125 m 157 49 q 224 83 192 49 q 283 171 257 118 q 325 284 308 224 q 346 397 342 344 q 339 485 350 450 q 297 519 328 519 q 235 485 267 519 q 177 397 204 450 q 131 284 150 344 q 107 171 113 224 q 113 83 101 118 q 157 49 124 49 m 331 679 q 319 728 318 701 l 319 735 q 347 789 325 767 q 396 811 367 811 l 401 811 q 439 789 425 808 q 451 740 454 768 l 451 733 q 424 679 446 701 q 375 657 401 657 l 369 657 q 331 679 346 658 m 344 728 q 351 699 343 713 q 374 686 361 686 l 376 686 q 408 700 394 686 q 426 735 422 714 l 426 740 q 419 769 428 756 q 397 782 410 782 l 393 782 q 363 768 376 782 q 344 733 349 754 l 344 728 z "},"":{"ha":724,"x_min":-3,"x_max":776,"o":"m 736 139 q 753 147 742 149 q 776 146 765 146 q 681 37 749 75 q 528 0 613 -1 q 400 33 447 0 q 333 119 353 67 q 244 33 294 67 q 136 0 194 0 q 38 41 69 -1 q 1 146 6 83 q 17 282 -3 208 q 75 419 38 356 q 164 526 113 483 q 274 568 215 568 q 342 556 314 569 q 390 518 371 542 q 406 545 397 538 q 429 555 415 553 q 465 556 443 557 q 519 560 486 556 l 514 544 q 611 568 561 568 q 697 548 665 569 q 735 492 728 526 q 727 419 743 458 q 674 344 711 379 q 576 285 636 310 q 435 257 517 260 q 431 177 428 215 q 448 110 433 139 q 491 64 463 81 q 564 47 519 47 q 613 53 588 47 q 661 71 638 60 q 704 99 685 82 q 736 139 724 117 m 579 507 q 499 421 536 479 q 443 294 463 363 q 555 324 511 299 q 622 383 599 350 q 650 449 646 415 q 643 501 654 482 q 619 519 635 517 q 579 507 603 522 m 157 47 q 223 82 190 47 q 281 169 256 117 q 324 283 307 222 q 345 397 340 344 q 339 485 350 450 q 299 519 328 519 q 236 485 268 519 q 177 397 204 450 q 131 283 150 344 q 107 169 113 222 q 113 82 101 117 q 157 47 124 47 z "},"":{"ha":406,"x_min":-6,"x_max":458,"o":"m 210 0 q 194 1 199 0 l 169 -46 q 240 -104 235 -62 q 181 -183 249 -157 q 50 -203 125 -203 q 26 -193 26 -203 q 47 -183 22 -183 q 142 -160 94 -183 q 182 -99 190 -139 q 125 -53 178 -72 q 134 -36 126 -50 q 157 6 142 -22 q 47 66 83 19 q 2 175 10 113 q 14 306 -6 238 q 73 433 33 375 q 169 530 113 492 q 293 569 225 568 q 368 551 333 569 q 413 489 403 533 q 414 478 414 483 q 414 465 414 472 q 408 431 414 449 q 391 400 401 413 q 366 383 381 388 q 333 388 351 379 q 311 425 314 397 q 315 447 311 436 q 326 469 318 458 q 339 504 343 493 q 322 519 335 515 q 290 518 308 522 q 257 506 271 514 q 193 443 224 485 q 142 350 163 401 q 113 245 121 299 q 115 148 106 192 q 156 76 125 104 q 246 49 188 47 q 294 54 269 49 q 343 72 319 60 q 386 100 367 83 q 418 139 406 117 q 435 148 424 149 q 458 147 446 147 q 363 38 431 76 q 210 0 294 0 z "},"":{"ha":407,"x_min":-7,"x_max":460,"o":"m 419 140 q 437 148 425 149 q 460 147 449 147 q 364 38 432 76 q 211 0 296 0 q 72 42 121 0 q 8 148 22 85 q 10 284 -7 211 q 66 420 26 357 q 165 526 106 483 q 294 569 224 568 q 379 548 349 569 q 417 493 410 526 q 410 419 425 460 q 357 344 394 379 q 259 285 319 310 q 118 257 199 260 q 113 178 111 217 q 131 111 115 140 q 174 65 146 82 q 247 49 203 49 q 296 54 271 49 q 344 72 321 60 q 388 100 368 83 q 419 140 407 117 m 263 508 q 183 422 219 481 q 126 294 146 363 q 238 324 194 299 q 306 383 282 350 q 333 449 329 417 q 326 501 338 482 q 302 520 318 517 q 263 508 286 524 m 175 747 q 167 767 167 756 q 174 790 168 778 q 187 815 179 803 q 200 839 194 828 q 231 791 214 815 q 267 745 247 767 q 310 706 286 724 q 361 681 333 689 q 340 665 344 668 q 315 665 335 663 q 238 696 274 672 q 175 747 203 719 z "},"":{"ha":407,"x_min":-7,"x_max":460,"o":"m 419 140 q 437 148 425 149 q 460 147 449 147 q 364 38 432 76 q 211 0 296 0 q 72 42 121 0 q 8 148 22 85 q 10 284 -7 211 q 66 420 26 357 q 165 526 106 483 q 294 569 224 568 q 379 548 349 569 q 417 493 410 526 q 410 419 425 460 q 357 344 394 379 q 259 285 319 310 q 118 257 199 260 q 113 178 111 217 q 131 111 115 140 q 174 65 146 82 q 247 49 203 49 q 296 54 271 49 q 344 72 321 60 q 388 100 368 83 q 419 140 407 117 m 263 508 q 183 422 219 481 q 126 294 146 363 q 238 324 194 299 q 306 383 282 350 q 333 449 329 417 q 326 501 338 482 q 302 520 318 517 q 263 508 286 524 m 204 665 q 190 664 194 664 q 181 666 185 664 q 172 672 176 668 q 160 681 168 675 q 211 706 188 689 q 254 745 235 724 q 290 791 274 767 q 321 839 307 815 q 333 817 325 829 q 347 792 342 804 q 353 767 353 779 q 346 747 354 756 q 283 696 318 719 q 204 665 247 672 z "},"":{"ha":407,"x_min":-7,"x_max":460,"o":"m 419 140 q 437 148 425 149 q 460 147 449 147 q 364 38 432 76 q 211 0 296 0 q 72 42 121 0 q 8 148 22 85 q 10 284 -7 211 q 66 420 26 357 q 165 526 106 483 q 294 569 224 568 q 379 548 349 569 q 417 493 410 526 q 410 419 425 460 q 357 344 394 379 q 259 285 319 310 q 118 257 199 260 q 113 178 111 217 q 131 111 115 140 q 174 65 146 82 q 247 49 203 49 q 296 54 271 49 q 344 72 321 60 q 388 100 368 83 q 419 140 407 117 m 263 508 q 183 422 219 481 q 126 294 146 363 q 238 324 194 299 q 306 383 282 350 q 333 449 329 417 q 326 501 338 482 q 302 520 318 517 q 263 508 286 524 m 388 631 q 362 647 376 636 q 334 672 347 658 q 309 701 321 686 q 290 731 297 717 q 206 669 247 692 q 118 639 165 646 q 119 650 119 649 q 125 654 119 651 q 220 727 178 682 q 307 839 263 772 q 322 785 313 813 q 342 730 331 757 q 369 678 354 703 q 401 636 383 654 q 396 629 397 631 q 388 631 394 628 z "},"":{"ha":407,"x_min":-7,"x_max":460,"o":"m 419 140 q 437 148 425 149 q 460 147 449 147 q 364 38 432 76 q 211 0 296 0 q 72 42 121 0 q 8 148 22 85 q 10 284 -7 211 q 66 420 26 357 q 165 526 106 483 q 294 569 224 568 q 379 548 349 569 q 417 493 410 526 q 410 419 425 460 q 357 344 394 379 q 259 285 319 310 q 118 257 199 260 q 113 178 111 217 q 131 111 115 140 q 174 65 146 82 q 247 49 203 49 q 296 54 271 49 q 344 72 321 60 q 388 100 368 83 q 419 140 407 117 m 263 508 q 183 422 219 481 q 126 294 146 363 q 238 324 194 299 q 306 383 282 350 q 333 449 329 417 q 326 501 338 482 q 302 520 318 517 q 263 508 286 524 m 176 671 q 135 689 151 671 q 121 733 118 707 q 143 778 124 760 q 188 797 163 797 q 230 778 214 797 q 243 733 246 760 q 221 689 240 707 q 176 671 201 671 m 350 671 q 308 689 324 671 q 294 733 292 707 q 317 778 297 760 q 361 797 336 797 q 403 778 388 797 q 417 733 419 760 q 394 689 414 707 q 350 671 375 671 z "},"":{"ha":218,"x_min":0,"x_max":271,"o":"m 232 138 q 248 147 236 149 q 271 146 260 146 q 249 92 263 119 q 215 44 235 65 q 169 11 194 24 q 113 0 144 -1 q 44 22 68 1 q 10 75 19 43 q 1 147 0 107 q 10 226 3 186 q 26 305 17 267 q 44 372 36 343 q 62 435 53 403 q 81 500 71 468 q 97 539 89 528 q 118 553 104 550 q 155 556 132 557 q 214 560 178 556 q 209 543 211 553 q 204 526 207 533 q 182 453 193 490 q 160 381 171 415 q 147 334 156 365 q 129 266 138 303 q 115 190 121 229 q 108 119 108 151 q 115 67 107 88 q 143 47 122 47 q 174 56 160 47 q 199 78 188 65 q 218 108 210 92 q 232 138 226 124 m 63 747 q 55 767 54 756 q 61 790 56 778 q 74 815 67 803 q 88 839 82 828 q 118 791 101 815 q 154 745 135 767 q 197 706 174 724 q 249 681 221 689 q 227 665 232 668 q 203 665 222 663 q 126 696 161 672 q 63 747 90 719 z "},"":{"ha":218,"x_min":0,"x_max":271,"o":"m 232 138 q 248 147 236 149 q 271 146 260 146 q 249 92 263 119 q 215 44 235 65 q 169 11 194 24 q 113 0 144 -1 q 44 22 68 1 q 10 75 19 43 q 1 147 0 107 q 10 226 3 186 q 26 305 17 267 q 44 372 36 343 q 62 435 53 403 q 81 500 71 468 q 97 539 89 528 q 118 553 104 550 q 155 556 132 557 q 214 560 178 556 q 209 543 211 553 q 204 526 207 533 q 182 453 193 490 q 160 381 171 415 q 147 334 156 365 q 129 266 138 303 q 115 190 121 229 q 108 119 108 151 q 115 67 107 88 q 143 47 122 47 q 174 56 160 47 q 199 78 188 65 q 218 108 210 92 q 232 138 226 124 m 108 665 q 94 664 99 664 q 85 666 89 664 q 76 672 81 668 q 64 681 72 675 q 115 706 92 689 q 158 745 139 724 q 194 791 178 767 q 225 839 211 815 q 238 817 229 829 q 251 792 246 804 q 258 767 257 779 q 250 747 258 756 q 187 696 222 719 q 108 665 151 672 z "},"":{"ha":218,"x_min":0,"x_max":297,"o":"m 232 138 q 248 147 236 149 q 271 146 260 146 q 249 92 263 119 q 215 44 235 65 q 169 11 194 24 q 113 0 144 -1 q 44 22 68 1 q 10 75 19 43 q 1 147 0 107 q 10 226 3 186 q 26 305 17 267 q 44 372 36 343 q 62 435 53 403 q 81 500 71 468 q 97 539 89 528 q 118 553 104 550 q 155 556 132 557 q 214 560 178 556 q 209 543 211 553 q 204 526 207 533 q 182 453 193 490 q 160 381 171 415 q 147 334 156 365 q 129 266 138 303 q 115 190 121 229 q 108 119 108 151 q 115 67 107 88 q 143 47 122 47 q 174 56 160 47 q 199 78 188 65 q 218 108 210 92 q 232 138 226 124 m 283 631 q 258 647 272 636 q 230 672 243 658 q 205 701 217 686 q 186 731 193 717 q 102 669 143 692 q 14 639 61 646 q 15 650 15 649 q 21 654 15 651 q 116 727 74 682 q 203 839 158 772 q 217 785 208 813 q 238 730 226 757 q 265 678 250 703 q 297 636 279 654 q 292 629 293 631 q 283 631 290 628 z "},"":{"ha":218,"x_min":0,"x_max":317,"o":"m 232 138 q 248 147 236 149 q 271 146 260 146 q 249 92 263 119 q 215 44 235 65 q 169 11 194 24 q 113 0 144 -1 q 44 22 68 1 q 10 75 19 43 q 1 147 0 107 q 10 226 3 186 q 26 305 17 267 q 44 372 36 343 q 62 435 53 403 q 81 500 71 468 q 97 539 89 528 q 118 553 104 550 q 155 556 132 557 q 214 560 178 556 q 209 543 211 553 q 204 526 207 533 q 182 453 193 490 q 160 381 171 415 q 147 334 156 365 q 129 266 138 303 q 115 190 121 229 q 108 119 108 151 q 115 67 107 88 q 143 47 122 47 q 174 56 160 47 q 199 78 188 65 q 218 108 210 92 q 232 138 226 124 m 74 671 q 32 689 49 671 q 18 733 15 707 q 40 778 21 760 q 85 797 60 797 q 127 778 111 797 q 140 733 143 760 q 118 689 138 707 q 74 671 99 671 m 247 671 q 205 689 221 671 q 192 733 189 707 q 214 778 194 760 q 258 797 233 797 q 301 778 285 797 q 314 733 317 760 q 292 689 311 707 q 247 671 272 671 z "},"":{"ha":544,"x_min":-31,"x_max":597,"o":"m 558 138 q 574 147 561 149 q 597 146 586 146 q 574 92 588 119 q 540 44 560 65 q 494 11 519 24 q 438 0 469 -1 q 363 28 388 3 q 331 94 339 54 q 329 182 324 133 q 345 278 335 231 q 367 368 356 326 q 385 438 379 410 q 383 476 389 461 q 361 492 378 492 q 310 467 338 492 q 256 408 283 443 q 206 332 229 372 q 165 261 182 292 q 138 164 151 213 q 108 64 124 115 q 89 26 100 38 q 61 12 78 15 q 22 8 44 8 q -31 4 -1 8 q 45 256 10 133 q 117 503 81 378 q 134 540 125 529 q 158 554 143 551 q 194 556 172 557 q 253 560 217 556 l 243 526 q 225 466 235 497 q 207 406 215 435 q 249 465 226 436 q 298 517 272 494 q 351 554 324 540 q 408 568 379 568 q 446 560 428 568 q 476 535 464 551 q 493 492 488 518 q 493 432 499 467 q 483 386 492 419 q 465 310 475 353 q 446 222 454 268 q 435 137 438 175 q 439 74 432 99 q 468 49 446 49 q 499 57 485 49 q 524 78 513 65 q 543 108 535 92 q 558 138 551 124 m 315 700 q 276 709 294 704 q 240 716 258 714 q 202 717 222 718 q 157 708 182 715 q 155 720 154 719 q 165 728 156 721 q 241 761 197 750 q 319 769 285 772 q 368 760 346 765 q 413 751 390 754 q 458 748 435 747 q 513 757 482 749 q 515 747 515 747 q 506 739 514 746 q 414 706 468 715 q 315 700 360 697 z "},"":{"ha":442,"x_min":-3,"x_max":432,"o":"m 274 568 q 383 526 346 568 q 426 422 419 485 q 413 286 432 360 q 353 149 393 213 q 258 43 314 86 q 135 0 201 0 q 36 42 68 0 q 1 146 4 83 q 17 282 -3 208 q 74 419 36 356 q 164 524 113 482 q 274 568 215 567 m 157 49 q 223 83 190 49 q 281 170 256 118 q 324 283 307 222 q 344 397 340 344 q 338 483 349 449 q 297 518 328 518 q 235 483 267 518 q 177 397 204 449 q 131 283 150 344 q 107 170 113 222 q 113 83 101 118 q 157 49 124 49 m 185 747 q 177 767 176 756 q 183 790 178 778 q 197 815 189 803 q 210 839 204 828 q 240 791 224 815 q 276 745 257 767 q 319 706 296 724 q 371 681 343 689 q 349 665 354 668 q 325 665 344 663 q 248 696 283 672 q 185 747 213 719 z "},"":{"ha":442,"x_min":-3,"x_max":432,"o":"m 274 568 q 383 526 346 568 q 426 422 419 485 q 413 286 432 360 q 353 149 393 213 q 258 43 314 86 q 135 0 201 0 q 36 42 68 0 q 1 146 4 83 q 17 282 -3 208 q 74 419 36 356 q 164 524 113 482 q 274 568 215 567 m 157 49 q 223 83 190 49 q 281 170 256 118 q 324 283 307 222 q 344 397 340 344 q 338 483 349 449 q 297 518 328 518 q 235 483 267 518 q 177 397 204 449 q 131 283 150 344 q 107 170 113 222 q 113 83 101 118 q 157 49 124 49 m 244 665 q 230 664 235 664 q 221 666 225 664 q 213 672 217 668 q 200 681 208 675 q 251 706 228 689 q 294 745 275 724 q 331 791 314 767 q 361 839 347 815 q 374 817 365 829 q 388 792 382 804 q 394 767 393 779 q 386 747 394 756 q 323 696 358 719 q 244 665 288 672 z "},"":{"ha":442,"x_min":-3,"x_max":432,"o":"m 274 568 q 383 526 346 568 q 426 422 419 485 q 413 286 432 360 q 353 149 393 213 q 258 43 314 86 q 135 0 201 0 q 36 42 68 0 q 1 146 4 83 q 17 282 -3 208 q 74 419 36 356 q 164 524 113 482 q 274 568 215 567 m 157 49 q 223 83 190 49 q 281 170 256 118 q 324 283 307 222 q 344 397 340 344 q 338 483 349 449 q 297 518 328 518 q 235 483 267 518 q 177 397 204 449 q 131 283 150 344 q 107 170 113 222 q 113 83 101 118 q 157 49 124 49 m 388 631 q 362 647 376 636 q 334 672 347 658 q 309 701 321 686 q 290 731 297 717 q 206 669 247 692 q 118 639 165 646 q 119 650 119 649 q 125 654 119 651 q 220 727 178 682 q 307 839 263 772 q 322 785 313 813 q 342 730 331 757 q 369 678 354 703 q 401 636 383 654 q 396 629 397 631 q 388 631 394 628 z "},"":{"ha":442,"x_min":-3,"x_max":451,"o":"m 274 568 q 383 526 346 568 q 426 422 419 485 q 413 286 432 360 q 353 149 393 213 q 258 43 314 86 q 135 0 201 0 q 36 42 68 0 q 1 146 4 83 q 17 282 -3 208 q 74 419 36 356 q 164 524 113 482 q 274 568 215 567 m 157 49 q 223 83 190 49 q 281 170 256 118 q 324 283 307 222 q 344 397 340 344 q 338 483 349 449 q 297 518 328 518 q 235 483 267 518 q 177 397 204 449 q 131 283 150 344 q 107 170 113 222 q 113 83 101 118 q 157 49 124 49 m 251 700 q 213 709 231 704 q 176 716 194 714 q 138 717 158 718 q 93 708 118 715 q 91 720 90 719 q 101 728 92 721 q 177 761 133 750 q 256 769 221 772 q 304 760 282 765 q 349 751 326 754 q 394 748 371 747 q 449 757 418 749 q 451 747 451 747 q 442 739 450 746 q 350 706 404 715 q 251 700 296 697 z "},"":{"ha":442,"x_min":-3,"x_max":432,"o":"m 274 568 q 383 526 346 568 q 426 422 419 485 q 413 286 432 360 q 353 149 393 213 q 258 43 314 86 q 135 0 201 0 q 36 42 68 0 q 1 146 4 83 q 17 282 -3 208 q 74 419 36 356 q 164 524 113 482 q 274 568 215 567 m 157 49 q 223 83 190 49 q 281 170 256 118 q 324 283 307 222 q 344 397 340 344 q 338 483 349 449 q 297 518 328 518 q 235 483 267 518 q 177 397 204 449 q 131 283 150 344 q 107 170 113 222 q 113 83 101 118 q 157 49 124 49 m 179 671 q 138 689 154 671 q 124 733 121 707 q 146 778 126 760 q 190 797 165 797 q 233 778 217 797 q 246 733 249 760 q 224 689 243 707 q 179 671 204 671 m 353 671 q 310 689 326 671 q 297 733 294 707 q 319 778 300 760 q 364 797 339 797 q 406 778 390 797 q 419 733 422 760 q 397 689 417 707 q 353 671 378 671 z "},"":{"ha":442,"x_min":0,"x_max":428,"o":"m 329 560 q 404 497 381 543 q 428 390 428 450 q 406 263 428 329 q 348 140 385 197 q 260 44 311 83 q 151 0 210 6 q 141 -33 146 -18 q 132 -64 136 -49 q 126 -79 129 -75 q 118 -84 124 -83 q 103 -84 113 -85 q 76 -83 93 -83 q 91 -43 83 -64 q 107 1 99 -22 q 26 57 51 11 q 1 165 1 103 q 22 299 0 228 q 81 429 43 369 q 167 528 118 489 q 274 568 217 568 l 285 568 q 296 608 290 589 q 307 646 301 628 q 324 663 311 664 q 364 661 336 661 q 349 614 357 639 q 329 560 340 589 m 267 510 q 215 460 240 494 q 169 381 190 425 q 133 287 149 336 q 110 192 117 238 q 106 111 103 147 q 126 58 110 75 q 199 284 163 164 q 267 510 236 404 m 167 49 q 227 86 197 53 q 281 168 257 119 q 321 273 304 217 q 344 379 338 329 q 344 467 350 429 q 315 515 338 504 q 278 401 297 461 q 239 280 258 340 q 201 160 219 219 q 167 49 182 100 z "},"":{"ha":490,"x_min":0,"x_max":543,"o":"m 504 140 q 521 149 508 150 q 543 147 533 147 q 519 94 533 121 q 486 45 506 67 q 442 11 467 24 q 385 0 417 -1 q 305 34 329 3 q 275 110 281 65 q 246 67 263 88 q 209 32 229 47 q 165 8 189 17 q 113 0 142 -1 q 45 23 69 3 q 10 75 21 43 q 1 147 0 107 q 10 228 3 188 q 26 306 17 268 q 44 374 36 344 q 62 436 53 404 q 81 501 71 468 q 96 540 89 529 q 116 553 103 551 q 152 555 129 556 q 214 560 175 554 q 188 470 201 515 q 160 381 174 425 q 147 335 156 365 q 129 267 138 304 q 115 192 121 231 q 108 121 108 153 q 115 69 107 89 q 143 49 122 49 q 189 64 168 49 q 226 101 210 79 q 256 148 243 124 q 275 190 268 172 q 292 275 283 236 q 310 350 300 314 q 329 422 319 386 q 351 499 339 457 q 367 539 360 528 q 389 553 375 550 q 426 556 403 556 q 486 560 449 556 q 458 469 472 515 q 432 381 444 424 q 419 335 428 365 q 401 267 410 304 q 387 192 393 231 q 380 121 381 153 q 387 69 379 89 q 415 49 394 49 q 446 58 432 49 q 471 81 460 67 q 490 110 482 94 q 504 140 499 126 m 210 747 q 202 767 201 756 q 208 790 203 778 q 222 815 214 803 q 235 839 229 828 q 265 791 249 815 q 301 745 282 767 q 344 706 321 724 q 396 681 368 689 q 374 665 379 668 q 350 665 369 663 q 273 696 308 672 q 210 747 238 719 z "},"":{"ha":490,"x_min":0,"x_max":543,"o":"m 504 140 q 521 149 508 150 q 543 147 533 147 q 519 94 533 121 q 486 45 506 67 q 442 11 467 24 q 385 0 417 -1 q 305 34 329 3 q 275 110 281 65 q 246 67 263 88 q 209 32 229 47 q 165 8 189 17 q 113 0 142 -1 q 45 23 69 3 q 10 75 21 43 q 1 147 0 107 q 10 228 3 188 q 26 306 17 268 q 44 374 36 344 q 62 436 53 404 q 81 501 71 468 q 96 540 89 529 q 116 553 103 551 q 152 555 129 556 q 214 560 175 554 q 188 470 201 515 q 160 381 174 425 q 147 335 156 365 q 129 267 138 304 q 115 192 121 231 q 108 121 108 153 q 115 69 107 89 q 143 49 122 49 q 189 64 168 49 q 226 101 210 79 q 256 148 243 124 q 275 190 268 172 q 292 275 283 236 q 310 350 300 314 q 329 422 319 386 q 351 499 339 457 q 367 539 360 528 q 389 553 375 550 q 426 556 403 556 q 486 560 449 556 q 458 469 472 515 q 432 381 444 424 q 419 335 428 365 q 401 267 410 304 q 387 192 393 231 q 380 121 381 153 q 387 69 379 89 q 415 49 394 49 q 446 58 432 49 q 471 81 460 67 q 490 110 482 94 q 504 140 499 126 m 271 665 q 256 664 261 664 q 247 666 251 664 q 239 672 243 668 q 226 681 235 675 q 278 706 254 689 q 321 745 301 724 q 357 791 340 767 q 388 839 374 815 q 400 817 392 829 q 414 792 408 804 q 420 767 419 779 q 413 747 421 756 q 349 696 385 719 q 271 665 314 672 z "},"":{"ha":490,"x_min":0,"x_max":543,"o":"m 504 140 q 521 149 508 150 q 543 147 533 147 q 519 94 533 121 q 486 45 506 67 q 442 11 467 24 q 385 0 417 -1 q 305 34 329 3 q 275 110 281 65 q 246 67 263 88 q 209 32 229 47 q 165 8 189 17 q 113 0 142 -1 q 45 23 69 3 q 10 75 21 43 q 1 147 0 107 q 10 228 3 188 q 26 306 17 268 q 44 374 36 344 q 62 436 53 404 q 81 501 71 468 q 96 540 89 529 q 116 553 103 551 q 152 555 129 556 q 214 560 175 554 q 188 470 201 515 q 160 381 174 425 q 147 335 156 365 q 129 267 138 304 q 115 192 121 231 q 108 121 108 153 q 115 69 107 89 q 143 49 122 49 q 189 64 168 49 q 226 101 210 79 q 256 148 243 124 q 275 190 268 172 q 292 275 283 236 q 310 350 300 314 q 329 422 319 386 q 351 499 339 457 q 367 539 360 528 q 389 553 375 550 q 426 556 403 556 q 486 560 449 556 q 458 469 472 515 q 432 381 444 424 q 419 335 428 365 q 401 267 410 304 q 387 192 393 231 q 380 121 381 153 q 387 69 379 89 q 415 49 394 49 q 446 58 432 49 q 471 81 460 67 q 490 110 482 94 q 504 140 499 126 m 428 631 q 402 647 417 636 q 374 672 388 658 q 349 701 361 686 q 331 731 338 717 q 247 669 288 692 q 158 639 206 646 q 160 650 160 649 q 165 654 160 651 q 260 727 218 682 q 347 839 303 772 q 362 785 353 813 q 383 730 371 757 q 409 678 394 703 q 442 636 424 654 q 436 629 438 631 q 428 631 435 628 z "},"":{"ha":490,"x_min":0,"x_max":543,"o":"m 504 140 q 521 149 508 150 q 543 147 533 147 q 519 94 533 121 q 486 45 506 67 q 442 11 467 24 q 385 0 417 -1 q 305 34 329 3 q 275 110 281 65 q 246 67 263 88 q 209 32 229 47 q 165 8 189 17 q 113 0 142 -1 q 45 23 69 3 q 10 75 21 43 q 1 147 0 107 q 10 228 3 188 q 26 306 17 268 q 44 374 36 344 q 62 436 53 404 q 81 501 71 468 q 96 540 89 529 q 116 553 103 551 q 152 555 129 556 q 214 560 175 554 q 188 470 201 515 q 160 381 174 425 q 147 335 156 365 q 129 267 138 304 q 115 192 121 231 q 108 121 108 153 q 115 69 107 89 q 143 49 122 49 q 189 64 168 49 q 226 101 210 79 q 256 148 243 124 q 275 190 268 172 q 292 275 283 236 q 310 350 300 314 q 329 422 319 386 q 351 499 339 457 q 367 539 360 528 q 389 553 375 550 q 426 556 403 556 q 486 560 449 556 q 458 469 472 515 q 432 381 444 424 q 419 335 428 365 q 401 267 410 304 q 387 192 393 231 q 380 121 381 153 q 387 69 379 89 q 415 49 394 49 q 446 58 432 49 q 471 81 460 67 q 490 110 482 94 q 504 140 499 126 m 207 671 q 165 689 182 671 q 151 733 149 707 q 174 778 154 760 q 218 797 193 797 q 260 778 244 797 q 274 733 276 760 q 251 689 271 707 q 207 671 232 671 m 381 671 q 338 689 354 671 q 325 733 322 707 q 347 778 328 760 q 392 797 367 797 q 434 778 418 797 q 447 733 450 760 q 425 689 444 707 q 381 671 406 671 z "},"":{"ha":479,"x_min":-29,"x_max":532,"o":"m 493 139 q 510 147 497 147 q 532 146 522 146 q 456 31 506 71 q 329 -28 406 -8 q 290 -114 313 -71 q 235 -192 267 -157 q 163 -249 204 -226 q 69 -271 122 -271 q -8 -237 13 -271 q -15 -164 -29 -203 q 23 -103 -3 -129 q 81 -57 49 -76 q 150 -24 114 -37 q 219 -1 186 -11 q 228 29 224 14 q 238 60 232 44 q 182 15 214 32 q 110 0 150 -3 q 41 22 65 1 q 6 74 17 43 q -3 146 -4 106 q 6 226 -1 186 q 23 304 13 267 q 42 371 33 342 q 58 434 50 401 q 76 499 67 467 q 94 538 85 526 q 117 553 103 550 q 153 556 131 556 q 211 560 175 556 q 206 543 208 553 q 201 526 204 533 q 179 453 190 490 q 157 379 168 415 q 144 333 153 364 q 126 266 135 303 q 112 191 118 229 q 105 121 106 153 q 112 69 104 89 q 140 49 119 49 q 189 67 167 49 q 229 109 211 85 q 259 159 247 133 q 278 200 271 185 q 317 346 297 272 q 358 499 338 419 q 374 538 365 526 q 397 553 382 550 q 434 556 411 556 q 494 560 457 556 q 490 543 492 553 q 485 526 488 533 q 415 269 449 390 q 347 22 382 147 q 437 61 403 35 q 493 139 471 88 m 68 -224 q 118 -203 96 -222 q 156 -159 140 -185 q 184 -105 172 -133 q 203 -53 196 -76 q 151 -70 178 -60 q 100 -97 124 -81 q 58 -133 76 -112 q 29 -178 39 -153 q 31 -210 22 -194 q 68 -224 40 -226 m 210 747 q 202 767 201 756 q 208 790 203 778 q 222 815 214 803 q 235 839 229 828 q 265 791 249 815 q 301 745 282 767 q 344 706 321 724 q 396 681 368 689 q 374 665 379 668 q 350 665 369 663 q 273 696 308 672 q 210 747 238 719 z "},"":{"ha":479,"x_min":-29,"x_max":532,"o":"m 493 139 q 510 147 497 147 q 532 146 522 146 q 456 31 506 71 q 329 -28 406 -8 q 290 -114 313 -71 q 235 -192 267 -157 q 163 -249 204 -226 q 69 -271 122 -271 q -8 -237 13 -271 q -15 -164 -29 -203 q 23 -103 -3 -129 q 81 -57 49 -76 q 150 -24 114 -37 q 219 -1 186 -11 q 228 29 224 14 q 238 60 232 44 q 182 15 214 32 q 110 0 150 -3 q 41 22 65 1 q 6 74 17 43 q -3 146 -4 106 q 6 226 -1 186 q 23 304 13 267 q 42 371 33 342 q 58 434 50 401 q 76 499 67 467 q 94 538 85 526 q 117 553 103 550 q 153 556 131 556 q 211 560 175 556 q 206 543 208 553 q 201 526 204 533 q 179 453 190 490 q 157 379 168 415 q 144 333 153 364 q 126 266 135 303 q 112 191 118 229 q 105 121 106 153 q 112 69 104 89 q 140 49 119 49 q 189 67 167 49 q 229 109 211 85 q 259 159 247 133 q 278 200 271 185 q 317 346 297 272 q 358 499 338 419 q 374 538 365 526 q 397 553 382 550 q 434 556 411 556 q 494 560 457 556 q 490 543 492 553 q 485 526 488 533 q 415 269 449 390 q 347 22 382 147 q 437 61 403 35 q 493 139 471 88 m 68 -224 q 118 -203 96 -222 q 156 -159 140 -185 q 184 -105 172 -133 q 203 -53 196 -76 q 151 -70 178 -60 q 100 -97 124 -81 q 58 -133 76 -112 q 29 -178 39 -153 q 31 -210 22 -194 q 68 -224 40 -226 m 228 671 q 186 689 203 671 q 172 733 169 707 q 194 778 175 760 q 239 797 214 797 q 281 778 265 797 q 294 733 297 760 q 272 689 292 707 q 228 671 253 671 m 401 671 q 359 689 375 671 q 346 733 343 707 q 368 778 349 760 q 413 797 388 797 q 455 778 439 797 q 468 733 471 760 q 446 689 465 707 q 401 671 426 671 z "},"":{"ha":542,"x_min":-100,"x_max":596,"o":"m 557 139 q 574 147 561 149 q 596 146 586 146 q 572 93 586 119 q 539 45 558 67 q 494 11 519 24 q 438 0 469 -1 q 363 28 388 3 q 331 94 339 54 q 329 181 324 133 q 345 277 335 229 q 367 367 356 325 q 385 438 379 410 q 383 476 389 461 q 361 492 376 492 q 308 466 336 492 q 252 403 279 440 q 201 326 225 367 q 161 254 176 285 q 97 33 128 140 q 43 -153 67 -74 q 26 -200 33 -186 q 6 -219 19 -214 q -31 -224 -7 -224 q -100 -228 -56 -224 q -59 -90 -82 -167 q -11 70 -36 -14 q 39 242 14 154 q 88 415 64 331 q 135 575 113 499 q 176 714 158 651 q 196 752 185 740 q 223 768 207 764 q 261 772 239 772 q 314 775 283 771 q 306 746 310 760 q 296 717 301 732 q 254 574 278 654 q 204 401 231 493 q 247 463 224 432 q 295 516 269 493 q 349 553 321 539 q 407 568 378 568 q 445 560 428 568 q 475 536 463 553 q 493 494 488 519 q 493 433 499 468 q 482 388 490 421 q 463 311 474 354 q 444 222 453 268 q 434 138 436 176 q 439 74 432 99 q 468 49 446 49 q 499 58 485 49 q 524 80 513 67 q 543 109 535 93 q 557 139 551 125 z "},"":{"ha":497,"x_min":-4,"x_max":703,"o":"m 700 679 q 702 669 703 669 q 690 663 701 668 q 620 638 661 647 q 538 626 579 629 q 500 506 519 569 q 463 381 481 442 q 419 265 449 331 q 347 141 389 200 q 251 41 304 82 q 135 0 197 0 q 36 42 68 0 q 0 148 4 85 q 16 285 -4 211 q 74 422 36 358 q 163 527 111 485 q 272 569 214 569 q 341 551 314 569 q 383 501 368 533 q 403 567 393 535 q 421 631 413 600 q 344 641 381 638 q 254 633 307 644 q 252 644 251 643 q 264 651 253 644 q 349 681 300 671 q 440 690 397 690 q 444 706 443 699 q 449 719 446 713 q 466 760 457 749 q 490 774 475 771 q 527 776 504 776 q 589 779 550 775 q 583 765 586 772 q 578 751 581 757 q 567 717 574 736 q 554 675 561 699 q 620 669 586 669 q 700 679 654 668 m 156 49 q 222 83 190 49 q 280 171 254 118 q 323 284 306 224 q 344 397 340 344 q 338 485 349 450 q 296 519 326 519 q 234 485 265 519 q 176 397 203 450 q 130 284 149 344 q 106 171 111 224 q 111 83 100 118 q 156 49 122 49 z "},"":{"ha":583,"x_min":13,"x_max":556,"o":"m 554 683 q 534 638 554 651 q 492 629 514 625 q 458 655 471 633 q 461 714 446 676 q 453 738 465 726 q 408 749 440 749 q 346 724 364 749 q 333 661 328 699 q 368 562 340 608 q 427 468 396 515 q 485 371 458 421 q 521 263 513 321 q 508 130 532 186 q 439 37 483 74 q 336 -16 394 0 q 221 -29 278 -32 q 99 2 144 -25 q 33 67 53 29 q 15 148 13 106 q 36 225 17 190 q 90 279 56 260 q 168 292 124 299 q 122 208 138 256 q 113 119 107 161 q 149 47 119 76 q 236 17 178 18 q 301 29 268 17 q 358 66 333 42 q 394 126 382 90 q 401 210 407 163 q 365 326 393 272 q 306 429 338 379 q 248 527 275 479 q 214 625 221 575 q 222 690 210 658 q 258 744 233 721 q 321 781 283 767 q 406 794 358 794 q 488 777 457 794 q 535 740 519 760 q 550 714 544 729 q 554 683 556 699 m 307 925 q 299 945 299 933 q 306 969 300 957 q 319 994 311 982 q 332 1017 326 1007 q 363 969 346 993 q 399 923 379 944 q 442 884 418 901 q 493 858 465 867 q 472 844 476 847 q 447 843 467 840 q 369 874 404 850 q 307 925 335 897 z "},"":{"ha":788,"x_min":8,"x_max":815,"o":"m 790 717 q 706 623 742 665 q 639 543 669 581 q 578 472 608 506 q 513 403 549 438 q 589 431 560 425 q 643 436 618 436 q 713 403 690 435 q 738 322 736 372 q 724 209 740 272 q 677 80 708 146 q 601 -49 646 14 q 502 -160 557 -111 q 383 -240 447 -210 q 251 -269 319 -269 q 103 -230 157 -269 q 28 -131 49 -190 q 17 -3 8 -72 q 57 126 26 67 q 137 226 88 186 q 246 268 186 267 q 308 249 286 269 q 346 192 331 228 q 297 197 321 197 q 253 192 274 196 q 147 144 189 179 q 82 62 104 108 q 58 -35 60 15 q 74 -126 57 -85 q 126 -195 90 -168 q 217 -222 163 -222 q 310 -197 263 -222 q 401 -131 357 -172 q 483 -36 444 -89 q 551 72 521 17 q 599 179 581 126 q 623 274 618 232 q 616 341 628 315 q 572 368 604 367 q 515 351 551 368 q 419 303 478 335 q 404 323 410 317 q 399 334 399 329 q 404 344 399 339 q 421 361 410 349 l 669 653 q 625 657 653 651 q 564 670 597 663 q 495 683 531 678 q 429 683 460 688 q 383 667 401 681 q 356 640 364 654 q 352 613 347 625 q 379 597 357 600 q 402 598 386 596 q 428 599 418 600 q 454 581 443 596 q 463 543 465 565 q 439 503 458 519 q 389 490 419 486 q 338 517 358 494 q 312 572 318 540 q 313 640 306 604 q 343 706 321 675 q 403 757 365 736 q 497 779 442 778 q 579 776 538 781 q 660 767 621 771 q 733 763 699 763 q 793 779 768 764 q 810 758 804 765 q 815 747 815 751 q 808 735 814 742 q 790 717 803 729 m 581 843 q 566 842 571 842 q 557 844 561 842 q 549 849 553 846 q 536 858 544 853 q 588 884 564 867 q 631 923 611 901 q 667 969 650 944 q 696 1017 683 993 q 709 994 701 1007 q 722 969 717 982 q 729 945 728 957 q 722 925 731 933 q 658 874 693 897 q 581 843 624 850 z "},"":{"ha":428,"x_min":-12,"x_max":394,"o":"m 292 569 q 256 533 257 558 q 269 473 254 508 q 310 394 285 438 q 357 304 336 351 q 386 209 378 257 q 375 115 394 161 q 299 31 351 63 q 171 0 247 0 q 113 7 142 0 q 60 27 83 14 q 19 61 36 40 q -4 111 1 82 q 4 193 -12 158 q 26 218 13 210 q 53 228 39 226 q 77 294 64 258 q 103 364 90 329 q 128 431 117 399 q 149 486 140 463 q 156 538 147 514 q 182 582 164 563 q 209 601 197 597 q 233 601 221 604 q 258 588 244 597 q 292 569 272 579 m 265 151 q 266 212 272 182 q 246 271 260 242 q 215 328 232 300 q 185 385 199 357 l 168 418 q 127 315 149 369 q 88 218 106 261 q 101 192 99 208 q 90 156 104 176 q 74 135 83 144 q 61 115 65 125 q 61 92 57 104 q 86 64 65 79 q 136 49 106 49 q 221 78 188 49 q 265 151 254 107 m 168 665 q 153 664 158 664 q 144 666 149 664 q 136 672 140 668 q 124 681 132 675 q 175 706 151 689 q 218 745 199 724 q 254 791 238 767 q 285 839 271 815 q 297 817 289 829 q 311 792 306 804 q 317 767 317 779 q 310 747 318 756 q 247 696 282 719 q 168 665 211 672 z "},"":{"ha":583,"x_min":13,"x_max":617,"o":"m 414 924 q 511 981 463 960 q 617 1010 560 1003 q 615 1000 615 1001 q 608 996 615 999 q 495 926 546 968 q 393 822 444 885 q 352 924 378 871 q 282 1013 326 978 q 289 1019 288 1018 q 297 1017 290 1019 q 328 1001 311 1011 q 362 978 346 990 q 392 951 378 965 q 414 924 406 936 m 554 683 q 534 638 554 651 q 492 629 514 625 q 458 655 471 633 q 461 714 446 676 q 453 738 465 726 q 408 749 440 749 q 346 724 364 749 q 333 661 328 699 q 368 562 340 608 q 427 468 396 515 q 485 371 458 421 q 521 263 513 321 q 508 130 532 186 q 439 37 483 74 q 336 -16 394 0 q 221 -29 278 -32 q 99 2 144 -25 q 33 67 53 29 q 15 148 13 106 q 36 225 17 190 q 90 279 56 260 q 168 292 124 299 q 122 208 138 256 q 113 119 107 161 q 149 47 119 76 q 236 17 178 18 q 301 29 268 17 q 358 66 333 42 q 394 126 382 90 q 401 210 407 163 q 365 326 393 272 q 306 429 338 379 q 248 527 275 479 q 214 625 221 575 q 222 690 210 658 q 258 744 233 721 q 321 781 283 767 q 406 794 358 794 q 488 777 457 794 q 535 740 519 760 q 550 714 544 729 q 554 683 556 699 z "},"":{"ha":654,"x_min":8,"x_max":1064,"o":"m 1010 938 q 1052 917 1040 938 q 1064 876 1064 897 q 1055 833 1064 860 q 1025 781 1046 807 q 969 735 1004 754 q 882 717 935 717 q 783 723 839 717 q 665 736 728 729 q 623 591 643 661 q 581 446 603 521 q 550 338 567 399 q 514 215 533 276 q 471 97 494 153 q 421 6 447 42 q 350 -58 390 -33 q 251 -85 310 -82 q 105 -49 158 -87 q 30 49 51 -10 q 16 178 8 108 q 54 308 24 247 q 134 410 85 368 q 246 453 183 451 q 308 433 286 454 q 344 378 329 413 q 297 381 319 382 q 253 376 274 381 q 144 327 188 364 q 80 244 101 290 q 58 147 58 197 q 75 53 57 96 q 129 -15 93 11 q 217 -37 165 -40 q 282 -10 254 -35 q 331 56 310 15 q 367 140 349 90 q 403 245 386 190 q 435 353 421 300 q 463 447 450 406 q 500 576 482 514 q 538 710 518 639 q 558 749 546 736 q 463 754 510 753 q 375 751 417 756 q 298 737 333 747 q 236 708 263 726 q 193 631 193 675 q 204 597 193 606 q 226 588 215 588 q 249 592 233 588 q 274 596 264 596 q 303 582 289 596 q 317 546 317 568 q 300 503 317 522 q 251 483 283 483 q 224 489 240 483 q 193 508 208 494 q 167 547 178 522 q 156 611 156 572 q 160 654 156 631 q 174 701 164 678 q 203 746 185 724 q 249 786 221 768 q 408 838 319 832 q 587 833 496 844 q 767 806 678 822 q 929 789 856 789 q 974 796 956 789 q 992 832 992 803 q 988 845 992 838 q 982 860 985 853 q 971 897 971 885 q 979 923 971 908 q 1010 938 988 938 m 675 958 q 772 1016 724 994 q 878 1044 821 1038 q 876 1035 876 1036 q 869 1031 876 1033 q 756 961 807 1003 q 654 857 706 919 q 613 959 639 906 q 543 1047 588 1013 q 550 1053 549 1053 q 558 1051 551 1054 q 590 1035 572 1046 q 623 1013 607 1025 q 653 985 639 1000 q 675 958 667 971 z "},"":{"ha":788,"x_min":8,"x_max":815,"o":"m 790 717 q 706 623 742 665 q 639 543 669 581 q 578 472 608 506 q 513 403 549 438 q 589 431 560 425 q 643 436 618 436 q 713 403 690 435 q 738 322 736 372 q 724 209 740 272 q 677 80 708 146 q 601 -49 646 14 q 502 -160 557 -111 q 383 -240 447 -210 q 251 -269 319 -269 q 103 -230 157 -269 q 28 -131 49 -190 q 17 -3 8 -72 q 57 126 26 67 q 137 226 88 186 q 246 268 186 267 q 308 249 286 269 q 346 192 331 228 q 297 197 321 197 q 253 192 274 196 q 147 144 189 179 q 82 62 104 108 q 58 -35 60 15 q 74 -126 57 -85 q 126 -195 90 -168 q 217 -222 163 -222 q 310 -197 263 -222 q 401 -131 357 -172 q 483 -36 444 -89 q 551 72 521 17 q 599 179 581 126 q 623 274 618 232 q 616 341 628 315 q 572 368 604 367 q 515 351 551 368 q 419 303 478 335 q 404 323 410 317 q 399 334 399 329 q 404 344 399 339 q 421 361 410 349 l 669 653 q 625 657 653 651 q 564 670 597 663 q 495 683 531 678 q 429 683 460 688 q 383 667 401 681 q 356 640 364 654 q 352 613 347 625 q 379 597 357 600 q 402 598 386 596 q 428 599 418 600 q 454 581 443 596 q 463 543 465 565 q 439 503 458 519 q 389 490 419 486 q 338 517 358 494 q 312 572 318 540 q 313 640 306 604 q 343 706 321 675 q 403 757 365 736 q 497 779 442 778 q 579 776 538 781 q 660 767 621 771 q 733 763 699 763 q 793 779 768 764 q 810 758 804 765 q 815 747 815 751 q 808 735 814 742 q 790 717 803 729 m 613 924 q 710 981 661 960 q 815 1010 758 1003 q 814 1000 814 1001 q 807 996 814 999 q 694 926 744 968 q 592 822 643 885 q 551 924 576 871 q 481 1013 525 978 q 488 1019 486 1018 q 496 1017 489 1019 q 527 1001 510 1011 q 560 978 544 990 q 590 951 576 965 q 613 924 604 936 z "},"":{"ha":788,"x_min":8,"x_max":815,"o":"m 790 717 q 706 623 742 665 q 639 543 669 581 q 578 472 608 506 q 513 403 549 438 q 589 431 560 425 q 643 436 618 436 q 713 403 690 435 q 738 322 736 372 q 724 209 740 272 q 677 80 708 146 q 601 -49 646 14 q 502 -160 557 -111 q 383 -240 447 -210 q 251 -269 319 -269 q 103 -230 157 -269 q 28 -131 49 -190 q 17 -3 8 -72 q 57 126 26 67 q 137 226 88 186 q 246 268 186 267 q 308 249 286 269 q 346 192 331 228 q 297 197 321 197 q 253 192 274 196 q 147 144 189 179 q 82 62 104 108 q 58 -35 60 15 q 74 -126 57 -85 q 126 -195 90 -168 q 217 -222 163 -222 q 310 -197 263 -222 q 401 -131 357 -172 q 483 -36 444 -89 q 551 72 521 17 q 599 179 581 126 q 623 274 618 232 q 616 341 628 315 q 572 368 604 367 q 515 351 551 368 q 419 303 478 335 q 404 323 410 317 q 399 334 399 329 q 404 344 399 339 q 421 361 410 349 l 669 653 q 625 657 653 651 q 564 670 597 663 q 495 683 531 678 q 429 683 460 688 q 383 667 401 681 q 356 640 364 654 q 352 613 347 625 q 379 597 357 600 q 402 598 386 596 q 428 599 418 600 q 454 581 443 596 q 463 543 465 565 q 439 503 458 519 q 389 490 419 486 q 338 517 358 494 q 312 572 318 540 q 313 640 306 604 q 343 706 321 675 q 403 757 365 736 q 497 779 442 778 q 579 776 538 781 q 660 767 621 771 q 733 763 699 763 q 793 779 768 764 q 810 758 804 765 q 815 747 815 751 q 808 735 814 742 q 790 717 803 729 m 610 806 q 567 824 583 806 q 554 868 551 842 q 576 913 557 894 q 621 932 596 932 q 663 913 647 932 q 676 868 679 894 q 654 824 674 842 q 610 806 635 806 z "},"":{"ha":908,"x_min":8,"x_max":1172,"o":"m 1132 -39 q 1172 -82 1172 -39 q 1163 -118 1172 -99 q 1133 -153 1153 -137 q 1084 -180 1114 -169 q 1014 -189 1054 -190 q 910 -163 957 -187 q 822 -98 863 -139 q 748 -4 782 -57 q 685 106 714 49 q 633 222 657 164 q 590 332 610 281 l 579 361 q 631 369 608 364 q 750 442 706 388 q 801 526 782 479 q 815 617 819 574 q 778 694 811 661 q 678 736 746 726 q 667 738 674 738 q 624 592 643 660 q 582 447 604 524 q 551 338 568 400 q 515 215 535 276 q 471 97 494 153 q 421 6 447 42 q 351 -58 392 -33 q 251 -83 310 -82 q 105 -48 158 -86 q 30 49 51 -10 q 17 178 8 108 q 56 308 25 247 q 135 410 86 368 q 246 453 185 451 q 308 433 286 454 q 346 378 331 413 q 297 381 321 382 q 253 376 274 381 q 144 327 188 364 q 81 244 101 290 q 59 147 60 197 q 76 54 58 96 q 129 -14 93 13 q 217 -37 165 -40 q 283 -9 256 -35 q 332 56 311 17 q 369 140 350 90 q 404 245 388 190 q 435 353 421 300 q 463 449 450 407 q 481 511 472 482 q 497 569 489 540 q 515 629 506 599 q 535 694 524 660 q 564 742 544 729 q 506 741 533 742 q 454 742 478 740 q 460 768 460 760 q 465 778 461 776 q 485 779 468 779 q 528 779 501 779 q 628 780 576 779 q 728 776 679 781 q 867 730 817 768 q 931 640 917 692 q 923 531 944 589 q 849 424 901 474 q 706 346 790 369 q 749 246 725 300 q 801 136 774 192 q 858 28 829 81 q 919 -64 888 -24 q 982 -128 950 -104 q 1044 -153 1014 -153 q 1091 -133 1071 -153 q 1107 -90 1111 -112 q 1110 -55 1103 -71 q 1132 -39 1117 -39 m 686 843 q 672 842 676 842 q 663 844 667 842 q 654 849 658 846 q 642 858 650 853 q 693 884 669 867 q 736 923 717 901 q 772 969 756 944 q 801 1017 789 993 q 815 994 807 1007 q 828 969 822 982 q 835 945 833 957 q 828 925 836 933 q 764 874 799 897 q 686 843 729 850 z "},"":{"ha":596,"x_min":6,"x_max":901,"o":"m 800 -90 q 816 -50 800 -62 q 851 -39 832 -37 q 885 -55 869 -40 q 901 -96 901 -69 q 889 -146 901 -125 q 857 -179 876 -167 q 774 -201 822 -201 q 659 -185 710 -203 q 567 -140 608 -168 q 492 -79 526 -112 q 428 -16 458 -46 q 370 35 399 14 q 311 61 342 57 q 229 -41 276 -6 q 113 -83 182 -76 q 28 -65 50 -90 q 22 -3 6 -39 q 88 67 38 32 q 221 115 139 101 q 271 251 247 178 q 316 401 294 325 q 357 554 338 478 q 397 699 376 631 q 422 742 404 729 l 318 742 q 324 765 322 757 q 328 776 325 772 q 336 779 331 779 q 354 779 342 779 l 540 779 q 528 736 533 757 q 515 693 522 715 q 475 551 494 626 q 435 399 456 475 q 390 249 414 322 q 340 115 367 176 q 447 88 401 110 q 530 35 493 65 q 597 -29 567 4 q 657 -91 628 -62 q 716 -139 686 -119 q 782 -158 746 -158 q 801 -154 793 -158 q 810 -139 810 -150 q 805 -117 810 -132 q 800 -90 800 -103 m 79 -37 q 144 -6 115 -36 q 194 61 174 25 q 131 49 164 64 q 77 13 99 33 q 53 -23 56 -7 q 79 -37 50 -39 m 442 843 q 427 842 432 842 q 418 844 422 842 q 410 849 414 846 q 397 858 406 853 q 449 884 425 867 q 492 923 472 901 q 528 969 511 944 q 557 1017 544 993 q 570 994 563 1007 q 583 969 578 982 q 590 945 589 957 q 583 925 592 933 q 519 874 554 897 q 442 843 485 850 z "},"":{"ha":529,"x_min":14,"x_max":536,"o":"m 529 690 q 525 632 536 663 q 500 594 517 606 q 467 585 483 583 q 439 597 451 586 q 426 626 426 608 q 436 658 425 640 q 444 679 440 667 q 445 703 447 692 q 433 724 443 715 q 401 732 424 732 q 308 679 356 732 q 220 548 260 626 q 156 378 181 469 q 134 209 132 288 q 170 80 136 131 q 282 31 204 29 q 340 46 311 32 q 394 88 369 60 q 424 136 411 107 q 443 206 436 165 q 476 143 476 178 q 461 96 475 121 q 363 10 426 40 q 233 -19 300 -21 q 106 17 154 -18 q 35 109 57 53 q 15 237 14 165 q 37 383 17 308 q 94 528 57 457 q 179 654 131 599 q 285 744 228 710 q 406 779 343 779 q 481 759 444 779 q 529 690 518 739 m 321 843 q 306 842 311 842 q 297 844 301 842 q 289 849 293 846 q 276 858 285 853 q 328 884 304 867 q 371 923 351 901 q 407 969 390 944 q 436 1017 424 993 q 449 994 442 1007 q 463 969 457 982 q 469 945 468 957 q 463 925 471 933 q 399 874 433 897 q 321 843 364 850 z "},"":{"ha":529,"x_min":14,"x_max":576,"o":"m 529 690 q 525 632 536 663 q 500 594 517 606 q 467 585 483 583 q 439 597 451 586 q 426 626 426 608 q 436 658 425 640 q 444 679 440 667 q 445 703 447 692 q 433 724 443 715 q 401 732 424 732 q 308 679 356 732 q 220 548 260 626 q 156 378 181 469 q 134 209 132 288 q 170 80 136 131 q 282 31 204 29 q 340 46 311 32 q 394 88 369 60 q 424 136 411 107 q 443 206 436 165 q 476 143 476 178 q 461 96 475 121 q 363 10 426 40 q 233 -19 300 -21 q 106 17 154 -18 q 35 109 57 53 q 15 237 14 165 q 37 383 17 308 q 94 528 57 457 q 179 654 131 599 q 285 744 228 710 q 406 779 343 779 q 481 759 444 779 q 529 690 518 739 m 374 924 q 471 981 422 960 q 576 1010 519 1003 q 575 1000 575 1001 q 568 996 575 999 q 455 926 506 968 q 353 822 404 885 q 312 924 338 871 q 242 1013 286 978 q 249 1019 247 1018 q 257 1017 250 1019 q 288 1001 271 1011 q 322 978 306 990 q 351 951 338 965 q 374 924 365 936 z "},"":{"ha":554,"x_min":11,"x_max":576,"o":"m 417 635 q 422 649 418 643 q 429 663 425 656 q 436 714 454 693 q 389 731 424 731 q 309 701 346 731 q 256 631 272 672 q 249 545 239 590 q 310 468 258 500 q 343 472 322 469 q 384 474 364 475 q 420 466 404 474 q 438 442 436 458 q 422 413 439 424 q 383 397 406 401 q 336 394 360 393 q 300 399 313 394 q 199 342 238 378 q 144 266 161 307 q 131 184 126 225 q 156 109 135 143 q 217 54 178 75 q 311 35 257 33 q 416 78 372 36 q 471 210 460 119 q 497 178 489 194 q 506 147 504 163 q 484 77 507 110 q 424 22 461 44 q 338 -12 386 -1 q 239 -18 290 -22 q 108 22 158 -11 q 34 100 57 54 q 15 199 11 146 q 46 301 18 253 q 123 387 74 349 q 242 440 172 425 q 147 548 167 489 q 149 658 126 607 q 231 744 172 710 q 374 779 290 779 q 463 758 422 779 q 515 689 503 736 q 517 660 518 676 q 513 629 517 644 q 495 596 507 610 q 465 581 483 582 q 428 597 442 579 q 417 635 414 614 m 374 924 q 471 981 422 960 q 576 1010 519 1003 q 575 1000 575 1001 q 568 996 575 999 q 455 926 506 968 q 353 822 404 885 q 312 924 338 871 q 242 1013 286 978 q 249 1019 247 1018 q 257 1017 250 1019 q 288 1001 271 1011 q 322 978 306 990 q 351 951 338 965 q 374 924 365 936 z "},"":{"ha":972,"x_min":8,"x_max":949,"o":"m 642 781 q 788 748 728 781 q 885 662 849 715 q 935 540 922 608 q 941 398 949 471 q 905 256 933 325 q 829 131 876 186 q 717 40 782 75 q 569 1 651 4 q 509 0 546 0 q 450 3 472 0 q 468 35 463 25 q 480 48 474 44 q 498 51 486 51 q 535 51 510 50 q 675 103 615 57 q 772 218 735 150 q 824 367 810 286 q 825 521 838 447 q 773 651 813 594 q 664 731 733 708 q 628 611 644 667 q 594 494 613 556 l 688 494 q 678 470 681 478 q 672 459 676 463 q 658 456 667 456 q 628 457 649 457 l 585 457 q 581 447 582 451 q 550 339 567 400 q 514 216 533 278 q 471 99 494 154 q 421 7 447 43 q 350 -56 390 -32 q 251 -83 310 -81 q 105 -47 158 -86 q 30 51 51 -8 q 17 179 8 110 q 56 309 25 249 q 135 411 86 369 q 246 454 185 453 q 308 435 286 456 q 346 378 331 414 q 297 383 321 383 q 253 378 274 382 q 144 328 188 365 q 80 245 101 292 q 58 148 58 199 q 75 55 57 97 q 129 -13 93 13 q 217 -36 165 -39 q 283 -8 254 -33 q 331 57 311 17 q 367 142 349 92 q 403 247 386 192 q 435 354 421 301 q 463 449 450 407 q 465 457 463 451 l 367 457 q 374 481 372 474 q 381 492 376 489 q 392 494 385 494 q 418 494 400 494 l 475 494 q 503 592 490 546 q 533 696 517 638 q 564 742 544 731 l 456 742 q 461 769 460 760 q 467 779 463 778 q 504 780 469 781 q 583 779 539 779 q 613 779 599 779 q 642 781 628 779 z "},"":{"ha":972,"x_min":8,"x_max":949,"o":"m 642 779 q 788 747 728 779 q 885 660 849 714 q 935 538 922 607 q 941 397 949 469 q 905 254 933 324 q 829 129 876 185 q 717 38 782 74 q 569 0 651 3 q 509 -1 546 -1 q 450 1 472 -1 q 468 33 463 24 q 480 47 474 43 q 498 49 486 50 q 535 50 510 49 q 675 102 615 56 q 772 217 735 149 q 824 365 810 285 q 825 519 838 446 q 773 650 813 593 q 664 729 733 707 q 622 588 640 654 q 581 446 603 522 q 550 338 567 399 q 514 215 533 276 q 471 97 494 153 q 421 6 447 42 q 350 -58 390 -33 q 251 -85 310 -82 q 105 -49 158 -87 q 30 49 51 -10 q 17 178 8 108 q 56 308 25 247 q 135 410 86 368 q 246 453 185 451 q 308 433 286 454 q 346 376 331 413 q 297 381 321 382 q 253 376 274 381 q 144 327 188 364 q 80 244 101 290 q 58 147 58 197 q 75 53 57 96 q 129 -15 93 11 q 217 -37 165 -40 q 283 -10 254 -35 q 331 56 311 15 q 367 140 349 90 q 403 245 386 190 q 435 353 421 300 q 463 447 450 406 q 497 569 481 514 q 533 694 514 625 q 564 740 544 729 l 456 740 q 461 767 460 758 q 467 778 463 776 q 504 778 469 779 q 583 778 539 778 q 613 778 599 778 q 642 779 628 778 m 689 924 q 786 981 738 960 q 892 1010 835 1003 q 890 1000 890 1001 q 883 996 890 999 q 770 926 821 968 q 668 822 719 885 q 627 924 653 871 q 557 1013 601 978 q 564 1019 563 1018 q 572 1017 565 1019 q 603 1001 586 1011 q 637 978 621 990 q 667 951 653 965 q 689 924 681 936 z "}}}
